<?xml version="1.0" encoding="utf-8"?>
<!-- Generator: Adobe Illustrator 26.0.3, SVG Export Plug-In . SVG Version: 6.00 Build 0)  -->
<svg version="1.1" id="图层_1" xmlns="http://www.w3.org/2000/svg" xmlns:xlink="http://www.w3.org/1999/xlink" x="0px" y="0px"
	 viewBox="0 0 900 2000" style="enable-background:new 0 0 900 2000;" xml:space="preserve">
<style type="text/css">
	.st0{fill:#E6E6E6;}
	.st1{fill:#CCCCCC;}
	.st2{fill:#F2F2F2;}
</style>
<g>
	<path class="st0" d="M313.7,858.8h-75.3V416.1c0-10.6,8.6-19.2,19.2-19.2h38.1c9.9,0,18,8.1,18,18V858.8z"/>
	<polygon class="st0" points="363.1,858.8 313.7,858.8 313.7,489.2 363.1,458.1 	"/>
	<rect x="354.3" y="433.4" class="st0" width="151.2" height="425.4"/>
	<rect x="496.1" y="483.4" class="st0" width="67.1" height="375.4"/>
	<polygon class="st0" points="238.3,858.8 183,858.8 183,396.9 238.3,433.4 	"/>
	<path class="st0" d="M74.7,858.8H-0.2V415.7H34c22.5,0,40.7,18.2,40.7,40.7V858.8z"/>
	<rect x="74.7" y="327.5" class="st0" width="108.3" height="531.3"/>
	<polygon class="st0" points="128.9,260 74.7,327.5 183,327.5 	"/>
	<rect x="124.8" y="220.4" class="st0" width="8.2" height="60.5"/>
	<rect x="563.2" y="593.2" class="st0" width="77.7" height="265.6"/>
	<circle class="st0" cx="602" cy="589" r="38.8"/>
	<rect x="630.5" y="396.9" class="st0" width="101" height="461.9"/>
	<rect x="652.7" y="375.8" class="st0" width="56.5" height="21.8"/>
	<polygon class="st0" points="773.8,858.8 719.7,858.8 719.7,467.6 773.8,520.5 	"/>
	<rect x="763" y="599.4" class="st0" width="137.1" height="259.4"/>
	<rect x="851" y="562" class="st0" width="40.6" height="54.1"/>
</g>
<g>
	<rect x="45.8" y="481.4" class="st1" width="137.2" height="1518.6"/>
	<polygon class="st1" points="246,2000 164.1,2000 164.1,687.1 246,573.6 	"/>
	<rect x="338.4" y="525.1" class="st1" width="156.5" height="1474.9"/>
	<polygon class="st1" points="639.7,2000 494.9,2000 494.9,599.4 639.7,658.5 	"/>
	<rect x="614.4" y="767.5" class="st1" width="71.8" height="1232.5"/>
	<rect x="650.3" y="496.6" class="st1" width="83.6" height="1503.4"/>
	<rect x="-0.2" y="663.2" class="st1" width="57.3" height="1336.8"/>
	<rect x="733.8" y="627.9" class="st1" width="73" height="1372.1"/>
	<rect x="806.8" y="431.1" class="st1" width="33" height="1568.9"/>
	<rect x="839.8" y="654.7" class="st1" width="60.4" height="1345.3"/>
	<polygon class="st1" points="363.1,2000 246,2000 246,573.6 363.1,654.7 	"/>
	<circle class="st1" cx="28.5" cy="658.5" r="28.6"/>
	<rect x="69.4" y="496.6" class="st0" width="19.5" height="19.5"/>
	<rect x="94.3" y="496.6" class="st0" width="19.5" height="19.5"/>
	<rect x="119.6" y="496.6" class="st0" width="19.5" height="19.5"/>
	<rect x="144.5" y="496.6" class="st0" width="19.5" height="19.5"/>
	<rect x="69.4" y="520.2" class="st0" width="19.5" height="19.5"/>
	<rect x="94.5" y="520.2" class="st0" width="19.5" height="19.5"/>
	<rect x="69.4" y="544.9" class="st0" width="19.5" height="19.5"/>
	<rect x="94.3" y="544.9" class="st0" width="19.5" height="19.5"/>
	<rect x="119.6" y="520.2" class="st0" width="19.5" height="19.5"/>
	<rect x="350.6" y="544.9" class="st0" width="19.5" height="19.5"/>
	<rect x="377.2" y="544.9" class="st0" width="19.5" height="19.5"/>
	<rect x="403.9" y="544.9" class="st0" width="19.5" height="19.5"/>
	<rect x="430.5" y="544.9" class="st0" width="19.5" height="19.5"/>
	<rect x="350.6" y="573.6" class="st0" width="19.5" height="19.5"/>
	<rect x="377.2" y="573.6" class="st0" width="19.5" height="19.5"/>
	<rect x="750.8" y="644.9" class="st0" width="19.5" height="19.5"/>
	<rect x="777.4" y="644.9" class="st0" width="19.5" height="19.5"/>
	<rect x="670.9" y="515.3" class="st0" width="19.5" height="19.5"/>
	<rect x="697.6" y="515.3" class="st0" width="19.5" height="19.5"/>
	<rect x="670.9" y="540.4" class="st0" width="19.5" height="19.5"/>
	<rect x="697.6" y="540.4" class="st0" width="19.5" height="19.5"/>
	<rect x="515.6" y="671" class="st0" width="56.2" height="10.7"/>
	<rect x="515.6" y="689" class="st0" width="56.2" height="10.7"/>
	<rect x="515.6" y="706.6" class="st0" width="56.2" height="10.7"/>
	<rect x="578.3" y="671" class="st0" width="10.7" height="10.7"/>
</g>
<g>
	<g>
		<circle class="st2" cx="550" cy="272.9" r="71.9"/>
	</g>
	<g>
		<circle class="st0" cx="550" cy="272.9" r="53.9"/>
	</g>
	<g>
		<circle class="st1" cx="550" cy="272.9" r="35.9"/>
	</g>
</g>
</svg>
