<?xml version="1.0" encoding="utf-8"?>
<!-- Generator: Adobe Illustrator 26.0.3, SVG Export Plug-In . SVG Version: 6.00 Build 0)  -->
<svg version="1.1" xmlns="http://www.w3.org/2000/svg" xmlns:xlink="http://www.w3.org/1999/xlink" x="0px" y="0px"
	 viewBox="0 0 500 500" style="enable-background:new 0 0 500 500;" xml:space="preserve">
<style type="text/css">
	.st0{fill:#79BBFF;}
	.st1{fill:#A0CFFF;}
	.st2{fill:#FFB55A;}
	.st3{fill:#FFCF00;}
	.st4{fill:#ECF5FF;}
	.st5{display:none;}
	.st6{display:inline;}
	.st7{fill:#F15A24;}
</style>
<g id="图层_1">
	<g>
		<polygon class="st0" points="292.5,427 161.1,427 226.8,250 292.5,73 358.2,250 423.9,427 		"/>
		<polygon class="st1" points="152.5,427 76.1,427 114.3,311.6 152.5,196.3 190.7,311.6 228.9,427 		"/>
		<polygon class="st2" points="146.3,152 186.6,108.4 230.2,148.8 189.9,192.4 		"/>
		<rect x="158.5" y="120.7" class="st2" width="59.4" height="59.4"/>
		
			<ellipse transform="matrix(8.248048e-02 -0.9966 0.9966 8.248048e-02 22.8359 325.5802)" class="st3" cx="188.2" cy="150.4" rx="29.8" ry="29.8"/>
		<polygon class="st4" points="141.5,262.5 152.5,262.5 147,267.6 141.5,272.7 136.1,267.6 130.6,262.5 		"/>
		<polygon class="st4" points="152.5,262.5 130.6,262.5 141.5,229.4 152.5,196.3 163.5,229.4 174.4,262.5 		"/>
		<polygon class="st4" points="163.5,262.5 174.4,262.5 168.9,267.6 163.5,272.7 158,267.6 152.5,262.5 		"/>
		<polygon class="st4" points="272.6,179.7 292.5,179.7 282.5,188 272.6,196.3 262.6,188 252.7,179.7 		"/>
		<polygon class="st4" points="292.5,179.7 252.7,179.7 272.6,126.4 292.5,73 312.4,126.4 332.3,179.7 		"/>
		<polygon class="st4" points="312.4,179.7 332.3,179.7 322.3,188 312.4,196.3 302.4,188 292.5,179.7 		"/>
	</g>
</g>
<g id="图层_2" class="st5">
	<g class="st6">
		<path class="st7" d="M409.7,294.9H90.3c-6.3,0-11.5-5.2-11.5-11.5v0c0-6.3,5.2-11.5,11.5-11.5h319.4c6.3,0,11.5,5.2,11.5,11.5v0
			C421.2,289.7,416,294.9,409.7,294.9z"/>
		<path class="st7" d="M247.4,132c-77.2,0-139.8,62.6-139.8,139.8h279.6C387.2,194.6,324.6,132,247.4,132z"/>
		<path class="st7" d="M280.7,331.4H114.6c-6.3,0-11.5-5.2-11.5-11.5v0c0-6.3,5.2-11.5,11.5-11.5h166.1c6.3,0,11.5,5.2,11.5,11.5v0
			C292.2,326.2,287,331.4,280.7,331.4z"/>
		<path class="st7" d="M346.2,331.4h-34.6c-6.3,0-11.5-5.2-11.5-11.5v0c0-6.3,5.2-11.5,11.5-11.5h34.6c6.3,0,11.5,5.2,11.5,11.5v0
			C357.7,326.2,352.5,331.4,346.2,331.4z"/>
		<path class="st7" d="M375.7,331.4L375.7,331.4c-6.3,0-11.5-5.2-11.5-11.5v0c0-6.3,5.2-11.5,11.5-11.5l0,0
			c6.3,0,11.5,5.2,11.5,11.5v0C387.2,326.2,382,331.4,375.7,331.4z"/>
		<path class="st7" d="M283.3,368H182.5c-6.3,0-11.5-5.2-11.5-11.5v0c0-6.3,5.2-11.5,11.5-11.5h100.7c6.3,0,11.5,5.2,11.5,11.5v0
			C294.8,362.8,289.6,368,283.3,368z"/>
		<path class="st7" d="M213.1,301.6c0-3.7,3-6.7,6.7-6.7h-97.7c3.7,0,6.7,3,6.7,6.7c0,3.7-3,6.7-6.7,6.7h97.7
			C216.1,308.4,213.1,305.3,213.1,301.6z"/>
		<path class="st7" d="M245.2,338.2c0-3.7,2.2-6.7,4.8-6.7h-69.6c2.6,0,4.8,3,4.8,6.7c0,3.7-2.2,6.7-4.8,6.7H250
			C247.4,344.9,245.2,341.9,245.2,338.2z"/>
	</g>
</g>
</svg>
