<svg version="1.1" id="prefix__图层_1" xmlns="http://www.w3.org/2000/svg" x="0" y="0" viewBox="0 0 500 500" xml:space="preserve"><style>.prefix__st0{fill:#d9ecff}.prefix__st2{fill:#8cc5ff}.prefix__st4{fill:#66b1ff}.prefix__st6{fill:#409eff}</style><path class="prefix__st0" d="M163.2 415.8h-15.8c-4.4 0-7.9 3.5-7.9 7.9s3.5 7.9 7.9 7.9h15.8c4.4 0 7.9-3.5 7.9-7.9s-3.6-7.9-7.9-7.9zM194.7 384.2h-63.2c-4.4 0-7.9 3.5-7.9 7.9s3.5 7.9 7.9 7.9h63.2c4.4 0 7.9-3.5 7.9-7.9s-3.5-7.9-7.9-7.9zM186.8 360.5c0-4.4-3.5-7.9-7.9-7.9h-47.4c-4.4 0-7.9 3.5-7.9 7.9s3.5 7.9 7.9 7.9H179c4.3 0 7.8-3.5 7.8-7.9z"/><path class="prefix__st2" d="M226.3 321H115.8c-4.4 0-7.9 3.5-7.9 7.9s3.5 7.9 7.9 7.9h110.5c4.4 0 7.9-3.5 7.9-7.9 0-4.3-3.5-7.9-7.9-7.9zM257.9 289.5H131.6c-4.4 0-7.9 3.5-7.9 7.9s3.5 7.9 7.9 7.9h126.3c4.4 0 7.9-3.5 7.9-7.9s-3.5-7.9-7.9-7.9zM289.5 257.9H163.2c-4.4 0-7.9 3.5-7.9 7.9s3.5 7.9 7.9 7.9h126.3c4.4 0 7.9-3.5 7.9-7.9s-3.6-7.9-7.9-7.9z"/><path class="prefix__st4" d="M336.8 226.3h-221c-4.4 0-7.9 3.5-7.9 7.9s3.5 7.9 7.9 7.9h221.1c4.4 0 7.9-3.5 7.9-7.9-.1-4.4-3.6-7.9-8-7.9zM84.2 210.5h221c4.4 0 7.9-3.5 7.9-7.9s-3.5-7.9-7.9-7.9h-221c-4.4 0-7.9 3.5-7.9 7.9s3.6 7.9 7.9 7.9zM336.8 163.2h-221c-4.4 0-7.9 3.5-7.9 7.9s3.5 7.9 7.9 7.9h221.1c4.4 0 7.9-3.5 7.9-7.9-.1-4.4-3.6-7.9-8-7.9z"/><path class="prefix__st6" d="M384.2 147.4c4.4 0 7.9-3.5 7.9-7.9s-3.5-7.9-7.9-7.9H131.6c-4.4 0-7.9 3.5-7.9 7.9s3.5 7.9 7.9 7.9h252.6zM305.3 100H100c-4.4 0-7.9 3.5-7.9 7.9s3.5 7.9 7.9 7.9h205.3c4.4 0 7.9-3.5 7.9-7.9s-3.6-7.9-7.9-7.9zM431.6 68.4H68.4c-4.4 0-7.9 3.5-7.9 7.9s3.5 7.9 7.9 7.9h363.2c4.4 0 7.9-3.5 7.9-7.9 0-4.3-3.6-7.9-7.9-7.9z"/></svg>