<svg xmlns="http://www.w3.org/2000/svg" viewBox="0 0 500 500"><style>.prefix__st2{fill:#4fc0f2}</style><path d="M391.8 144.5h-.4c-4.1-44.2-41.2-78.8-86.5-78.8-48 0-86.9 38.9-86.9 86.9 0 46.4 36.4 84.3 82.2 86.8v.1h91.6c26.2 0 47.5-21.3 47.5-47.5s-21.3-47.5-47.5-47.5z" fill="#e3e3e3"/><path d="M338.1 168.8c-14-47.8-58.1-82.7-110.5-82.7-62.8 0-113.9 50.4-115.1 112.9-29.2 3.4-51.9 28.3-51.9 58.5 0 32.5 26.4 58.9 58.9 58.9h209.8c40.9 0 74-33.1 74-74 0-38-28.5-69.3-65.2-73.6z" fill="#f6f6f6"/><path class="prefix__st2" d="M135.5 390.6l18.3-44.8c2.8-6.9 10.7-10.2 17.6-7.4 6.9 2.8 10.2 10.7 7.4 17.6l-18.3 44.8c-2.8 6.9-10.7 10.2-17.6 7.4-6.9-2.9-10.2-10.8-7.4-17.6zM199.1 415.7l28.5-69.9c2.8-6.9 10.7-10.2 17.6-7.4 6.9 2.8 10.2 10.7 7.4 17.6l-28.5 69.9c-2.8 6.9-10.7 10.2-17.6 7.4-6.9-2.8-10.2-10.7-7.4-17.6zM272.9 390.6l18.3-44.8c2.8-6.9 10.7-10.2 17.6-7.4 6.9 2.8 10.2 10.7 7.4 17.6l-18.3 44.8c-2.8 6.9-10.7 10.2-17.6 7.4-6.9-2.9-10.2-10.8-7.4-17.6zM61.7 408.5l28.5-69.9c2.8-6.9 10.7-10.2 17.6-7.4 6.9 2.8 10.2 10.7 7.4 17.6l-28.5 69.9c-2.8 6.9-10.7 10.2-17.6 7.4-6.9-2.8-10.3-10.7-7.4-17.6zM336.5 415.7l28.5-69.9c2.8-6.9 10.7-10.2 17.6-7.4 6.9 2.8 10.2 10.7 7.4 17.6l-28.5 69.9c-2.8 6.9-10.7 10.2-17.6 7.4-6.9-2.8-10.2-10.7-7.4-17.6z"/></svg>