<svg version="1.1" id="prefix__图层_1" xmlns="http://www.w3.org/2000/svg" x="0" y="0" viewBox="0 0 500 500" xml:space="preserve"><style>.prefix__st2{fill:#4fc0f2}</style><path d="M398.6 160.1h-.4c-4.3-46.3-43.2-82.6-90.6-82.6-50.3 0-91 40.8-91 91 0 48.6 38.1 88.3 86.1 90.9v.1h96c27.5 0 49.8-22.3 49.8-49.8s-22.4-49.6-49.9-49.6z" fill="#e3e3e3"/><path d="M342.3 185.6c-14.7-50.1-60.9-86.7-115.7-86.7-65.8 0-119.3 52.8-120.5 118.3-30.6 3.6-54.4 29.6-54.4 61.2 0 34.1 27.6 61.7 61.7 61.7h219.8c42.8 0 77.6-34.7 77.6-77.6-.1-39.6-30-72.4-68.5-76.9z" fill="#f6f6f6"/><path class="prefix__st2" d="M296.3 323.2h-30.5l15.3-26.4c4.7-8.1 1.9-18.5-6.2-23.2-8.1-4.6-18.5-1.9-23.2 6.2l-15.3 26.4-15.3-26.4c-5.2-7.8-15.8-9.9-23.6-4.7-7.1 4.7-9.6 14-5.8 21.7l15.3 26.4h-30.5c-9.4 0-17 7.6-17 16.9 0 9.4 7.6 17 16.9 17H207l-15.3 26.4c-4.7 8.2-1.8 18.5 6.3 23.2 2.6 1.5 5.4 2.2 8.4 2.3 6.1 0 11.7-3.2 14.7-8.5l15.3-26.4 15.3 26.4c4.7 8.1 15.1 10.9 23.2 6.2s10.9-15.1 6.2-23.2l-15.3-26.4h30.5c9.4 0 17-7.6 16.9-17 0-9.4-7.6-16.9-16.9-16.9zM131.8 344.8h-15.3l7.6-13.2c2.3-4.1.9-9.2-3.1-11.6-4.1-2.3-9.2-.9-11.6 3.1l-7.6 13.2-7.6-13.2c-2.6-3.9-7.9-5-11.8-2.3-3.5 2.4-4.8 7-2.9 10.8l7.6 13.2H71.9c-4.7 0-8.5 3.8-8.5 8.5s3.8 8.5 8.5 8.5h15.3L79.5 375c-2.3 4.1-.9 9.3 3.2 11.6 1.3.7 2.7 1.1 4.2 1.1 3 0 5.8-1.6 7.4-4.2l7.6-13.2 7.6 13.2c2.3 4.1 7.5 5.4 11.6 3.1 4-2.4 5.4-7.5 3.1-11.6l-7.6-13.2h15.3c4.7 0 8.5-3.8 8.5-8.5-.1-4.7-3.9-8.5-8.6-8.5zM400.8 350.7h-15.3l7.6-13.2c2.3-4.1.9-9.2-3.1-11.6-4.1-2.3-9.2-.9-11.6 3.1l-7.6 13.2-7.6-13.2c-2.6-3.9-7.9-5-11.8-2.3-3.5 2.4-4.8 7-2.9 10.8l7.6 13.2h-15.3c-4.7 0-8.5 3.8-8.5 8.5s3.8 8.5 8.5 8.5h15.3l-7.6 13.2c-2.3 4.1-.9 9.3 3.2 11.6 1.3.7 2.7 1.1 4.2 1.1 3 0 5.8-1.6 7.4-4.2l7.6-13.2 7.6 13.2c2.3 4.1 7.5 5.4 11.6 3.1 4-2.4 5.4-7.5 3.1-11.6l-7.6-13.2h15.3c4.7 0 8.5-3.8 8.5-8.5-.1-4.7-3.9-8.5-8.6-8.5zM183.3 413.7H168l7.6-13.2c2.3-4.1.9-9.2-3.1-11.6-4.1-2.3-9.2-.9-11.6 3.1l-7.6 13.2-7.6-13.2c-2.6-3.9-7.9-5-11.8-2.3-3.5 2.4-4.8 7-2.9 10.8l7.6 13.2h-15.3c-4.7 0-8.5 3.8-8.5 8.5s3.8 8.5 8.5 8.5h15.3l-7.6 13.2c-2.3 4.1-.9 9.3 3.2 11.6 1.3.7 2.7 1.1 4.2 1.1 3 0 5.8-1.6 7.4-4.2l7.6-13.2 7.6 13.2c2.3 4.1 7.5 5.4 11.6 3.1 4-2.4 5.4-7.5 3.1-11.6l-7.6-13.2h15.3c4.7 0 8.5-3.8 8.5-8.5-.1-4.7-3.9-8.5-8.6-8.5zM350.6 413.7h-15.3l7.6-13.2c2.3-4.1.9-9.2-3.1-11.6-4.1-2.3-9.2-.9-11.6 3.1l-7.6 13.2L313 392c-2.6-3.9-7.9-5-11.8-2.3-3.5 2.4-4.8 7-2.9 10.8l7.6 13.2h-15.3c-4.7 0-8.5 3.8-8.5 8.5s3.8 8.5 8.5 8.5H306l-7.6 13.2c-2.3 4.1-.9 9.3 3.2 11.6 1.3.7 2.7 1.1 4.2 1.1 3 0 5.8-1.6 7.4-4.2l7.6-13.2 7.6 13.2c2.3 4.1 7.5 5.4 11.6 3.1 4-2.4 5.4-7.5 3.1-11.6l-7.6-13.2h15.3c4.7 0 8.5-3.8 8.5-8.5s-4-8.5-8.7-8.5z"/></svg>