<svg version="1.1" id="prefix__图层_1" xmlns="http://www.w3.org/2000/svg" x="0" y="0" viewBox="0 0 500 500" xml:space="preserve"><style>.prefix__st0{fill:#e6e6e6}</style><path class="prefix__st0" d="M434.9 115.9H65.4c-16.3 0-29.5-13.2-29.5-29.5s13.2-29.5 29.5-29.5h369.5c16.3 0 29.5 13.2 29.5 29.5s-13.3 29.5-29.5 29.5zM434.9 232.8H65.4c-16.3 0-29.5-13.2-29.5-29.5s13.2-29.5 29.5-29.5h369.5c16.3 0 29.5 13.2 29.5 29.5s-13.3 29.5-29.5 29.5zM240.9 349.7H65.4c-16.2 0-29.5-13.3-29.5-29.5s13.3-29.5 29.5-29.5h175.5c16.2 0 29.5 13.3 29.5 29.5s-13.3 29.5-29.5 29.5z"/><path d="M447.4 318.7h-30.5l15.3-26.4c4.7-8.1 1.9-18.5-6.2-23.2-8.1-4.6-18.5-1.9-23.2 6.2l-15.3 26.4-15.3-26.4c-5.2-7.8-15.8-9.9-23.6-4.7-7.1 4.7-9.6 14-5.8 21.7l15.3 26.4h-30.5c-9.4 0-17 7.6-17 16.9 0 9.4 7.6 17 16.9 17H358L342.8 379c-4.7 8.2-1.8 18.5 6.3 23.2 2.6 1.5 5.4 2.2 8.4 2.3 6.1 0 11.7-3.2 14.7-8.5l15.3-26.4 15.3 26.4c4.7 8.1 15.1 10.9 23.2 6.2s10.9-15.1 6.2-23.2l-15.3-26.4h30.5c9.4 0 17-7.6 16.9-17 0-9.3-7.6-16.9-16.9-16.9z" fill="#4fc0f2"/></svg>