<svg xmlns="http://www.w3.org/2000/svg" viewBox="0 0 500 500"><path d="M133.7 240.6h79.9l-39.9 69.1c-5.5 10.3-1.5 23.1 8.8 28.6 9.8 5.2 21.9 1.9 27.8-7.4l39.9-69.1 39.9 69.1c5.8 10.1 18.7 13.5 28.8 7.7 10.1-5.8 13.6-18.7 7.8-28.9l-40-69.1h79.9c11.7 0 21.1-9.5 21.1-21.1 0-11.7-9.5-21.1-21.1-21.1h-79.8l39.9-69.1c5.7-10.2 2-23.1-8.2-28.8-10-5.6-22.6-2.2-28.5 7.6l-39.9 69.1-39.9-69.1c-6.2-9.9-19.3-12.8-29.2-6.6-9.4 5.9-12.6 18-7.4 27.8l39.9 69.1h-79.9c-11.7 0-21.1 9.4-21.1 21.1.1 11.6 9.5 21.1 21.2 21.1z" fill="#3fa9f5"/><path d="M440.3 250c-11.4 0-20.8 9.3-20.8 20.8V379h-339V270.8c0-11.4-9.3-20.8-20.8-20.8-11.4 0-20.8 9.3-20.8 20.8v128.9c0 5.7 2.3 10.9 6.1 14.7.5.5 1 .9 1.5 1.3 1 .8 2.1 1.6 3.3 2.2 1.8 1 3.7 1.7 5.7 2.1 1.3.3 2.7.4 4.2.4h380.5c1.4 0 2.8-.1 4.2-.4 2-.4 3.9-1.1 5.7-2.1 1.2-.6 2.3-1.4 3.3-2.2.5-.4 1-.9 1.5-1.3 3.8-3.8 6.1-9 6.1-14.7V270.8c0-11.5-9.3-20.8-20.7-20.8z" fill="#62bee2"/></svg>