<svg xmlns="http://www.w3.org/2000/svg" viewBox="0 0 500 500"><style>.prefix__st2{fill:#707070}</style><path id="prefix__Layer_00000134940331101932734760000003625063363348333955_" d="M241 347.6V210.8c0-4.9-4-8.9-8.9-8.9s-8.9 4-8.9 8.9v136.8c-8.1 3.4-13.9 11.5-13.9 21 0 12.6 10.2 22.8 22.8 22.8s22.8-10.2 22.8-22.8c0-9.5-5.7-17.6-13.9-21z" fill="#ff6464"/><path d="M271.9 314.7V100.5c0-18.8-15.2-34-34-34h-11.4c-18.8 0-34 15.2-34 34v214.2c-16 12.1-26.3 31.2-26.3 52.8 0 36.4 29.6 66 66 66s66-29.6 66-66c0-21.6-10.3-40.7-26.3-52.8zm-39.8 104c-28.3 0-51.2-22.9-51.2-51.2 0-12.4 4.4-23.7 11.7-32.6 4-4.9 9-9 14.7-12.1V100.5c0-10.7 8.6-19.2 19.2-19.2h11.4c10.7 0 19.2 8.6 19.2 19.2V112h-13.3c-2.1 0-3.9 1.8-3.9 3.8 0 2.1 1.8 3.9 3.9 3.9h13.3v20.9h-13.3c-2.1 0-3.9 1.8-3.9 3.8 0 2.1 1.8 3.8 3.9 3.8h13.3v20.9h-12.9c-2.1 0-3.8 1.8-3.8 3.9 0 2.1 1.8 3.8 3.8 3.8h12.9v145.8c5.6 3.1 10.5 7.3 14.7 12.1 7.3 8.9 11.7 20.3 11.7 32.6-.1 28.5-23.2 51.4-51.4 51.4z" fill-rule="evenodd" clip-rule="evenodd" fill="#707070"/><path id="prefix__形状_1_00000134948746520138197680000008760973766172937091_" class="prefix__st2" d="M296 100.9h36.8c2.1 0 3.9 1.7 3.9 3.9v4.6c0 2.1-1.7 3.9-3.9 3.9H296c-2.1 0-3.9-1.7-3.9-3.9v-4.6c0-2.1 1.8-3.9 3.9-3.9z"/><path id="prefix__形状_1_00000041281907571917778400000004906923414509739935_" class="prefix__st2" d="M308.3 125.5V88.7c0-2.1 1.7-3.9 3.9-3.9h4.6c2.1 0 3.9 1.7 3.9 3.9v36.8c0 2.1-1.7 3.9-3.9 3.9h-4.6c-2.2 0-3.9-1.7-3.9-3.9z"/></svg>