<svg xmlns="http://www.w3.org/2000/svg" viewBox="0 0 500 500"><path d="M259.6 203.1c-10.6-1.4-20.3 6-21.7 16.6-1.3 9.6 4.8 18.7 14.1 21.2 3.2.6 21.6 4.1 43.3 4.1 15.2 0 32-1.7 46.4-7.3 46.1-18 76.3.3 77.3 1 9.2 5.3 21 2.2 26.3-7 4.9-8.5 2.7-19.3-5.1-25.1-1.9-1.3-47.1-30.3-112.5-4.8-20.7 8-56.2 3.6-68.1 1.3z" fill="#8cc5ff"/><path d="M440.2 286.2c-1.9-1.3-47.1-30.4-112.5-4.8-20.7 8-56.2 3.6-68.2 1.3-10.5-1.5-20.3 5.8-21.8 16.3-1.4 9.7 4.8 18.9 14.3 21.4 3.2.7 21.6 4.1 43.3 4.1 15.2 0 32-1.7 46.4-7.3 46.1-18 76.3.3 77.3 1 8.9 5.9 20.8 3.4 26.7-5.4 5.8-8.8 3.4-20.8-5.5-26.6z" fill="#409eff"/><path d="M412.7 356.3c-9.7 5.3-13.2 17.5-7.8 27.2 1.2 2.1 1.1 4.7-.1 6.7-.9 1.6-2.2 2.4-3.8 2.4H95.9c-1.6 0-2.8-.8-3.8-2.4-1.2-2-1.3-4.5-.1-6.6l152.6-273.8c1.9-3.4 5.8-3.4 7.7 0l14.7 26.7c5.3 9.7 17.5 13.2 27.2 7.9 9.7-5.3 13.2-17.5 7.9-27.2l-14.7-26.6c-8-14.6-22.6-23.3-39-23.3s-30.9 8.7-38.9 23.3L57 364.2c-8 14.5-7.8 32.2.6 46.5 8.2 13.9 22.5 22.1 38.3 22.1H401c15.8 0 30.1-8.3 38.3-22.1 8.4-14.3 8.6-32 .6-46.5-5.3-9.7-17.5-13.2-27.2-7.9z" fill="#f15a24"/></svg>