<svg xmlns="http://www.w3.org/2000/svg" viewBox="0 0 500 500"><path d="M401.6 324c-9.4 4.1-15.6 10.7-19.2 17.8-2.8 5.4-10.9 4.8-12.6-1.1-4.8-15.7-4.2-32.8-1.2-53.7.8-5.3-4.6-9.4-9.6-7.3-31.6 14-39.3 45-42.1 68.8-.9 7.9-12.3 8.1-13.6.4-.2-1.7-.5-3.3-.7-4.8-.7-5.7-7.7-8-11.7-4-9.3 9.2-15 23.7-16.4 36.3-4.6 41.4 25.5 75.4 65.7 79.8 40.1 4.4 75.2-22.3 79.8-63.8 2.5-22.3-10.4-32.6-8.4-61.5.1-5.3-5.2-8.9-10-6.9z" fill="#ff7b15"/><path d="M365.1 401.8c-2.9 1.3-4.8 3.4-6.1 5.5-1.1 1.9-3.9 1.7-4.6-.5-1.5-5.1-1.3-10.6-.4-17.3.2-1.9-1.7-3.4-3.4-2.6-9.9 4.6-12.7 14.2-13.7 21.9-.4 2.8-4.5 2.8-4.8 0v-.1c-.2-2-2.8-2.8-4.2-1.4-2.9 3.1-4.8 7.8-5.3 11.9-1.5 13.9 8.6 25.3 22.1 26.8s25.3-7.6 26.8-21.5c.8-7.4-3.4-10.9-2.8-20.4-.1-1.7-2-3-3.6-2.3z" fill="#fb9b3b"/><path d="M199.2 49.9L74.1 444c.4.1.7.3 1.1.4 11.4 3.6 23.5-2.7 27.1-14.1L219.8 56.4l-20.6-6.5z" fill="#f15a24"/><path d="M178.6 43.4L61 417.3c-3.5 11 2.3 22.7 13 26.7L199.2 49.9l-20.6-6.5z" fill="#f7931e"/><path fill="#1088e2" d="M219.4 56.6l-78.3 248.8 57.5-29.2 64.5-204.7z"/><path fill="#0391ff" d="M263.1 71.5l-64.5 204.7L258 246l50.2-159.1z"/><path fill="#0396ff" d="M308.2 86.9L258 246l60.1-30.5 35.7-113.1z"/><path fill="#3fa9f5" d="M353.8 102.4l-35.7 113.1 71.5-36.3 18.4-58.4z"/><path d="M428.8 127.9l-20.8-7.1-18.4 58.4 41.3-21c13.1-6.6 11.7-25.6-2.1-30.3z" fill="#abdcff"/></svg>