<svg version="1.1" id="prefix__图层_1" xmlns="http://www.w3.org/2000/svg" x="0" y="0" viewBox="0 0 500 500" xml:space="preserve"><style>.prefix__st0{fill:#e3e3e3}.prefix__st2{fill:#79bbff}</style><path class="prefix__st0" d="M71 182.6h.4c4.3-46.8 43.7-83.4 91.6-83.4 50.8 0 92 41.2 92 92 0 49.1-38.5 89.3-87 91.9v.1H71c-27.8 0-50.3-22.5-50.3-50.3s22.5-50.3 50.3-50.3z"/><path class="prefix__st0" d="M429 182.6h-.4c-4.3-46.8-43.7-83.4-91.6-83.4-50.8 0-92 41.2-92 92 0 49.1 38.5 89.3 87 91.9v.1h97c27.8 0 50.3-22.5 50.3-50.3s-22.5-50.3-50.3-50.3z"/><path d="M358.1 137.3c-14.8-50.6-61.6-87.6-117-87.6-66.5 0-120.6 53.3-121.8 119.6-31 3.6-55 30-55 61.9 0 34.4 27.9 62.3 62.3 62.3h222.2c43.3 0 78.4-35.1 78.4-78.4 0-40.1-30.2-73.2-69.1-77.8z" fill="#f6f6f6"/><path class="prefix__st2" d="M142 339.6c0 40.8-33.2 67.5-73.9 64.6-14.5-1-24.9 9.3-24.9 18.9 0 9.6 10.4 18.7 24.9 17.6 60.7-4.4 110.4-40.2 110.4-101.1v-45.4l-36.5-.6v46zM435.1 403.5c-40.6 2.9-73.9-23.8-73.9-64.6v-44l-36.5-.6v44.6c0 60.9 45.9 98 110.4 101.1 14.5.7 25.7-8.7 25.7-18.3 0-9.5-11.1-19.2-25.7-18.2zM251.7 450.3c-8.4 0-15.3-6.8-15.3-15.3V294.3H267V435c0 8.4-6.8 15.3-15.3 15.3z"/></svg>