<svg version="1.1" id="prefix__图层_1" xmlns="http://www.w3.org/2000/svg" x="0" y="0" viewBox="0 0 500 500" xml:space="preserve"><style>.prefix__st0{fill:#79bbff}.prefix__st2{fill:#d9ecff}.prefix__st3{fill:#b3d8ff}</style><path class="prefix__st0" d="M144.3 468.6H302l-36.3-205.1z"/><path fill="#409eff" d="M312.6 63.7l-83.7 56.5 1.8 137.8 35 5.5L302 468.6h184.8z"/><path class="prefix__st2" d="M262.1 70.8c7.6-10.2 5.4-24.7-4.8-32.3-10.2-7.6-24.7-5.4-32.3 4.8-.1.2-.2.3-.4.5-7.3 10.4-4.8 24.8 5.7 32.1 10.3 7.2 24.4 4.9 31.8-5.1z"/><path class="prefix__st3" d="M175.5 320.7c7.6-10.2 5.4-24.7-4.8-32.3-10.2-7.6-24.7-5.4-32.3 4.8-.1.2-.2.3-.4.5-7.3 10.4-4.8 24.8 5.7 32.1 10.3 7.2 24.4 4.9 31.8-5.1zM203.4 124.7c10.8-14.1 8.2-34.2-5.8-45.1-14.1-10.8-34.2-8.2-45.1 5.8-.4.5-.8 1.1-1.2 1.7-9.9 14.7-6 34.7 8.7 44.6 14.1 9.5 33.1 6.5 43.4-7z"/><circle class="prefix__st2" cx="146.4" cy="208.6" r="43.9"/><path class="prefix__st0" d="M113.5 342.4c-26-18.7-62.2-12.9-80.9 13.1-18.7 26-12.9 62.2 13.1 80.9s62.2 12.9 80.9-13.1 12.9-62.2-13.1-80.9z"/></svg>