<svg version="1.1" id="prefix__图层_1" xmlns="http://www.w3.org/2000/svg" x="0" y="0" viewBox="0 0 500 500" xml:space="preserve"><style>.prefix__st0{fill:#4fc0f2}.prefix__st1{fill:#e3e3e3}</style><path class="prefix__st0" d="M57.6 363.6l37.2 78.3 38.7-78.3L94.8 322zM159.5 363.6l37.2 78.3 38.7-78.3-38.7-41.6zM261.4 363.6l37.2 78.3 38.6-78.3-38.6-41.6zM363.3 363.6l37.1 78.3 38.7-78.3-38.7-41.6z"/><path class="prefix__st1" d="M71 191h.4c4.3-46.8 43.7-83.4 91.6-83.4 50.8 0 92 41.2 92 92 0 49.1-38.5 89.3-87 91.9v.1H71c-27.8 0-50.3-22.5-50.3-50.3S43.2 191 71 191z"/><path class="prefix__st1" d="M429 191h-.4c-4.3-46.8-43.7-83.4-91.6-83.4-50.8 0-92 41.2-92 92 0 49.1 38.5 89.3 87 91.9v.1h97c27.8 0 50.3-22.5 50.3-50.3S456.8 191 429 191z"/><path d="M358.1 145.7c-14.8-50.6-61.6-87.6-117-87.6-66.5 0-120.6 53.3-121.8 119.6-31 3.6-55 29.9-55 61.9 0 34.4 27.9 62.3 62.3 62.3h222.2c43.3 0 78.4-35.1 78.4-78.4 0-40.1-30.2-73.2-69.1-77.8z" fill="#f6f6f6"/></svg>