<svg xmlns="http://www.w3.org/2000/svg" viewBox="0 0 500 500"><path d="M439.9 58.5c-11.7 0-21.1 9.5-21.1 21.1v319.6H81.2V79.6c0-11.7-9.5-21.1-21.1-21.2C48.5 58.5 39 68 39 79.6v340.7c0 11.7 9.4 21.1 21 21.2H439.9c11.7 0 21.1-9.5 21.1-21.1V79.6c0-11.6-9.4-21.1-21.1-21.1z" fill="#62bee2"/><path d="M133.4 240.1h79.9l-39.9 69.1c-5.5 10.3-1.5 23.1 8.8 28.6 9.8 5.2 21.9 1.9 27.8-7.4l39.9-69.1 39.9 69.1c5.8 10.1 18.7 13.5 28.8 7.7 10.1-5.8 13.6-18.7 7.8-28.9l-40-69.1h79.9c11.7 0 21.1-9.5 21.1-21.1 0-11.7-9.5-21.1-21.1-21.1h-79.8l39.9-69.1c5.7-10.2 2-23.1-8.2-28.8-10-5.6-22.6-2.2-28.5 7.6l-39.9 69.1-39.9-69.1c-6.2-9.9-19.3-12.8-29.2-6.6-9.4 5.9-12.6 18-7.4 27.8l39.9 69.1h-79.9c-11.7 0-21.1 9.4-21.1 21.1.1 11.6 9.5 21.1 21.2 21.1z" fill="#3fa9f5"/></svg>