<svg version="1.1" id="prefix__图层_1" xmlns="http://www.w3.org/2000/svg" x="0" y="0" viewBox="0 0 500 500" xml:space="preserve"><style>.prefix__st1{fill:#66b1ff}</style><circle cx="246.2" cy="305.3" r="76.1" fill="#409eff"/><path class="prefix__st1" d="M246.2 197.9c26.4 0 44.3 12.9 49.7 17 .4-4.6.7-10.4.7-17 .4-63.8-25.9-139.6-50.3-139.6-18.4 0-50.1 62.5-50.1 139.6 0 5.7.4 11.2.7 16.7 14.2-10.8 31.5-16.7 49.3-16.7z"/><path d="M155.9 363.2c-8.9-15.6-12.5-33.7-10.1-51.5-5.1 2.4-10.2 5.1-15.1 7.9C75.3 351 22.8 411.7 35 432.9c9.2 15.9 79.2 12.2 145.9-26.4 5-2.9 9.5-6 14.1-9-16.4-6.9-30.2-18.9-39.1-34.3z" fill="#79bbff"/><path class="prefix__st1" d="M369.2 315.4c-4.9-2.7-9.8-5.3-14.8-7.7 2.3 17.7-1.3 35.6-10.2 51-9 15.5-22.9 27.7-39.6 34.5 4.7 3.1 9.3 6.2 14.4 9.2 66.8 38.5 136.8 42.3 146 26.2 12.2-21.1-40.4-81.7-95.8-113.2z"/></svg>