<svg version="1.1" id="prefix__图层_1" xmlns="http://www.w3.org/2000/svg" x="0" y="0" viewBox="0 0 500 500" xml:space="preserve"><style>.prefix__st0{fill:#e3e3e3}.prefix__st2{fill-rule:evenodd;clip-rule:evenodd;fill:#f7ad44}</style><path class="prefix__st0" d="M239.3 295.1h.2c2.6-27.6 25.8-49.3 54.1-49.3 30 0 54.3 24.3 54.3 54.3 0 29-22.7 52.7-51.4 54.2v.1h-57.3c-16.4 0-29.7-13.3-29.7-29.7.1-16.3 13.4-29.6 29.8-29.6z"/><path class="prefix__st0" d="M450.7 295.1h-.2c-2.6-27.6-25.8-49.3-54.1-49.3-30 0-54.3 24.3-54.3 54.3 0 29 22.7 52.7 51.4 54.2v.1h57.3c16.4 0 29.7-13.3 29.7-29.7-.1-16.3-13.4-29.6-29.8-29.6z"/><path d="M408.8 268.4c-8.8-29.9-36.3-51.7-69.1-51.7-39.3 0-71.2 31.5-71.9 70.6-18.3 2.1-32.5 17.7-32.5 36.5 0 20.3 16.5 36.8 36.8 36.8h131.2c25.6 0 46.3-20.7 46.3-46.3 0-23.7-17.8-43.2-40.8-45.9z" fill="#f6f6f6"/><path class="prefix__st2" d="M341.6 350.5h40.3l-60.5 81.9v-54.7h-34.7l74.7-101zM257.3 372.8h21.5l-32.3 43.7v-29.2H228l39.8-53.9zM419.1 376.7h21.6l-32.4 43.8v-29.3h-18.4l39.8-53.9z"/><path d="M157 41.9L50.2 378.4l.9.3c9.7 3.1 20.1-2.3 23.1-12.1L174.7 47.4 157 41.9z" fill="#f15a24"/><path d="M139.5 36.4L39.1 355.6c-3 9.4 2 19.4 11.1 22.8L157 41.9l-17.5-5.5z" fill="#f7931e"/><path fill="#1088e2" d="M174.3 47.7l-66.8 212.4 49-24.9 55.1-174.8z"/><path fill="#0391ff" d="M211.6 60.4l-55.1 174.8 50.8-25.8 42.8-135.9z"/><path fill="#0396ff" d="M250.1 73.5l-42.8 135.9 51.3-26.1L289 86.7z"/><path fill="#3fa9f5" d="M289 86.7l-30.4 96.6 61.1-31 15.7-49.8z"/><path d="M353.1 108.5l-17.7-6-15.7 49.8 35.3-17.9c11.1-5.6 9.9-21.9-1.9-25.9z" fill="#abdcff"/></svg>