<svg xmlns="http://www.w3.org/2000/svg" viewBox="0 0 500 500"><style>.prefix__st3{fill:#fbb03b}</style><path fill="#f58502" d="M267.5 380.5l182.9-47-322.1-68.8 70.8 59.8-179.5 47.9 261.8 100.2 199-37.4z"/><path d="M316.2 38.8c22.5 6.4 43.9 16.1 63.5 28.8 13.5 9.7 27.2 18.7 39.4 28.9 9.2 7.3 13.9 18.9 12.6 30.5-1.7 19.7-3 39.4-3.9 59.1-.1 3.4 1.6 9.1 3.8 9.8 12.6 3.3 20.3 16.2 17.3 28.9-.6 3.4-2 6.5-4.2 9.2l-19-3.1c-1.6 6.4-3.6 12.6-6 18.7l-37.2 82c-2.4 4.9-6.4 8.8-11.2 11.3-17-4.1-33.2-11-47.8-20.6-7.8-11.9 4.3-20.5 5-31.6l-144-65.2c-7.4 8.8-16.7 24.9-20.4 24.7-17.3-4.5-33.8-11.9-48.6-22-1.4-6.1-.7-12.4 1.8-18.1 4.5-12.2 9.6-23.5 14.8-35.1 9.7-21.5 19.5-42.9 30.1-64.2l-13.8-11.3c.6-2.6 1.7-5.1 3.3-7.3 9.8-9.8 19.9-16.3 34.5-8.1 1.8.8 6.8-1.2 9-3.4 11.6-10.6 22.7-21.9 33.1-33.7 14.9-17.7 39.2-24.3 61-16.5 8.8 2.2 17.7 5 26.5 7.4l.4.9z" fill="#666"/><path d="M209.3 100.7C267 143.1 333 173 403 188.4c2-18.9 3.1-36.1 6-52.6 2.9-12.7-3.7-25.7-15.7-30.8-30.1-15.2-60.4-30.2-90.9-44.4-10.2-4.1-20.8-7.1-31.7-8.8-4.9-1.1-10-.2-14.2 2.5-16.4 14.1-31 29.8-47.2 46.4z" fill="#e6e6e6"/><path class="prefix__st3" d="M190.2 176.3c5.2 2.7 10.6 4.8 16.2 6.3 4.5.9 9.2-.1 12.9-2.9 1.7-1.9.8-8.9-1.5-11.6-9.5-11.1-19.6-21.6-30.3-31.6-5.3-4.9-12.6-7.7-18 .4-8.8 11.5-9.1 20-.4 26.4 6.9 4.9 14 8.5 22 13h-.9zM361 253.6c8.1 3 16.3 5.5 24.6 7.6 12.2 2.5 14-7.6 17.2-15.6 3.3-8 .8-13.6-6.1-14.5-17.3-2.4-34.7-3.4-52.1-3.2-7.9.2-9.4 9.8-2.8 14.8 6.2 4 12.6 7.6 19.2 10.8v.1z"/></svg>