<svg xmlns="http://www.w3.org/2000/svg" viewBox="0 0 500 500"><style>.prefix__st0{fill:gold}</style><path class="prefix__st0" d="M137.7 310.5l57.7-77.4c5.2-7 5.5-16.6.8-23.9L139 94.3c-6.2-9.6-19.1-12.3-28.6-5.9-9.5 6.3-12.2 19.2-5.9 28.8l49.2 102.7-56.3 75.4c-4.5 6-5.4 14-2.4 20.8l26.5 60.9 45-.1-28.8-66.4zM244.4 310.5l57.7-77.4c5.2-7 5.5-16.6.8-23.9l-57.2-115c-6.2-9.5-18.9-12.2-28.4-6l-.1.1c-9.5 6.4-12.2 19.2-5.9 28.8l49.2 102.7-56.2 75.4c-4.5 6-5.4 14-2.4 20.8l26.4 60.7 45-.1-28.9-66.1zM356.7 310.5l57.7-77.4c5.2-7 5.5-16.6.8-23.9L358 94.2c-6.2-9.5-18.9-12.2-28.4-6l-.1.1c-9.5 6.4-12.2 19.2-5.9 28.8l49.2 102.7-56.2 75.4c-4.5 6-5.4 14-2.4 20.8l26.3 60.5 45-.1-28.8-65.9z"/><path class="prefix__st0" d="M419 415.1H81c-10.6 0-19.2-8.6-19.2-19.2s8.6-19.2 19.2-19.2h338c10.6 0 19.2 8.6 19.2 19.2 0 10.5-8.6 19.2-19.2 19.2z"/></svg>