<svg xmlns="http://www.w3.org/2000/svg" viewBox="0 0 500 500"><style>.prefix__st5{fill:#3fa9f5}.prefix__st6{fill:#abdcff}</style><path d="M184.7 30.4l-134 422c.4.1.8.3 1.2.4 12.2 3.8 25.1-2.9 29-15.1L206.8 37.4l-22.1-7z" fill="#f15a24"/><path d="M162.7 23.5L36.8 423.8c-3.7 11.8 2.5 24.3 14 28.6l134-422-22.1-6.9z" fill="#f7931e"/><path fill="#1088e2" d="M206.4 37.7L122.6 304l61.5-31.2 69.1-219.2z"/><path fill="#0391ff" d="M253.2 53.6l-69.1 219.2 63.6-32.3L301.5 70z"/><path fill="#0396ff" d="M301.5 70l-53.8 170.5 64.3-32.7 38.2-121.2z"/><path class="prefix__st5" d="M350.2 86.6L312 207.8l76.6-38.9 19.7-62.5z"/><path class="prefix__st6" d="M430.6 114l-22.2-7.6-19.7 62.5 44.2-22.5c13.9-7 12.5-27.4-2.3-32.4z"/><path class="prefix__st5" d="M345 267.5c-31.3-3.8-49.8-.5-57.7 3.3-15.7 6-24 15.3-24 28.7 0 14.8 17.1 26.9 38.2 26.9 2.2 0 4.3-.1 6.4-.4-11.1-2.6-15.1-13.6-15.1-17.1 0-8.2 4.9-16.5 19.2-18.9 0 0 11.5-2.9 32.5 1.5 29.7 8.6 38.4 18.9 46.4 34.6 10 24.9 1.5 58-14.5 76.8-30.5 35.9-106.1 47.5-106.1 47.5 76.7-14.5 111-48.5 117.8-92.6 4.4-58.4-67-72.2-78.1-36.1 9.9-6.7 20.7-5.3 31.6-1.8 24.9 13.2 21.4 34.1 19.1 45.6-5.1 25.9-24.9 51-54.1 66.3-30.6 13.3-71 19.4-84.5 21.8h82.4c6.8-.3 36.3-1.8 52.1-6.3 43.1-12.4 85.7-41.9 85.7-89.7.2-47.9-47.8-84.1-97.3-90.1z"/><path class="prefix__st6" d="M262.9 434.1c-9 5.5-39.8 16-39.8 16s28.5-2 51.7-9.7c20.8-6.9 30.5-14 40.3-25.1 8.8-10 17.3-40.8-14-55.5-18.2-8.5-43.6-8.7-54 1.7-12.4 12.3-2.8 23.1-2.8 23.1s3.7-9.9 15.9-11.5c3.3-.5 15.9.1 22.5 4.7 5 3.5 12.9 9.7 8.4 25.5-3.5 11.9-12.4 21.2-28.2 30.8z"/></svg>