<svg xmlns="http://www.w3.org/2000/svg" viewBox="0 0 500 500"><style>.prefix__st0{fill:#ffb55a}</style><path class="prefix__st0" d="M86.9 284.5l156.8-169.3L413.1 272 256.3 441.3z"/><path class="prefix__st0" d="M134.7 162.9h230.7v230.7H134.7z"/><circle cx="250" cy="278.2" r="115.6" fill="#ffcf00"/><path d="M355.8 306.9V92.7c0-18.8-15.2-34-34-34h-11.4c-18.8 0-34 15.2-34 34v214.2c-16 12.1-26.3 31.2-26.3 52.8 0 36.4 29.6 66 66 66s66-29.6 66-66c.1-21.5-10.3-40.6-26.3-52.8z" fill-rule="evenodd" clip-rule="evenodd" fill="#707070"/><path d="M316 411c-28.3 0-51.2-22.9-51.2-51.2 0-12.4 4.4-23.7 11.7-32.6 4-4.9 9-9 14.7-12.1V92.7c0-10.7 8.6-19.2 19.2-19.2h11.4c10.7 0 19.2 8.6 19.2 19.2v11.5h-13.3c-2.1 0-3.9 1.8-3.9 3.8 0 2.1 1.8 3.9 3.9 3.9H341v20.9h-13.3c-2.1 0-3.9 1.8-3.9 3.8 0 2.1 1.8 3.8 3.9 3.8H341v20.9h-12.9c-2.1 0-3.8 1.8-3.8 3.9 0 2.1 1.8 3.8 3.8 3.8H341v145.8c5.6 3.1 10.5 7.3 14.7 12.1 7.3 8.9 11.7 20.3 11.7 32.6 0 28.5-23.1 51.5-51.4 51.5z" fill-rule="evenodd" clip-rule="evenodd" fill="#fff"/><path d="M325 339.8V203c0-4.9-4-8.9-8.9-8.9s-8.9 4-8.9 8.9v136.8c-8.1 3.4-13.9 11.5-13.9 21 0 12.6 10.2 22.8 22.8 22.8s22.8-10.2 22.8-22.8c0-9.5-5.8-17.6-13.9-21z" fill="#ff6464"/></svg>