<svg xmlns="http://www.w3.org/2000/svg" viewBox="0 0 500 500"><path d="M380.1 318.7c-18.9 0-31.2-2.8-45.6-11.5-2.7-1.7-6-.5-7.5 2.8-6 12.9-11.6 26.8-16.5 41.1-4.1 12.2-18.7 9.6-20-3.5-3.4-33.1-8.8-66-16.1-98.2-15.7-69.9-53.2-138.1-121.7-189.8-5.1-3.8-10.9 3.3-7.9 9.6 29 61.6 41.2 125.8 48.2 192.9 2.6 24.6 4 50.2 4.1 75.4.1 20.6-22.3 27.1-29.6 8.6-.1-.3-.2-.6-.4-.9-14.7-36.7-37.2-71.3-69.5-100-4.7-4.2-10.8 1.9-8.6 8.5 14.3 43.1 23.5 81.1 27.7 114.2 4.3 34.6 2 66.1-7 94.5h182v.1h119.7c-19.2-45.4-8-111.3-2.4-138 1.1-5.1-2.5-9.8-6.7-8.7-7.3 1.8-14.7 2.8-22.2 2.9z" fill="#66b28a"/><path d="M442.9 153.5c-9.9 4.3-16.5 11.4-20.3 18.7-3 5.7-11.4 5.1-13.4-1.1-5.2-16.5-4.5-34.6-1.3-56.7.8-5.6-4.9-10-10.1-7.7-33.3 14.8-41.5 47.4-44.4 72.6-1 8.3-13 8.6-14.4.4-.3-1.8-.5-3.5-.7-5.2-.7-6-8-8.5-12.4-4.3-9.8 9.7-15.9 25-17.3 38.4-4.8 43.7 26.9 79.5 69.3 84.1s79.3-23.6 84.1-67.4c2.6-23.5-11-34.4-8.9-64.9.3-5.2-5.2-9.1-10.2-6.9z" fill="#ff7b15"/><path d="M404.3 235.6c-3.1 1.4-5.1 3.6-6.4 5.9-1.1 2.1-4.1 1.8-4.8-.5-1.6-5.3-1.3-11.2-.3-18.3.3-2-1.8-3.6-3.6-2.7-10.5 4.8-13.4 14.9-14.5 23.1-.4 3-4.8 3-5.2 0v-.2c-.3-2.2-2.9-3-4.4-1.5-3.1 3.3-5.1 8.2-5.6 12.6-1.6 14.7 9 26.7 23.3 28.3 14.2 1.6 26.6-7.9 28.3-22.6.9-7.8-3.6-11.5-3-21.6 0-1.9-2-3.3-3.8-2.5z" fill="#fb9b3b"/></svg>