<svg xmlns="http://www.w3.org/2000/svg" viewBox="0 0 500 500"><path d="M170.2 275.4c-8.3 5.2-10.8 16.2-5.6 24.5 5 7.9 15.1 10.6 23.3 6.2l44-25.4v50.8c0 9.8 7.9 17.8 17.7 17.8 9.8 0 17.8-7.9 17.8-17.7v-50.8l44 25.4c8.7 4.6 19.4 1.3 24-7.4 4.3-8.2 1.6-18.4-6.2-23.3l-44-25.4 44-25.4c8.5-4.9 11.4-15.8 6.5-24.2-4.9-8.5-15.8-11.4-24.3-6.5l-44 25.4v-50.8c0-9.8-7.9-17.7-17.7-17.7-9.8 0-17.7 7.9-17.7 17.7v50.8L188 194c-8.7-4.6-19.4-1.3-24 7.4-4.3 8.2-1.6 18.4 6.2 23.3l44 25.4-44 25.3z" fill="#4fc0f2"/><path d="M418.6 142.1L258.9 49.6c-5.5-3.2-12.3-3.2-17.8 0L81.4 142.1c-5.5 3.2-8.9 9.1-8.9 15.4v185c0 6.4 3.4 12.2 8.9 15.4l159.7 92.5c5.5 3.2 12.3 3.2 17.8 0l159.7-92.5c5.5-3.2 8.9-9.1 8.9-15.4v-185c0-6.4-3.4-12.2-8.9-15.4zm-26.7 190.1L250 414.4l-141.9-82.2V167.8L250 85.6l141.9 82.2v164.4z" fill="#7fc6f2"/></svg>