<svg xmlns="http://www.w3.org/2000/svg" viewBox="0 0 500 500"><style>.prefix__st2{fill:#34ca9d}.prefix__st4{fill:#282d33}.prefix__st6{fill:#999}</style><path d="M132 73.6c-34.8-15.4-75.4.4-90.8 35.2-15.3 34.8.4 75.4 35.2 90.8 34.8 15.3 75.4-.4 90.8-35.2 15.3-34.8-.5-75.5-35.2-90.8z" fill="#f7931e"/><path d="M248.3 394.3c-22.4.1-44.6-4.6-65.1-13.6C113.1 349.8 74.2 274 90 199c15.8-75 82.1-128.6 158.7-128.5 54.7.1 105.6 27.8 135.4 73.6 29.8 45.8 34.6 103.5 12.7 153.6-25.9 58.7-84.2 96.7-148.5 96.6zm0 0" fill="#8cc5ff"/><path class="prefix__st2" d="M409.3 250.9l-21.4 16.6-38.6 32.5-1.7-31.5-25 4.5-2.8-29-17.2 9.2-5-3.8-14.8-14.9-4.7 20.2 11.4 11.4-49.8 48.2-13.5 2.1v-26l9.7-39.3-17.7-8.6-1.8-16.9 22.4-23.5 16.6 3.1 6.6 10.2 24.6 4.1-18.5-24.1-18.8-12.3 1.6-6.6 24.6-2.7-2.7-16.4 27.8-9.3 18 16.8 39.9 4.5s17.8-1.4 37.6-2.7c12.2 26.3 16.8 55.5 13.2 84.2zM204.2 76.4l-14 10.3-25 19.3c-.7.5-1 1.4-.9 2.2l2.9 19.9c.2.8.7 1.5 1.4 1.8.8.3 1.6.2 2.3-.2l14.2-9.9 7.7 27.5-44.9 14.6-19.1-6.3c-.9-.3-1.8 0-2.5.6l-8.8 9.4c-.5.6-.8 1.4-.6 2.2l5.5 20.8-15.6-17.6-2.6-9.2c18.9-42.1 55.6-73.4 100-85.4zM118.8 245.8L117 216l25.9-23.6 22.9 51.4-61.5 52v-18l14-31.1c.2-.2.4-.5.5-.9z"/><path d="M219.3 135.8L218 95.6c28.1-1.6 44.7 2.6 50.9 4.6l-20.2 27.6-29.4 8z" fill="#f2f2f2"/><path class="prefix__st4" d="M118 430.7c-13 0-24.2-2.7-33-8.4-4.4-2.8-4.9-9.1-1.1-12.7 2.8-2.6 6.9-3 10.2-.9 34.2 21.8 132-16.7 234.4-114.5 49.2-46.8 88.6-97.7 111.2-143.4 21.1-42.5 24.6-75.5 10.3-90.7-16.2-17.1-57.7-11.4-108.8 14.7-4 2-8.8.5-10.9-3.4-2.2-4-.6-9.1 3.5-11.1C393.2 29.8 439.7 25.6 461.9 49c19.8 20.8 17.2 59.6-7.5 109.3-23.4 47.1-64.1 99.7-114.7 147.8-81.6 78-167.6 124.6-221.7 124.6zm0 0"/><path d="M140.3 466c-17.1 0-32.6-10.3-39.2-26.1-6.6-15.8-2.9-34.1 9.2-46.2 12.1-12.1 30.4-15.7 46.2-9.2 15.8 6.6 26.2 22 26.1 39.2 0 23.3-18.9 42.3-42.3 42.3z" fill="#e6e6e6"/><path class="prefix__st6" d="M148.3 423.6c-5.4 0-10.3-3.2-12.4-8.2-2.1-5-.9-10.7 2.9-14.6 3.8-3.8 9.6-5 14.6-2.9s8.2 6.9 8.2 12.4c.1 7.3-5.9 13.3-13.3 13.3zM165.7 437.4c-2.7 0-5.1-1.6-6.2-4.1-1-2.5-.5-5.4 1.4-7.3 1.9-1.9 4.8-2.5 7.3-1.4 2.5 1 4.1 3.5 4.1 6.2.1 3.6-2.9 6.6-6.6 6.6z"/><path class="prefix__st4" d="M55.5 405.3l-.3-.3c-4-3-4.3-9-.6-12.5 2.9-2.7 7.3-2.9 10.4-.6l.1.1c3.2 2.4 4.2 6.8 2.4 10.3-2.3 4.6-8 6-12 3zM32.5 377.5c-.1-.1-.1-.3-.2-.4-2-4.7.9-10 5.9-11.1 3.9-.8 7.7 1.2 9.3 4.9 0 .1 0 .1.1.2 1.5 3.5.3 7.6-2.9 9.8-4.3 2.9-10.2 1.3-12.2-3.4zM25.7 341.3c-.1-.1-.1-.3-.2-.4-2-4.7.9-10 5.9-11.1 3.9-.8 7.7 1.2 9.3 4.9 0 .1 0 .1.1.2 1.5 3.5.3 7.6-2.9 9.8-4.3 2.9-10.2 1.3-12.2-3.4zM32.5 307.6c-.1-.1-.1-.3-.2-.4-2-4.7.9-10 5.9-11.1 3.9-.8 7.7 1.2 9.3 4.9 0 .1 0 .1.1.2 1.5 3.5.3 7.6-2.9 9.8-4.3 2.9-10.2 1.3-12.2-3.4zM47.1 269.7c-.1-.1-.1-.3-.2-.4-2-4.7.9-10 5.9-11.1 3.9-.8 7.7 1.2 9.3 4.9 0 .1 0 .1.1.2 1.5 3.5.3 7.6-2.9 9.8-4.3 3-10.2 1.3-12.2-3.4z"/></svg>