<svg xmlns="http://www.w3.org/2000/svg" viewBox="0 0 500 500"><path d="M250 43.7c115.6 0 209.4 92.3 209.4 206.3 0 79.6-45.8 128.5-112.8 150.7v23.2c.1 16.9-12.8 31-29.6 32.4-16.8 1.4-31.8-10.5-34.4-27.1l-.4-3.3-.1 2.5c-2 16.5-16.4 28.5-33 27.6-16.5-.9-29.5-14.6-29.6-31.1l.1-.9c0 17.8-14.4 32.2-32.2 32.2-17.8 0-32.2-14.4-32.2-32.2v-22.6c-68-22-114.5-71.1-114.5-151.3C40.6 136 134.4 43.7 250 43.7zm-.6 258.4c-10.2 0-31.6 16.3-31.6 40.9 0 23.1 27.8 23.9 31.2 23.9h.3s32.9.8 32.9-23.9c0-24.6-22.6-40.9-32.8-40.9zm-96-145.8c-35.6 0-64.4 29-64.4 64.8s28.8 64.8 64.4 64.8 64.4-29 64.4-64.8c.1-17.1-6.7-33.6-18.8-45.7-12.1-12.2-28.5-19.1-45.6-19.1zm193.2 0c-35.6 0-64.4 29-64.4 64.8s28.8 64.8 64.4 64.8c35.6 0 64.4-29 64.4-64.8.1-17.1-6.7-33.6-18.8-45.7a63.92 63.92 0 00-45.6-19.1zm0 0" fill="#ccc"/></svg>