<svg version="1.1" id="prefix__图层_1" xmlns="http://www.w3.org/2000/svg" x="0" y="0" viewBox="0 0 500 500" xml:space="preserve"><style>.prefix__st0{fill:#4fc0f2}</style><path class="prefix__st0" d="M244.5 182.1a16.4 16.4 0 00-22.2 5.9l-14.1 24.4-14-24.4c-4.5-7.7-14.4-10.4-22.2-5.9-7.7 4.5-10.4 14.4-6 22.2l14.1 24.4H152c-9 0-16.2 7.3-16.2 16.2 0 9 7.3 16.2 16.2 16.2h28.2l-14.1 24.4c-4.4 7.8-1.8 17.7 6 22.2a16.4 16.4 0 0022.2-5.9l14.1-24.4 14.1 24.4c4.5 7.7 14.4 10.4 22.2 5.9 7.7-4.5 10.4-14.4 6-22.2l-14.1-24.4h28.2c9 0 16.2-7.3 16.2-16.2s-7.3-16.2-16.2-16.2h-28.2l14.1-24.4c4.2-7.8 1.5-17.7-6.2-22.2zM305.1 233.6c8.7 2.2 17.5-3.1 19.7-11.8l5.1-20.4c2.3-8.7-2.9-17.5-11.6-19.8-8.7-2.3-17.5 2.9-19.8 11.6 0 .1-.1.2-.1.3l-5.1 20.4c-2.2 8.7 3.1 17.5 11.8 19.7zM338.9 275.2c8.7 2.2 17.5-3.1 19.7-11.8l5.1-20.4c2.4-8.6-2.7-17.6-11.4-19.9-8.6-2.4-17.6 2.7-19.9 11.4-.1.2-.1.5-.2.7l-5.1 20.4c-2.1 8.6 3.1 17.4 11.8 19.6zM294.1 319.5c8.7 2.2 17.5-3.1 19.7-11.8l5.1-20.4c2.3-8.7-2.9-17.5-11.6-19.8-8.7-2.3-17.5 2.9-19.8 11.6 0 .1-.1.2-.1.3l-5.1 20.4c-2.2 8.8 3.1 17.6 11.8 19.7z"/><path d="M418.6 142.1L258.9 49.6c-5.5-3.2-12.3-3.2-17.8 0L81.4 142.1c-5.5 3.2-8.9 9.1-8.9 15.4v185c0 6.4 3.4 12.2 8.9 15.4l159.7 92.5c5.5 3.2 12.3 3.2 17.8 0l159.7-92.5c5.5-3.2 8.9-9.1 8.9-15.4v-185c0-6.4-3.4-12.2-8.9-15.4zm-26.7 190.1L250 414.4l-141.9-82.2V167.8L250 85.6l141.9 82.2v164.4z" fill="#7fc6f2"/></svg>