<svg version="1.1" id="prefix__图层_1" xmlns="http://www.w3.org/2000/svg" x="0" y="0" viewBox="0 0 500 500" xml:space="preserve"><style>.prefix__st2{fill:#4fc0f2}</style><path d="M412.5 173.2h-.5c-4.7-50.5-47.1-90.1-98.9-90.1-54.9 0-99.3 44.5-99.3 99.3 0 53 41.6 96.4 94 99.2v.1h104.7c29.9 0 54.3-24.3 54.3-54.3s-24.4-54.2-54.3-54.2z" fill="#e3e3e3"/><path d="M351.1 201c-16-54.6-66.4-94.5-126.3-94.5-71.8 0-130.2 57.6-131.6 129-33.4 3.9-59.3 32.3-59.3 66.9 0 37.1 30.2 67.3 67.3 67.3H341c46.7 0 84.6-37.8 84.6-84.6 0-43.4-32.6-79.2-74.5-84.1z" fill="#f6f6f6"/><g><path class="prefix__st2" d="M160.8 276.2c-3 0-5.9-3-5.9-5.9 3-32.6 25.2-59.3 56.3-66.7 31.1-7.4 63.7 5.9 80 34.1v-11.9c0-1.5 1.5-3 3-4.4 1.5-1.5 3-1.5 5.9 0 1.5 1.5 3 3 3 4.4v26.7c0 3-3 5.9-5.9 5.9h-26.7c-3 0-5.9-3-5.9-5.9 0-3 3-5.9 5.9-5.9h14.8c-11.9-23.7-40-38.5-68.2-32.6-28.2 5.9-48.9 29.6-50.4 57.8.1 3-2.9 4.4-5.9 4.4zm69.7 74.1c-14.8 0-28.2-4.4-41.5-11.9-8.9-5.9-16.3-14.8-22.2-23.7v11.9c0 3-3 4.4-5.9 4.4-3 0-4.4-1.5-4.4-4.4v-26.7c0-3 3-5.9 5.9-5.9H189c3 0 5.9 3 5.9 5.9 0 3-3 5.9-5.9 5.9h-14.8c13.3 25.2 41.5 38.5 69.7 34.1 28.2-4.4 48.9-29.6 50.4-57.8 0-3 3-4.4 5.9-4.4 3 0 4.4 3 4.4 5.9-3 37.1-35.6 66.7-74.1 66.7zm0 0"/><path class="prefix__st2" d="M230.5 353.3c-14.8 0-29.6-4.4-43-13.3-7.4-4.4-13.3-10.4-17.8-16.3v3c0 4.4-3 7.4-8.9 7.4s-7.4-3-7.4-7.4V300c0-4.4 3-8.9 8.9-8.9H189c4.4 0 8.9 3 8.9 8.9 0 4.4-3 8.9-8.9 8.9h-10.4c13.3 20.7 38.5 32.6 63.7 28.2 26.7-5.9 45.9-28.2 48.9-54.8 0-4.4 4.4-7.4 7.4-7.4 4.4 0 8.9 4.4 8.9 8.9-4.4 38.4-37 69.5-77 69.5zm-66.7-48.9l5.9 8.9c5.9 8.9 13.3 16.3 22.2 22.2 11.9 7.4 25.2 11.9 38.5 11.9 37 0 68.2-29.6 71.1-65.2 0-1.5-1.5-3-1.5-3-1.5 0-3 1.5-3 1.5-3 29.6-23.7 54.8-53.3 60.8-29.6 5.9-59.3-8.9-72.6-35.6l-1.5-4.4H189c1.5 0 3-1.5 3-3s-1.5-3-3-3h-28.2c-1.5 3-1.5 4.4-1.5 4.4v26.7c0 1.5 1.5 1.5 3 1.5s3-1.5 3-3v-20.7h-1.5zm-3-25.2c-4.4 0-8.9-4.4-8.9-8.9 3-34.1 26.7-62.2 59.3-69.6 29.6-7.4 59.3 4.4 78.5 28.2v-3c0-3 1.5-5.9 4.4-7.4 3-1.5 5.9-1.5 8.9 0 3 3 4.4 4.4 4.4 7.4v26.7c0 4.4-3 8.9-8.9 8.9H272c-4.4 0-8.9-3-8.9-8.9s3-8.9 8.9-8.9h8.9C269 223 242.4 212.6 218.7 217c-26.7 5.9-47.4 28.2-48.9 54.8-.1 4.4-4.5 7.4-9 7.4zm69.7-74.1c-5.9 0-10.4 0-16.3 1.5-29.6 7.4-51.9 32.6-54.8 63.7 0 1.5 1.5 3 1.5 3v3-3c1.5 0 1.5-1.5 3-1.5 3-29.6 23.7-54.8 53.3-60.8 29.6-5.9 59.3 8.9 72.6 35.6l1.5 4.4H272c-1.5 0-3 1.5-3 3s1.5 3 3 3h26.7c1.5 0 3-1.5 3-3v-28.2c0-1.5 0-1.5-1.5-1.5h-3l-1.5 1.5v23.7l-5.9-8.9c-11.9-22.2-35.6-35.5-59.3-35.5zm0 0"/></g></svg>