<svg version="1.1" id="prefix__图层_1" xmlns="http://www.w3.org/2000/svg" x="0" y="0" viewBox="0 0 500 500" xml:space="preserve"><style>.prefix__st3{fill:#fff}</style><path d="M412.5 173.2h-.5c-4.7-50.5-47.1-90.1-98.9-90.1-54.9 0-99.3 44.5-99.3 99.3 0 53 41.6 96.4 94 99.2v.1h104.7c29.9 0 54.3-24.3 54.3-54.3s-24.4-54.2-54.3-54.2z" fill="#e3e3e3"/><path d="M351.1 201c-16-54.6-66.4-94.5-126.3-94.5-71.8 0-130.2 57.6-131.6 129-33.4 3.9-59.3 32.3-59.3 66.9 0 37.1 30.2 67.3 67.3 67.3H341c46.7 0 84.6-37.8 84.6-84.6 0-43.4-32.6-79.2-74.5-84.1z" fill="#f6f6f6"/><path d="M353.6 358.7c0-9.7-2.5-18.5-7.2-26.2 1.4-2.2 1.9-5 1.9-7.7 0-9.1-7.2-16.3-16.3-16.3-3.3 0-6.3 1.1-8.8 2.8-6.9-3.3-14.3-5-22.3-5-29.2 0-52.7 23.7-52.7 52.7-.3 29 23.4 52.4 52.4 52.4 3.9 0 7.4-.3 11-1.1 4.4 4.7 10.5 7.4 17.4 7.4 13.5 0 24.3-10.8 24.3-24.3 0-5.2-1.7-9.9-4.4-13.8 3-6.2 4.7-13.4 4.7-20.9z" fill="#4fc0f2"/><path class="prefix__st3" d="M331.1 394c-4 0-7.1-3.4-7.1-7.1 0-1 1-2 2-2s2 1 2 2c0 1.7 1.3 3 3 3s3-1.3 3-3-1.3-3-3-3c-1 0-2-1-2-2s1-2 2-2c1.7 0 3-1.3 3-3s-1.3-3-3-3-3 1.3-3 3c0 1-1 2-2 2s-2-1-2-2c0-4 3.4-7.1 7.1-7.1 3.7 0 7.1 3.4 7.1 7.1 0 2-.7 3.7-2 5 1.3 1.3 2 3 2 5 0 4.1-3.1 7.1-7.1 7.1zM300.9 342.2c-11 0-19.8 8.9-19.8 19.8s8.9 19.8 19.8 19.8 19.8-8.9 19.8-19.8-8.9-19.8-19.8-19.8zm0 30.6c-5.9 0-10.7-4.8-10.7-10.7s4.8-10.7 10.7-10.7 10.7 4.8 10.7 10.7-4.8 10.7-10.7 10.7z"/></svg>