<svg xmlns="http://www.w3.org/2000/svg" viewBox="0 0 500 500"><style>.prefix__st2{fill:#4fc0f2}</style><path d="M391.8 159.9h-.4c-4.1-44.2-41.2-78.8-86.5-78.8-48 0-86.9 38.9-86.9 86.9 0 46.4 36.4 84.3 82.2 86.8v.1h91.6c26.2 0 47.5-21.3 47.5-47.5s-21.3-47.5-47.5-47.5z" fill="#e3e3e3"/><path d="M338.1 184.2c-14-47.8-58.1-82.7-110.5-82.7-62.8 0-113.9 50.4-115.1 112.9-29.2 3.4-51.9 28.3-51.9 58.5 0 32.5 26.4 58.9 58.9 58.9h209.8c40.9 0 74-33.1 74-74 0-38-28.5-69.3-65.2-73.6z" fill="#f6f6f6"/><path class="prefix__st2" d="M286.3 331.8c0-5.9-4.8-10.7-10.7-10.7h-18.3l9.2-15.9c2.9-5.1 1.2-11.7-3.9-14.6-5.1-2.9-11.7-1.2-14.6 3.9l-9.2 15.8-9.2-15.8c-3-5.1-9.5-6.9-14.6-3.9-5.1 3-6.9 9.5-3.9 14.6l9.2 15.9H202c-5.9 0-10.7 4.8-10.7 10.7 0 5.9 4.8 10.7 10.7 10.7h18.3l-9.2 15.9c-3 5.1-1.2 11.7 3.9 14.6 5.1 3 11.7 1.2 14.6-3.9l9.2-15.9 9.2 15.9c3 5.1 9.5 6.9 14.6 3.9s6.9-9.5 3.9-14.6l-9.2-15.9h18.3c5.9 0 10.7-4.8 10.7-10.7zM166.3 356.5c0-4.1-3.3-7.5-7.5-7.5H146l6.4-11.1c2.1-3.6.8-8.2-2.7-10.2-3.6-2.1-8.2-.8-10.2 2.7l-6.4 11.1-6.4-11.1c-2.1-3.6-6.6-4.8-10.2-2.7-3.6 2.1-4.8 6.6-2.7 10.2l6.4 11.1h-12.8c-4.1 0-7.5 3.3-7.5 7.5s3.3 7.5 7.5 7.5h12.8l-6.4 11.1c-2.1 3.6-.8 8.2 2.7 10.2 3.6 2.1 8.2.8 10.2-2.7l6.4-11.1 6.4 11.1c2.1 3.6 6.6 4.8 10.2 2.7 3.6-2.1 4.8-6.6 2.7-10.2L146 364h12.8c4.2 0 7.5-3.3 7.5-7.5zM383.7 356.5c0-4.1-3.3-7.5-7.5-7.5h-12.8l6.4-11.1c2.1-3.6.8-8.2-2.7-10.2-3.6-2.1-8.2-.8-10.2 2.7l-6.4 11.1-6.4-11.1c-2.1-3.6-6.6-4.8-10.2-2.7-3.6 2.1-4.8 6.6-2.7 10.2l6.4 11.1h-12.8c-4.1 0-7.5 3.3-7.5 7.5s3.3 7.5 7.5 7.5h12.8l-6.4 11.1c-2.1 3.6-.8 8.2 2.7 10.2 3.6 2.1 8.2.8 10.2-2.7l6.4-11.1 6.4 11.1c2.1 3.6 6.6 4.8 10.2 2.7 3.6-2.1 4.8-6.6 2.7-10.2l-6.4-11.1h12.8c4.1 0 7.5-3.3 7.5-7.5z"/></svg>