<svg version="1.1" id="prefix__图层_1" xmlns="http://www.w3.org/2000/svg" x="0" y="0" viewBox="0 0 500 500" xml:space="preserve"><style>.prefix__st0{fill:#e3e3e3}.prefix__st2{fill:#4fc0f2}</style><path class="prefix__st0" d="M71 200.5h.4c4.3-46.8 43.7-83.4 91.6-83.4 50.8 0 92 41.2 92 92 0 49.1-38.5 89.3-87 91.9v.1H71c-27.8 0-50.3-22.5-50.3-50.3s22.5-50.3 50.3-50.3z"/><path class="prefix__st0" d="M429 200.5h-.4c-4.3-46.8-43.7-83.4-91.6-83.4-50.8 0-92 41.2-92 92 0 49.1 38.5 89.3 87 91.9v.1h97c27.8 0 50.3-22.5 50.3-50.3s-22.5-50.3-50.3-50.3z"/><path d="M358.1 155.2c-14.8-50.6-61.6-87.6-117-87.6-66.5 0-120.6 53.3-121.8 119.6-31 3.6-55 29.9-55 61.9 0 34.4 27.9 62.3 62.3 62.3h222.2c43.3 0 78.4-35.1 78.4-78.4 0-40.2-30.2-73.2-69.1-77.8z" fill="#f6f6f6"/><path class="prefix__st2" d="M174.8 360.9l11.4-27.9c2.8-6.9 10.7-10.2 17.6-7.4 6.9 2.8 10.2 10.7 7.4 17.6l-11.4 27.9c-2.8 6.9-10.7 10.2-17.6 7.4-6.9-2.8-10.2-10.7-7.4-17.6zM112 375.1l19.2-47.1c2.8-6.9 10.7-10.2 17.6-7.4 6.9 2.8 10.2 10.7 7.4 17.6L137 385.3c-2.8 6.9-10.7 10.2-17.6 7.4-6.9-2.8-10.2-10.7-7.4-17.6zM336.6 377.1l14.1-34.6c2.8-6.9 10.7-10.2 17.6-7.4 6.9 2.8 10.2 10.7 7.4 17.6l-14.1 34.6c-2.8 6.9-10.7 10.2-17.6 7.4-6.9-2.9-10.2-10.8-7.4-17.6zM282.3 380l13.8-33.8c2.8-6.9 10.7-10.2 17.6-7.4 6.9 2.8 10.2 10.7 7.4 17.6l-13.8 33.8c-2.8 6.9-10.7 10.2-17.6 7.4-6.9-2.8-10.2-10.7-7.4-17.6zM54 382.6L76.3 328c2.8-6.9 10.7-10.2 17.6-7.4 6.9 2.8 10.2 10.7 7.4 17.6L79 392.8c-2.8 6.9-10.7 10.2-17.6 7.4-6.9-2.8-10.2-10.7-7.4-17.6zM382.3 396.4l23.7-58c2.8-6.9 10.7-10.2 17.6-7.4 6.9 2.8 10.2 10.7 7.4 17.6l-23.7 58c-2.8 6.9-10.7 10.2-17.6 7.4-6.9-2.8-10.2-10.7-7.4-17.6zM210.4 413.8l30.8-75.4c2.8-6.9 10.7-10.2 17.6-7.4 6.9 2.8 10.2 10.7 7.4 17.6L235.3 424c-2.8 6.9-10.7 10.2-17.6 7.4-6.8-2.8-10.2-10.7-7.3-17.6z"/></svg>