<svg version="1.1" id="prefix__图层_1" xmlns="http://www.w3.org/2000/svg" x="0" y="0" viewBox="0 0 500 500" xml:space="preserve"><style>.prefix__st0{fill:#53a8ff}.prefix__st1{fill:#79bbff}.prefix__st2{fill:#409eff}</style><path class="prefix__st0" d="M465.3 232.7l-.1-.1c-5.5-9.7-17.9-13.1-27.6-7.6-2.6 1.4-58.7 31.6-147 13.3-11.5-2.4-22.4 6.4-22.5 18.2-.1 10.8 7.5 20.2 18.2 22.3 102 19.8 168.3-16.7 171.4-18.5 9.7-5.4 13.1-17.8 7.6-27.6z"/><path class="prefix__st1" d="M466.5 161.2c-.3-.7-.5-1.1-.8-1.6-5.5-9.7-17.9-13.1-27.6-7.6-2.6 1.4-58.1 31.3-145.6 13.6-12.1-2.4-23.4 6.7-23.6 19.1-.1 10.2 7.1 19 17.2 21 102.4 20.1 168.9-16.6 172-18.3 9.2-5.2 12.9-16.6 8.4-26.2z"/><path class="prefix__st2" d="M464.8 305.6s0-.1-.1-.1c-5.5-9.7-17.9-13.1-27.6-7.6-2.6 1.4-57.8 31.1-144.8 13.7-12.9-2.6-25 7.2-25.1 20.3-.1 9.2 6.3 17.2 15.4 19.1 103.8 21.2 171.5-16 174.6-17.8 9.8-5.4 13.2-17.8 7.6-27.6z"/><path d="M246.6 79.3c-49.4 0-89.5 40.2-89.5 89.5v162.3c0 49.4 40.2 89.5 89.5 89.5 49.4 0 89.5-40.2 89.5-89.5V168.8c0-49.3-40.2-89.5-89.5-89.5zm48.8 251.9c0 26.9-22 48.9-48.9 48.9s-48.9-22-48.9-48.9V168.8c0-26.9 22-48.9 48.9-48.9s48.9 22 48.9 48.9v162.4z" fill="#f7931e"/><path class="prefix__st0" d="M224.4 227.9c-26.9-9-59.2-11.7-88.8-11.7-45.3 0-84.1 6.5-86.7 7-11 1.9-18.4 12.4-16.6 23.4 2 11 12.4 18.3 23.4 16.6 1-.2 97.2-16.3 155.8 3.3.3.1.5.2.8.3 12.5 4.1 25.5-5.1 25.6-18.3v-1.6c.1-8.5-5.4-16.1-13.5-18.8.1-.2.1-.2 0-.2z"/><path class="prefix__st1" d="M224.9 154.9c-26.9-9-59.2-11.7-88.8-11.7-45.3 0-84.1 6.5-86.7 7-11 1.9-18.4 12.4-16.6 23.4 2 11 12.4 18.3 23.4 16.6 1-.2 97.2-16.3 155.8 3.3.1 0 .3.1.4.1 12.9 4.3 26.2-5.3 26.4-18.9v-.4c.1-8.8-5.5-16.6-13.9-19.4.1.1 0 0 0 0z"/><path class="prefix__st2" d="M224 300.8c-26.9-9-59.2-11.7-88.8-11.7-45.3 0-84.1 6.5-86.7 7-11 1.9-18.4 12.4-16.6 23.4 2 11 12.4 18.3 23.4 16.6 1-.2 97.2-16.3 155.8 3.3.4.1.7.2 1.1.4 12.2 4 24.7-5 24.9-17.8v-2.8c.1-8.3-5.2-15.6-13.1-18.2.1-.2 0-.2 0-.2z"/></svg>