<svg xmlns="http://www.w3.org/2000/svg" viewBox="0 0 500 500"><style>.prefix__st0{fill:#e3e3e3}.prefix__st2{fill:#4fc0f2}</style><path class="prefix__st0" d="M71.1 199.9h.4c4.3-46.8 43.7-83.4 91.6-83.4 50.8 0 92 41.2 92 92 0 49.1-38.5 89.3-87 91.9v.1h-97c-27.8 0-50.3-22.5-50.3-50.3s22.5-50.3 50.3-50.3z"/><path class="prefix__st0" d="M429.1 199.9h-.4c-4.3-46.8-43.7-83.4-91.6-83.4-50.8 0-92 41.2-92 92 0 49.1 38.5 89.3 87 91.9v.1h97c27.8 0 50.3-22.5 50.3-50.3s-22.5-50.3-50.3-50.3z"/><path d="M358.1 154.6C343.3 104 296.6 67 241.2 67c-66.5 0-120.6 53.3-121.8 119.6-31 3.6-55 30-55 61.9 0 34.4 27.9 62.3 62.3 62.3h222.2c43.3 0 78.4-35.1 78.4-78.4 0-40.1-30.2-73.2-69.2-77.8z" fill="#f6f6f6"/><path class="prefix__st2" d="M178.8 350.6l7.4-18.2c2.8-6.9 10.7-10.2 17.6-7.4 6.9 2.8 10.2 10.7 7.4 17.6l-7.4 18.2c-2.8 6.9-10.7 10.2-17.6 7.4-6.9-2.9-10.2-10.7-7.4-17.6zM123.9 345.6l7.4-18.2c2.8-6.9 10.7-10.2 17.6-7.4 6.9 2.8 10.2 10.7 7.4 17.6l-7.4 18.2c-2.8 6.9-10.7 10.2-17.6 7.4-6.9-2.8-10.2-10.7-7.4-17.6zM343.7 360.2l7.4-18.2c2.8-6.9 10.7-10.2 17.6-7.4 6.9 2.8 10.2 10.7 7.4 17.6l-7.4 18.2c-2.8 6.9-10.7 10.2-17.6 7.4-6.9-2.8-10.2-10.7-7.4-17.6zM288.7 360.2l7.4-18.2c2.8-6.9 10.7-10.2 17.6-7.4 6.9 2.8 10.2 10.7 7.4 17.6l-7.4 18.2c-2.8 6.9-10.7 10.2-17.6 7.4-6.9-2.8-10.2-10.7-7.4-17.6zM69 345.6l7.4-18.2c2.8-6.9 10.7-10.2 17.6-7.4 6.9 2.8 10.2 10.7 7.4 17.6L94 355.8c-2.8 6.9-10.7 10.2-17.6 7.4-6.9-2.8-10.3-10.7-7.4-17.6zM398.6 356l7.4-18.2c2.8-6.9 10.7-10.2 17.6-7.4 6.9 2.8 10.2 10.7 7.4 17.6l-7.4 18.2c-2.8 6.9-10.7 10.2-17.6 7.4-6.9-2.8-10.2-10.7-7.4-17.6zM233.8 356l7.4-18.2c2.8-6.9 10.7-10.2 17.6-7.4 6.9 2.8 10.2 10.7 7.4 17.6l-7.4 18.2c-2.8 6.9-10.7 10.2-17.6 7.4-6.9-2.8-10.2-10.7-7.4-17.6z"/></svg>