<svg version="1.1" id="prefix__图层_1" xmlns="http://www.w3.org/2000/svg" x="0" y="0" viewBox="0 0 500 500" xml:space="preserve"><style>.prefix__st0{fill:#409eff}.prefix__st1{fill:#66b1ff}</style><path class="prefix__st0" d="M438.8 244h-69.1V56.3c0-6.6-6.5-11.9-14.4-11.9H140.9c-8 0-14.4 5.3-14.4 11.9V244H61.2c-5.1 0-9.2 3.4-9.3 7.6 0 2.2 1.1 4.3 3.2 5.8l190.2 137.7c2.7 2 6.8 2 9.5 0L445 257.4c3.8-2.8 4.2-7.6.8-10.8-1.8-1.7-4.3-2.6-7-2.6z"/><path class="prefix__st1" d="M302.6 246.8c15.4-4 25-15.6 29.1-21.5l14.4 15.4c-7 9.5-16 17.4-26.4 23.1-14.4 7.9-27.7 7.5-33.2 7.4-5.9-.2-31.3-.7-50.2-20.2-19-19.7-19.9-44.2-19.9-53 0-19.7 7.3-36.6 20.3-50.8 2.9-3.2 10.9-10.7 22-15.8 18.5-8.5 35.6-5.5 40.4-4.6 4.4.9 17.4 3.8 30.2 14.1 7.4 6 14 14.1 16.9 18.6l-14.7 15.8c-3.3-5.6-14.8-19.2-31.7-23.5-23.7-6.1-58.8 7.8-59.1 47.1-.3 38.4 33.6 55.3 61.9 47.9zM181.2 157.3c-7.2.2-14.2-2.6-19.5-7.6-5.1-4.8-8-11.5-7.9-18.5 0-7.3 2.6-13.5 7.9-18.6 5.1-5 12-7.8 19.1-7.7 7.9 0 14.4 2.4 19.5 7.4 5.1 4.9 7.8 11.7 7.6 18.7.2 7.1-2.5 13.9-7.6 18.9-5.1 4.9-12 7.6-19.1 7.4z"/><path class="prefix__st0" d="M180.8 117.1c-3.8 0-7 1.3-9.6 4s-3.8 6-3.8 10 1.3 7.3 3.8 10 5.7 4 9.6 4c3.8 0 7-1.3 9.6-4 2.6-2.7 4-6.3 3.9-10.1.1-3.7-1.2-7.3-3.8-10-2.6-2.6-6.1-4-9.7-3.9z"/><path d="M453.6 298.2h-38.2c-3.7 0-7.4 1.2-10.2 3.3L250 418.8 94.7 301.5c-2.8-2.1-6.4-3.3-10.2-3.3H46.4c-1.8 0-3.2 1.3-3.2 2.8 0 .8.4 1.5 1.1 2l199.3 150.6c3.6 2.7 9.1 2.7 12.7 0L455.7 303c1.3-1 1.4-2.8.2-3.9-.6-.5-1.4-.9-2.3-.9z" fill="#8cc5ff"/></svg>