<svg version="1.1" id="prefix__图层_1" xmlns="http://www.w3.org/2000/svg" x="0" y="0" viewBox="0 0 500 500" xml:space="preserve"><style>.prefix__st0{fill:#e3e3e3}.prefix__st2{fill:#4fc0f2}</style><path class="prefix__st0" d="M61 190.3h.4c4.3-46.8 43.7-83.4 91.6-83.4 50.8 0 92 41.2 92 92 0 49.1-38.5 89.3-87 91.9v.1H61c-27.8 0-50.3-22.5-50.3-50.3s22.5-50.3 50.3-50.3z"/><path class="prefix__st0" d="M418.9 190.3h-.4c-4.3-46.8-43.7-83.4-91.6-83.4-50.8 0-92 41.2-92 92 0 49.1 38.5 89.3 87 91.9v.1h97c27.8 0 50.3-22.5 50.3-50.3s-22.5-50.3-50.3-50.3z"/><path d="M348 145c-14.8-50.6-61.6-87.6-117-87.6-66.5 0-120.6 53.3-121.8 119.6-31 3.6-55 30-55 61.9 0 34.4 27.9 62.3 62.3 62.3h222.2c43.3 0 78.4-35.1 78.4-78.4 0-40.2-30.2-73.2-69.1-77.8z" fill="#f6f6f6"/><path class="prefix__st2" d="M159.5 324.1h-17.9l8.9-15.4c2.8-4.8 1.1-10.9-3.6-13.6s-10.9-1.1-13.6 3.6l-8.9 15.4-8.9-15.4c-2.9-4.7-9.1-6.1-13.7-3.1-4.4 2.8-5.9 8.5-3.5 13.1l8.9 15.4H89.4c-5.5 0-10 4.4-10 9.9s4.4 10 9.9 10h17.9l-8.9 15.4c-2.6 4.9-.7 10.9 4.2 13.5 4.6 2.4 10.3.9 13.1-3.5l8.9-15.4 8.9 15.4c2.7 4.8 8.8 6.4 13.6 3.6 4.8-2.7 6.4-8.8 3.7-13.6l-8.9-15.4h17.9c5.5 0 10-4.4 10-9.9-.2-5.6-4.7-10-10.2-10zM387.2 324.1h-17.9l8.9-15.4c2.6-4.9.7-10.9-4.2-13.5-4.6-2.4-10.3-.9-13.1 3.5l-8.9 15.4-8.9-15.4c-2.8-4.8-8.8-6.4-13.6-3.6s-6.4 8.8-3.6 13.6l8.9 15.4H317c-5.5 0-10 4.4-10 9.9s4.4 10 9.9 10h17.9l-8.9 15.4c-2.6 4.9-.7 10.9 4.2 13.5 4.6 2.4 10.3.9 13.1-3.5l8.9-15.4 8.9 15.4c2.7 4.8 8.8 6.4 13.6 3.6 4.8-2.7 6.4-8.8 3.7-13.6l-8.9-15.4h17.9c5.5 0 10-4.4 10-9.9-.2-5.6-4.6-10-10.1-10zM264.7 345c5.5 0 10-4.5 9.9-10 0-1.7-.5-3.4-1.3-5l-16.9-29.2h33.8c5.5 0 9.9-4.5 9.9-9.9s-4.5-9.9-9.9-9.9h-33.8l16.9-29.2c2.6-4.9.7-10.9-4.2-13.5-4.6-2.4-10.3-.9-13.1 3.5L239.1 271l-16.9-29.2c-2.7-4.8-8.8-6.4-13.6-3.6-4.8 2.7-6.4 8.8-3.6 13.6l16.9 29.2h-33.8c-5.5 0-9.9 4.5-9.9 9.9s4.5 9.9 9.9 9.9h33.8L205 330.1c-2.6 4.9-.7 10.9 4.2 13.5 4.6 2.4 10.3.9 13.1-3.5l16.9-29.2L256 340c1.8 3.1 5.1 5 8.7 5z"/></svg>