<svg xmlns="http://www.w3.org/2000/svg" viewBox="0 0 500 500"><path d="M374 145.2c-20.2 8.8-33.5 23.1-41.4 38.2-6.1 11.6-23.3 10.4-27.2-2.2-10.5-33.6-9.1-70.4-2.6-115.4 1.7-11.5-10-20.4-20.6-15.7-67.9 30.1-84.4 96.5-90.5 147.8-2 16.9-26.4 17.5-29.2.8-.6-3.7-1.1-7.2-1.5-10.5-1.5-12.3-16.4-17.3-25.2-8.7-20 19.7-32.3 50.8-35.3 78.1-9.9 89 54.8 161.8 141.1 171.3 86.2 9.5 161.4-48 171.2-137.1 5.2-47.9-22.4-70-18.1-132.1.8-11-10.5-18.9-20.7-14.5z" fill="#ff7b15"/><path d="M295.5 312.5c-6.2 2.8-10.4 7.2-13.1 11.9-2.3 4.2-8.4 3.6-9.8-1-3.2-10.9-2.7-22.8-.7-37.2.6-4.1-3.6-7.3-7.4-5.6-21.3 9.8-27.3 30.4-29.5 47.1-.8 6.1-9.7 6.1-10.5 0v-.4c-.6-4.4-6-6.2-9-3-6.4 6.6-10.3 16.8-11.3 25.7-3.3 29.9 18.4 54.3 47.4 57.5 29 3.2 54.2-16.1 57.5-46.1 1.7-15.9-7.4-23.4-6.1-43.9.2-3.8-3.9-6.7-7.5-5z" fill="#fb9b3b"/></svg>