<svg xmlns="http://www.w3.org/2000/svg" viewBox="0 0 500 500"><path d="M426.7 151.5h-.5c-5.1-55.1-51.4-98.2-107.8-98.2-59.8 0-108.2 48.5-108.2 108.2 0 57.8 45.3 105 102.4 108.1v.2h114.1c32.7 0 59.2-26.5 59.2-59.2s-26.5-59.1-59.2-59.1z" fill="#e3e3e3"/><path d="M359.8 181.8c-17.4-59.5-72.4-103-137.6-103-78.3 0-141.9 62.7-143.3 140.7-36.4 4.3-64.7 35.2-64.7 72.8 0 40.5 32.8 73.3 73.3 73.3h261.4c50.9 0 92.2-41.3 92.2-92.2 0-47.3-35.5-86.2-81.3-91.6z" fill="#f6f6f6"/><path d="M354.8 276.1c-10.3 0-20.1 6.6-24.8 16.8h-12l-25.5-63.1c-1.9-4.9-6.8-8-12-7.8-5.2.2-9.8 3.7-11.4 8.7L242 314.3l-14.9-163.8c-.5-5.7-4.9-10.4-10.6-11.3-5.7-.8-11.2 2.3-13.4 7.6l-58.9 144h-35.4c-6.9 0-12.5 5.6-12.5 12.5s5.6 12.5 12.5 12.5h43.8c5.1 0 9.6-3.1 11.5-7.8l42.8-104.5 15.8 173.8c.5 5.9 5.2 10.6 11.1 11.3 5.9.6 11.4-2.9 13.3-8.6l35.2-109 15.8 39.1c1.9 4.7 6.5 7.8 11.6 7.8h23c.9 1.3 9.1 11.9 22.2 11.8 13.3-.1 26.8-11.4 26.8-26.8-.1-15.2-13.1-26.8-26.9-26.8z" fill="#5da9f5"/></svg>