<svg version="1.1" id="prefix__图层_1" xmlns="http://www.w3.org/2000/svg" x="0" y="0" viewBox="0 0 500 500" xml:space="preserve"><style>.prefix__st0{fill:#e3e3e3}.prefix__st2{fill-rule:evenodd;clip-rule:evenodd;fill:#f7ad44}</style><path class="prefix__st0" d="M72.1 199.9h.4c4.3-46.8 43.7-83.4 91.6-83.4 50.8 0 92 41.2 92 92 0 49.1-38.5 89.3-87 91.9v.1h-97c-27.8 0-50.3-22.5-50.3-50.3s22.5-50.3 50.3-50.3z"/><path class="prefix__st0" d="M430.1 199.9h-.4c-4.3-46.8-43.7-83.4-91.6-83.4-50.8 0-92 41.2-92 92 0 49.1 38.5 89.3 87 91.9v.1h97c27.8 0 50.3-22.5 50.3-50.3s-22.5-50.3-50.3-50.3z"/><path d="M359.2 154.6C344.4 104 297.6 67 242.2 67c-66.5 0-120.6 53.3-121.8 119.6-31 3.6-55 30-55 61.9 0 34.4 27.9 62.3 62.3 62.3h222.2c43.3 0 78.4-35.1 78.4-78.4 0-40.1-30.2-73.2-69.1-77.8z" fill="#f6f6f6"/><path class="prefix__st2" d="M245.3 293.6h68.3L211.1 432.4v-92.7h-58.7l126.4-171.1zM102.5 331.4H139l-54.8 74.1V356H52.9l67.5-91.3zM376.6 338.1h36.5l-54.7 74.1v-49.5h-31.3l67.4-91.3z"/></svg>