<svg xmlns="http://www.w3.org/2000/svg" viewBox="0 0 500 500"><style>.prefix__st0{fill:#fbb03b}.prefix__st4{fill:#8cc5ff}</style><path class="prefix__st0" d="M134.2 118.1h-1.8c-6.6 0-12-5.4-12-12V76.6c0-6.6 5.4-12 12-12h1.8c6.6 0 12 5.4 12 12v29.5c0 6.6-5.4 12-12 12zM362 118.1c-7.6 0-13.8-6.2-13.8-13.8V76.6c0-6.6 5.4-12 12-12 7.6 0 13.8 6.2 13.8 13.8v27.7c0 6.6-5.4 12-12 12z"/><path fill="#79bbff" d="M89.3 132.5h321.3v38.3H89.3z"/><path d="M379.1 276.1c-52.1 0-94.3 42.3-94.2 94.4 0 52.1 42.2 94.4 94.2 94.4s94.2-42.3 94.2-94.4c.1-52-42.1-94.3-94.2-94.4zm0 40.1c7.2-.2 13.2 1.5 16.9 3l-64.4 77.1c-4.5-7.8-6.9-16.7-6.8-25.7.8-28.2 28-53.8 54.3-54.4zm0 108.7c-5.8.1-11.5-.9-16.9-3l64.4-77.1c6.2 11.2 6.9 20.6 6.8 25.7-.7 28.2-27.9 53.8-54.3 54.4z" fill="#f15a24"/><path d="M278.9 370.6c0-55.3 44.9-100.2 100.2-100.2 28 0 53.3 11.5 71.5 30V104.2H49.4v321h245.8c-10.3-15.7-16.3-34.4-16.3-54.6z" fill="#409eff"/><path class="prefix__st4" d="M84.5 132.5h336.6v48.3H84.5zM84.5 207.6h48.3v48.3H84.5zM151.6 207.6h48.3v48.3h-48.3zM84.5 276.1h48.3v48.3H84.5z"/></svg>