<svg version="1.1" id="prefix__图层_1" xmlns="http://www.w3.org/2000/svg" x="0" y="0" viewBox="0 0 500 500" xml:space="preserve"><style>.prefix__st0{fill:#3fa9f5}</style><path class="prefix__st0" d="M322.3 383.7L198 259.4c-11.8-11.8-11.8-30.9 0-42.7 11.8-11.8 30.9-11.8 42.7 0L365 341c11.8 11.8 11.8 30.9 0 42.7-11.8 11.8-30.9 11.8-42.7 0z"/><path class="prefix__st0" d="M228 128.5c-24.6-24.6-60.7-30.6-90.9-18.2l58.1 58.1-45.4 45.4-58.1-58.1c-12.5 30.3-6.4 66.4 18.2 90.9 32.6 32.6 85.5 32.6 118.2 0 32.5-32.6 32.5-85.5-.1-118.1z"/><path d="M247.8 470.7c-58.8 0-114.1-22.9-155.7-64.5-41.6-41.6-64.5-96.9-64.5-155.7 0-58.8 22.9-114.1 64.5-155.7 41.6-41.6 96.9-64.5 155.7-64.5S362 53.1 403.6 94.7c41.6 41.6 64.5 96.9 64.5 155.7 0 58.8-22.9 114.1-64.5 155.7-41.6 41.7-97 64.6-155.8 64.6zm-.6-408.6c-105.1 0-190.3 85.2-190.3 190.3 0 48.7 18.3 93 48.3 126.7l268.6-268.6c-33.6-30.1-78-48.4-126.6-48.4zm3.1 383.6c105.1 0 190.3-85.2 190.3-190.3 0-48.7-18.3-93-48.3-126.7L123.6 397.4c33.6 30 78 48.3 126.7 48.3z" fill="#f15a24"/></svg>