<svg xmlns="http://www.w3.org/2000/svg" viewBox="0 0 500 500"><path d="M465.7 321.3c-4-2.2-99.7-55-241.9-7.5-65.6 22-173.5 3.9-174.6 3.7-12.3-2-24 6.3-26.3 18.6-2.1 12.4 6.2 24.1 18.6 26.3 3 .5 46.4 7.8 97.2 7.8 33.1 0 69.3-3.1 99.5-13.2 121.9-40.7 201.8 2.2 205.1 4 10.9 6.2 24.7 2.4 30.9-8.5 0 0 0-.1.1-.1 6.2-11 2.4-24.9-8.6-31.1.1 0 .1 0 0 0z" fill="#409eff"/><path d="M465.7 397.3c-4-2.2-99.7-55-241.9-7.5-65.6 22-173.5 3.9-174.6 3.7-12.3-2-24 6.3-26.3 18.6-2.1 12.4 6.2 24.1 18.6 26.3 3 .5 46.4 7.8 97.2 7.8 33.1 0 69.3-3.1 99.5-13.2 121.9-40.7 201.8 2.2 205.1 4 10.9 6.2 24.7 2.4 30.9-8.5 0 0 0-.1.1-.1 6.2-11 2.4-24.9-8.6-31.1.1 0 .1 0 0 0z" fill="#79bbff"/><path d="M270 63.2l107.2 185.7c7.2 12.4-1.8 28-16.2 28H146.7c-14.4 0-23.3-15.6-16.2-28L237.7 63.2c7.2-12.4 25.2-12.4 32.3 0zm-16.1 163.1c-4.9 0-8.9 4-8.9 8.9s4 8.9 8.9 8.9 8.9-4 8.9-8.9-4-8.9-8.9-8.9zm10.6-89.6c0-5.9-4.8-10.6-10.6-10.6-5.9 0-10.6 4.8-10.6 10.6 0 .4 0 .9.1 1.3l4.4 71c0 3.4 2.8 6.2 6.2 6.2s6.2-2.8 6.2-6.2l4.4-71c-.1-.5-.1-.9-.1-1.3z" fill="#f15a24"/></svg>