<svg version="1.1" id="prefix__图层_1" xmlns="http://www.w3.org/2000/svg" x="0" y="0" viewBox="0 0 500 500" xml:space="preserve"><style>.prefix__st0{fill:#8c6239}.prefix__st1{fill:#c7b299}.prefix__st2{fill:#ccc}.prefix__st3{fill:#a67c52}</style><path class="prefix__st0" d="M79.2 140.1c10.5-.4 18.6-9.2 18.2-19.7-.4-9.9-8.3-17.8-18.2-18.2-10.5.4-18.6 9.2-18.2 19.7.4 9.9 8.3 17.8 18.2 18.2z"/><path class="prefix__st1" d="M33.7 268.6c-7 .1-12.7 5.9-12.6 12.9 0 7.2 5.8 12.9 12.6 12.9s12.6-5.9 12.6-12.9c.1-7.1-5.6-12.8-12.6-12.9z"/><path class="prefix__st0" d="M99.9 190c0-14.7-12.1-26.8-26.8-26.8s-26.8 12-26.8 26.8c0 14.7 12.1 26.8 26.8 26.8s26.8-12.1 26.8-26.8z"/><path class="prefix__st1" d="M87.3 361.9c-7 0-12.6 5.7-12.6 12.6 0 7.1 5.8 12.6 12.6 12.6s12.6-5.8 12.6-12.6c0-6.9-5.6-12.6-12.6-12.6zM196.7 204.2c9.9 0 17.8-8 17.9-17.9 0-9.9-8-17.8-17.9-17.9-9.8-.1-17.8 7.7-17.9 17.5v.4c.1 9.9 8 17.9 17.9 17.9z"/><path class="prefix__st0" d="M250.7 125.3c10 0 18.2-8.2 18.2-18.2 0-10.2-8.4-18.2-18.2-18.2-9.8 0-18.2 8-18.2 18.2s8.3 18.2 18.2 18.2z"/><circle class="prefix__st2" cx="425.6" cy="119" r="15.3"/><circle class="prefix__st3" cx="139.4" cy="281.5" r="39.4"/><path class="prefix__st2" d="M132.9 105.1c14.7 0 26.8-12.1 26.8-26.8s-12.1-26.8-26.8-26.8c-14.7 0-26.8 12.1-26.8 26.8s12 26.8 26.8 26.8z"/><path class="prefix__st0" d="M349.2 270.4c-6.8-.1-12.5 5.3-12.6 12.1v.5c0 7 5.7 12.6 12.6 12.6 7 0 12.6-5.7 12.6-12.6 0-6.9-5.7-12.5-12.6-12.6z"/><path d="M401.2 216.8c14.8 0 26.8-12 26.8-26.8-.7-14.8-13.3-26.3-28.1-25.5-13.8.7-24.9 11.7-25.5 25.5 0 14.7 12.1 26.8 26.8 26.8z" fill="#754c24"/><path class="prefix__st2" d="M405.5 345.7c-14.7 0-26.8 12.1-26.8 26.8 0 14.7 12.1 26.8 26.8 26.8 14.8-.9 26.1-13.6 25.2-28.4-.7-13.5-11.6-24.4-25.2-25.2z"/><path class="prefix__st3" d="M451.9 244.1c-14.9.1-27 12.1-27 27s12.2 27 27 27c14.9-.1 27-12.1 27-27 0-14.8-12.1-26.9-27-27z"/><path class="prefix__st0" d="M355.5 95.5c14.7 0 26.8-12.1 26.8-26.8s-12.1-26.8-26.8-26.8-26.8 12.1-26.8 26.8 12 26.8 26.8 26.8zM297.1 150.6c-21.8.1-39.4 17.7-39.4 39.4 0 21.8 17.6 39.4 39.4 39.4s39.4-17.6 39.4-39.4c.1-21.8-17.6-39.4-39.4-39.4z"/><circle class="prefix__st2" cx="180.1" cy="421.7" r="36.5"/><circle cx="243.5" cy="281.5" r="26.8" fill="#736357"/><circle class="prefix__st0" cx="289.3" cy="372.5" r="29.6"/></svg>