<svg version="1.1" id="prefix__图层_1" xmlns="http://www.w3.org/2000/svg" x="0" y="0" viewBox="0 0 500 500" xml:space="preserve"><style>.prefix__st0{fill:#409eff}.prefix__st1{fill:#66b1ff}</style><path class="prefix__st0" d="M438.8 278.4h-69.1V51.6c0-8-6.5-14.4-14.4-14.4H140.9c-8 0-14.4 6.5-14.4 14.4v226.9H61.2c-5.1 0-9.2 4.1-9.3 9.2 0 2.7 1.1 5.3 3.2 7l190.2 166.5c2.7 2.4 6.8 2.4 9.5 0L445 294.7c3.8-3.4 4.2-9.2.8-13-1.8-2.1-4.3-3.3-7-3.3z"/><path class="prefix__st1" d="M302.6 239.5c15.4-4 25-15.6 29.1-21.5l14.4 15.4c-7 9.5-16 17.4-26.4 23.1-14.4 7.9-27.7 7.5-33.2 7.4-5.9-.2-31.3-.7-50.2-20.2-19-19.7-19.9-44.2-19.9-53 0-19.7 7.3-36.6 20.3-50.8 2.9-3.2 10.9-10.7 22-15.8 18.5-8.5 35.6-5.5 40.4-4.6 4.4.9 17.4 3.8 30.2 14.1 7.4 6 14 14.1 16.9 18.6L331.5 168c-3.3-5.6-14.8-19.2-31.7-23.5-23.7-6.1-58.8 7.8-59.1 47.1-.3 38.5 33.6 55.4 61.9 47.9zM181.2 150.1c-7.2.2-14.2-2.6-19.5-7.6-5.1-4.8-8-11.5-7.9-18.5 0-7.3 2.6-13.5 7.9-18.6 5.1-5 12-7.8 19.1-7.7 7.9 0 14.4 2.4 19.5 7.4 5.1 4.9 7.8 11.7 7.6 18.7.2 7.1-2.5 13.9-7.6 18.9-5.1 4.9-12 7.6-19.1 7.4z"/><path class="prefix__st0" d="M180.8 109.8c-3.8 0-7 1.3-9.6 4-2.6 2.7-3.8 6-3.8 10s1.3 7.3 3.8 10 5.7 4 9.6 4c3.8 0 7-1.3 9.6-4 2.6-2.7 4-6.3 3.9-10.1.1-3.7-1.2-7.3-3.8-10-2.6-2.5-6.1-3.9-9.7-3.9z"/></svg>