<svg version="1.1" id="prefix__图层_1" xmlns="http://www.w3.org/2000/svg" x="0" y="0" viewBox="0 0 500 500" xml:space="preserve"><style>.prefix__st3{fill:#4fc0f2}</style><path d="M449.4 239.9c2.7.6 5.4-1.4 5.6-4.2 6.8-93.1-55.3-176-140.4-193.6-85.2-17.6-178 33.3-201.2 114.6-25.6 89.7 24.7 139.4 31.3 148.5-48.9-10.5-96.1-79.1-94.1-133.2-2.7-.6-5.4 1.4-5.6 4.2-6.7 88.5 46 166.1 124.7 188.8-.3 0 21.4 4.6 21.1 4.6l20.3 1.5s56.6 4.5 115.4-33.9h-1c27.6-20.4 49.6-48 60.2-81.1 27.1-83.9-23.6-140.3-30.1-149.3 52.1 10.9 95.9 79.1 93.8 133.1zm-158.8-32c-2.4 23.6-24.1 40-47.2 36.3-.9-.2-1.8-.3-2.7-.5-21.9-5.2-35.5-27.1-30.3-49 5.1-21.6 26.7-35.4 48.7-30.4 19.8 4.3 33.5 23.3 31.5 43.6z" fill="#e99311"/><path d="M411.3 276.2h-.2c-2.4-25.6-23.8-45.6-50-45.6-27.8 0-50.2 22.5-50.2 50.2 0 26.8 21 48.7 47.5 50.2v.1h53c15.1 0 27.5-12.3 27.5-27.5-.2-15-12.5-27.4-27.6-27.4z" fill="#e3e3e3"/><path d="M380.2 290.3c-8.1-27.6-33.6-47.8-63.9-47.8-36.3 0-65.9 29.1-66.6 65.3-16.9 2-30 16.4-30 33.8 0 18.8 15.3 34.1 34.1 34.1h121.3c23.6 0 42.8-19.1 42.8-42.8 0-22-16.5-40.1-37.7-42.6z" fill="#f6f6f6"/><path class="prefix__st3" d="M253.4 420.7l10.6-25.9c1.6-4 6.2-5.9 10.2-4.3 4 1.6 5.9 6.2 4.3 10.2l-10.6 25.9c-1.6 4-6.2 5.9-10.2 4.3-4-1.7-5.9-6.2-4.3-10.2zM323.2 435.2l16.5-40.4c1.6-4 6.2-5.9 10.2-4.3 4 1.6 5.9 6.2 4.3 10.2l-16.5 40.4c-1.6 4-6.2 5.9-10.2 4.3-4-1.6-5.9-6.2-4.3-10.2zM362.6 420.7l10.6-25.9c1.6-4 6.2-5.9 10.2-4.3 4 1.6 5.9 6.2 4.3 10.2L377 426.6c-1.6 4-6.2 5.9-10.2 4.3-3.9-1.7-5.8-6.2-4.2-10.2zM293.9 420.7l10.6-25.9c1.6-4 6.2-5.9 10.2-4.3 4 1.6 5.9 6.2 4.3 10.2l-10.6 25.9c-1.6 4-6.2 5.9-10.2 4.3-4-1.7-5.9-6.2-4.3-10.2zM285.7 440.9c1.6-4 6.2-5.9 10.2-4.3 4 1.6 5.9 6.2 4.3 10.2-1.6 4-6.2 5.9-10.2 4.3-4-1.6-5.9-6.2-4.3-10.2z"/></svg>