<svg xmlns="http://www.w3.org/2000/svg" viewBox="0 0 500 500"><path d="M209.7 433.6c-18.4 0-34.7-2.7-47.4-5.8-8.2-2-13.1-9.8-10.9-17.4 2.2-7.6 10.6-12.1 18.9-10.1 20.3 5 51.5 8.6 84.7-2.2 17.6-5.8 44.2-14.5 56-37.5 7.7-15.1 10.7-38.8-.9-55.3-12.3-17.5-32.7-21.6-56.3-26.3-26-5.2-55.4-11.1-74.9-37.2-28-37.5-13-83.6-8.9-91.1 13.2-24.2 35.1-42.8 63.4-53.7 28.1-10.9 60.5-13.4 93.7-7.4 8.4 1.5 13.8 9 12.1 16.7-1.7 7.7-9.8 12.7-18.2 11.1-54.1-9.9-102.4 7.9-123.2 45.6-1 2.6-13 36.6 6.6 62.8 12.5 16.8 32.7 20.8 56 25.5 26.5 5.3 56.5 11.3 75.7 38.7 18.1 25.7 14.5 60.1 2.9 82.8-17.2 33.8-52.5 45.3-73.6 52.2-19.6 6.3-38.6 8.6-55.7 8.6z" fill="#e9e9e9"/></svg>