<svg version="1.1" id="prefix__图层_1" xmlns="http://www.w3.org/2000/svg" x="0" y="0" viewBox="0 0 500 500" xml:space="preserve"><style>.prefix__st9{fill:#e3e3e3}.prefix__st11{fill-rule:evenodd;clip-rule:evenodd;fill:#f7ad44}</style><path d="M141.7 55.8L45.6 358.7c.3.1.5.2.8.3 8.7 2.7 18-2.1 20.8-10.8l90.4-287.4-15.9-5z" fill="#f15a24"/><path d="M125.9 50.8L35.5 338.2c-2.7 8.5 1.8 17.5 10 20.5l96.2-302.9-15.8-5z" fill="#f7931e"/><path fill="#1088e2" d="M157.3 61L97.1 252.2l44.2-22.4 49.6-157.4z"/><path fill="#0391ff" d="M190.9 72.4l-49.6 157.4 45.6-23.2 38.6-122.4z"/><path fill="#0396ff" d="M225.5 84.2l-38.6 122.4 46.2-23.5 27.4-86.9z"/><path fill="#3fa9f5" d="M260.5 96.2l-27.4 86.9 55-27.9 14.1-44.8z"/><path d="M318.2 115.8l-16-5.4-14.1 44.8 31.8-16.1c9.9-5.1 8.9-19.7-1.7-23.3z" fill="#abdcff"/><path d="M465.7 324.3c-4-2.2-99.7-55-241.9-7.5-65.6 22-173.5 3.9-174.6 3.7-12.3-2-24 6.3-26.3 18.6-2.1 12.4 6.2 24.1 18.6 26.3 3 .5 46.4 7.8 97.2 7.8 33.1 0 69.3-3.1 99.5-13.2 121.9-40.7 201.8 2.2 205.1 4 10.9 6.2 24.7 2.4 30.9-8.5 0 0 0-.1.1-.1 6.2-11 2.4-24.8-8.6-31.1.1.1.1.1 0 0z" fill="#409eff"/><path d="M465.7 400.4c-4-2.2-99.7-55-241.9-7.5-65.6 22-173.5 3.9-174.6 3.7-12.3-2-24 6.3-26.3 18.6-2.1 12.4 6.2 24.1 18.6 26.3 3 .5 46.4 7.8 97.2 7.8 33.1 0 69.3-3.1 99.5-13.2 121.9-40.7 201.8 2.2 205.1 4 10.9 6.2 24.7 2.4 30.9-8.5 0 0 0-.1.1-.1 6.2-11 2.4-24.9-8.6-31.1.1 0 .1 0 0 0z" fill="#79bbff"/><path class="prefix__st9" d="M282.8 213.5h.2c2-22 20.5-39.2 43-39.2 23.9 0 43.2 19.3 43.2 43.2 0 23.1-18.1 41.9-40.9 43.1v.1h-45.5c-13 0-23.6-10.6-23.6-23.6 0-13.1 10.6-23.6 23.6-23.6z"/><path class="prefix__st9" d="M450.9 213.5h-.2c-2-22-20.5-39.2-43-39.2-23.9 0-43.2 19.3-43.2 43.2 0 23.1 18.1 41.9 40.9 43.1v.1h45.5c13 0 23.6-10.6 23.6-23.6 0-13.1-10.6-23.6-23.6-23.6z"/><path d="M417.6 192.2c-7-23.8-28.9-41.1-54.9-41.1-31.2 0-56.6 25-57.2 56.1-14.5 1.7-25.8 14.1-25.8 29.1 0 16.2 13.1 29.3 29.3 29.3h104.3c20.3 0 36.8-16.5 36.8-36.8-.1-18.9-14.3-34.4-32.5-36.6z" fill="#f6f6f6"/><path class="prefix__st11" d="M364.1 257.5h32.1L348 322.6v-43.5h-27.5l59.3-80.3zM297.1 275.2h17.1L288.5 310v-23.2h-14.7l31.7-42.9zM425.8 278.3h17.1l-25.7 34.8v-23.2h-14.7l31.7-42.9z"/></svg>