<svg version="1.1" id="prefix__图层_1" xmlns="http://www.w3.org/2000/svg" x="0" y="0" viewBox="0 0 500 500" xml:space="preserve"><style>.prefix__st1{fill:#e6e6e6}</style><path d="M366.4 128.6c-15-51.4-62.5-88.9-118.8-88.9-67.6 0-122.5 54.1-123.7 121.5-31.4 3.7-55.8 30.4-55.8 62.8 0 35 28.3 63.3 63.3 63.3H357c43.9 0 79.6-35.7 79.6-79.6 0-40.8-30.8-74.4-70.2-79.1z" fill="#f6f6f6"/><path class="prefix__st1" d="M171.6 160.6h-132c-6.9 0-12.6-5.7-12.6-12.6v-5.5c0-6.9 5.7-12.6 12.6-12.6h132c6.9 0 12.6 5.7 12.6 12.6v5.5c0 6.9-5.7 12.6-12.6 12.6zM243.6 163.5h-30.7c-6.9 0-12.6-5.7-12.6-12.6v-5.5c0-6.9 5.7-12.6 12.6-12.6h30.7c6.9 0 12.6 5.7 12.6 12.6v5.5c0 6.9-5.7 12.6-12.6 12.6zM258.3 216.9H39.6c-6.9 0-12.6-5.7-12.6-12.6v-5.5c0-6.9 5.7-12.6 12.6-12.6h218.7c6.9 0 12.6 5.7 12.6 12.6v5.5c-.1 7-5.7 12.6-12.6 12.6z"/><path d="M465.7 335.5c-4-2.2-99.7-55-241.9-7.5-65.6 22-173.5 3.9-174.6 3.7-12.3-2-24 6.3-26.3 18.6-2.1 12.4 6.2 24.1 18.6 26.3 3 .5 46.4 7.8 97.2 7.8 33.1 0 69.3-3.1 99.5-13.2 121.9-40.7 201.8 2.2 205.1 4 10.9 6.2 24.7 2.4 30.9-8.5 0 0 0-.1.1-.1 6.2-11 2.4-24.9-8.6-31.1.1 0 .1 0 0 0z" fill="#409eff"/><path d="M465.7 411.5c-4-2.2-99.7-55-241.9-7.5-65.6 22-173.5 3.9-174.6 3.7-12.3-2-24 6.3-26.3 18.6-2.1 12.4 6.2 24.1 18.6 26.3 3 .5 46.4 7.8 97.2 7.8 33.1 0 69.3-3.1 99.5-13.2 121.9-40.7 201.8 2.2 205.1 4 10.9 6.2 24.7 2.4 30.9-8.5 0 0 0-.1.1-.1 6.2-11 2.4-24.8-8.6-31.1.1.1.1 0 0 0z" fill="#79bbff"/></svg>