<svg version="1.1" id="prefix__图层_1" xmlns="http://www.w3.org/2000/svg" x="0" y="0" viewBox="0 0 500 500" xml:space="preserve"><style>.prefix__st2{fill:#e3e3e3}.prefix__st4{fill-rule:evenodd;clip-rule:evenodd;fill:#f7ad44}</style><path d="M465.7 340.9c-4-2.2-99.7-55-241.9-7.5-65.6 22-173.5 3.9-174.6 3.7-12.3-2-24 6.3-26.3 18.6-2.1 12.4 6.2 24.1 18.6 26.3 3 .5 46.4 7.8 97.2 7.8 33.1 0 69.3-3.1 99.5-13.2 121.9-40.7 201.8 2.2 205.1 4 10.9 6.2 24.7 2.4 30.9-8.5 0 0 0-.1.1-.1 6.2-11 2.4-24.9-8.6-31.1.1 0 .1 0 0 0z" fill="#409eff"/><path d="M465.7 416.9c-4-2.2-99.7-55-241.9-7.5-65.6 22-173.5 3.9-174.6 3.7-12.3-2-24 6.3-26.3 18.6-2.1 12.4 6.2 24.1 18.6 26.3 3 .5 46.4 7.8 97.2 7.8 33.1 0 69.3-3.1 99.5-13.2 121.9-40.7 201.8 2.2 205.1 4 10.9 6.2 24.7 2.4 30.9-8.5 0 0 0-.1.1-.1 6.2-11 2.4-24.8-8.6-31.1.1.1.1 0 0 0z" fill="#79bbff"/><path class="prefix__st2" d="M103.5 151.8h.4c3.8-41.4 38.6-73.8 81-73.8 44.9 0 81.3 36.4 81.3 81.3 0 43.4-34.1 78.9-76.9 81.2v.1h-85.8c-24.6 0-44.5-19.9-44.5-44.5s19.9-44.3 44.5-44.3z"/><path class="prefix__st2" d="M420 151.8h-.4c-3.8-41.4-38.6-73.8-81-73.8-44.9 0-81.3 36.4-81.3 81.3 0 43.4 34.1 78.9 76.9 81.2v.1H420c24.6 0 44.5-19.9 44.5-44.5s-20-44.3-44.5-44.3z"/><path d="M357.3 111.7C344.2 67 302.8 34.3 253.9 34.3 195 34.3 147.2 81.4 146.1 140c-27.4 3.2-48.6 26.5-48.6 54.7 0 30.4 24.7 55.1 55.1 55.1H349c38.3 0 69.3-31 69.3-69.3.1-35.5-26.6-64.7-61-68.8z" fill="#f6f6f6"/><path class="prefix__st4" d="M256.6 234.6H317l-90.7 122.7v-82h-51.8l111.7-151.2zM130.3 268h32.3l-48.4 65.5v-43.7H86.5l59.7-80.7zM372.7 273.9h32.2l-48.3 65.5v-43.7h-27.7l59.6-80.8z"/></svg>