<svg xmlns="http://www.w3.org/2000/svg" viewBox="0 0 500 500"><path d="M458.7 236c2.7.6 5.4-1.4 5.6-4.2 6.8-93.1-55.3-176-140.4-193.6-85.2-17.6-178 33.3-201.2 114.6-25.6 89.7 24.7 139.4 31.3 148.5-48.9-10.5-96.1-79.1-94.1-133.2-2.7-.6-5.4 1.4-5.6 4.2-6.7 88.5 46 166.1 124.7 188.8-.3 0 21.4 4.6 21.1 4.6l20.3 1.5s56.6 4.5 115.4-33.9h-1c27.6-20.4 49.6-48 60.2-81.1 27.1-83.9-23.6-140.3-30.1-149.3C417 113.8 460.7 182 458.7 236zm-158.8-32c-2.4 23.6-24.1 40-47.2 36.3-.9-.2-1.8-.3-2.7-.5-21.9-5.2-35.5-27.1-30.3-49 5.1-21.6 26.7-35.4 48.7-30.4 19.8 4.3 33.5 23.3 31.5 43.6z" fill="#e99311"/><path d="M465.7 340.4c-4-2.2-99.7-55-241.9-7.5-65.6 22-173.5 3.9-174.6 3.7-12.3-2-24 6.3-26.3 18.6-2.1 12.4 6.2 24.1 18.6 26.3 3 .5 46.4 7.8 97.2 7.8 33.1 0 69.3-3.1 99.5-13.2 121.9-40.7 201.8 2.2 205.1 4 10.9 6.2 24.7 2.4 30.9-8.5 0 0 0-.1.1-.1 6.2-11 2.4-24.8-8.6-31.1.1.1.1.1 0 0z" fill="#409eff"/><path d="M465.7 416.5c-4-2.2-99.7-55-241.9-7.5-65.6 22-173.5 3.9-174.6 3.7-12.3-2-24 6.3-26.3 18.6-2.1 12.4 6.2 24.1 18.6 26.3 3 .5 46.4 7.8 97.2 7.8 33.1 0 69.3-3.1 99.5-13.2 121.9-40.7 201.8 2.2 205.1 4 10.9 6.2 24.7 2.4 30.9-8.5 0 0 0-.1.1-.1 6.2-11 2.4-24.9-8.6-31.1.1 0 .1 0 0 0z" fill="#79bbff"/></svg>