<svg version="1.1" id="prefix__图层_1" xmlns="http://www.w3.org/2000/svg" x="0" y="0" viewBox="0 0 500 500" xml:space="preserve"><style>.prefix__st2{fill:#f56c6c}</style><path d="M325.3 426.4c-77.5-13.4-143.2-53.6-203.5-99.7-2.1-1.6-5.2-1.3-6.9.7l-18.5 22c-1.8 2.2-1.5 5.4.6 7.2.2.1.3.2.5.4 65.9 42.4 145.1 63.6 227.6 71.1 0-.1.2-1.7.2-1.7z" fill="#409eff"/><path d="M162.4 409.6c-2.3-1-5.1 0-6.3 2.2l-9.6 17.2c-1.4 2.4-.5 5.5 1.9 6.9.3.2.7.3 1 .4 81.1 24.4 165.3 37.3 250 38.2l-.1-2.1c-74.8-4-158.7-30.4-236.9-62.8z" fill="#8cc5ff"/><path class="prefix__st2" d="M116.7 128c20.6.6 37.7-15.6 38.3-36.2S139.4 54 118.8 53.4h-2.1c-20.6.6-36.8 17.8-36.2 38.4.5 19.7 16.4 35.6 36.2 36.2zM442.8 186.3l-123.3 9.9c-13.8 1.1-27.2 4.9-39.5 11.2l-48 24.4-32.9-90.8c41.5-28.2 73.5-54 86.2-95.7 2.5-8.1-2-16.6-10.1-19.1-8-2.5-16.5 1.9-19 9.8 0 .1-.1.2-.1.3-11.7 37.9-44.7 59.9-94.6 93-17.1 11.4-35.9 23.8-55.8 38.4C36.2 218.6 36.5 287.6 46.4 317c2.7 8 11.3 12.3 19.3 9.6 8-2.7 12.4-11.3 9.7-19.3-.8-2.5-17.9-58.4 38.3-106.7l50.3 89.6c8.4 14.9 22.8 25.3 39.5 28.7l76.2 15.2c13.9 2.8 26.5 10.2 35.6 21.1l66.1 78.8c3.5 4.2 9.1 6 14.4 4.7l.9-.2c7.7-1.9 12.4-9.6 10.6-17.3-.3-1.1-.7-2.2-1.2-3.3l-60.7-117c-5.4-10.3-14.7-17.9-25.9-21.1l-25.1-7 9.5-7.9c11.1-9.2 24-16 37.8-20L448 214.5c7.6-2.2 12-10.2 9.8-17.8-1.9-6.6-8.2-10.9-15-10.4z"/></svg>