<svg xmlns="http://www.w3.org/2000/svg" viewBox="0 0 500 500"><path d="M407.3 284.9c-3.6 0-7 1.3-9.7 3.6L250 417.8 102.4 288.5c-2.7-2.3-6.1-3.6-9.7-3.6H56.4c-1.7 0-3 1.4-3 3.1 0 .9.4 1.7 1 2.2l189.5 166c3.5 3 8.6 3 12.1 0l189.5-166c1.2-1.1 1.4-3 .2-4.3-.6-.6-1.4-1-2.2-1h-36.2z" fill="#a0cfff"/><path d="M244 381.7c3.5 3 8.6 3 12.1 0l189.5-166c1.2-1.1 1.4-3 .2-4.3-.6-.6-1.4-1-2.2-1h-36.3c-3.6 0-7 1.3-9.7 3.6L250 343.3 102.4 214c-2.7-2.3-6.1-3.6-9.7-3.6H56.4c-1.7 0-3 1.4-3 3.1 0 .9.4 1.7 1 2.2l189.6 166z" fill="#66b1ff"/><path d="M245.3 306.2c2.7 2.3 6.6 2.3 9.3 0l185.9-162.8c3.7-3.3 4.1-9 .8-12.8-1.7-1.9-4.2-3.1-6.7-3.1H367V55.7c0-7.8-6.3-14.1-14.1-14.1H143.3c-7.8 0-14.1 6.3-14.1 14.1v71.9H65.4c-5 0-9 4-9.1 9 0 2.6 1.1 5.1 3.1 6.9.1-.1 185.9 162.7 185.9 162.7z" fill="#409eff"/></svg>