<svg version="1.1" id="prefix___x3C_图层_x3E_" xmlns="http://www.w3.org/2000/svg" x="0" y="0" viewBox="0 0 500 500" xml:space="preserve"><style>.prefix__st1{fill:#e3e3e3}.prefix__st2{fill:#4fc0f2}</style><path d="M396.3 268.4c-31 0-56.3 25.3-56.3 56.3s25.3 56.3 56.3 56.3 56.3-25.3 56.3-56.3-25.4-56.3-56.3-56.3z" fill="#f2f2f2"/><path class="prefix__st1" d="M71.1 199.9h.4c4.3-46.8 43.7-83.4 91.6-83.4 50.8 0 92 41.2 92 92 0 49.1-38.5 89.3-87 91.9v.1h-97c-27.8 0-50.3-22.5-50.3-50.3s22.5-50.3 50.3-50.3z"/><path class="prefix__st2" d="M178.8 350.6l7.4-18.2c2.8-6.9 10.7-10.2 17.6-7.4 6.9 2.8 10.2 10.7 7.4 17.6l-7.4 18.2c-2.8 6.9-10.7 10.2-17.6 7.4-6.9-2.9-10.2-10.7-7.4-17.6zM123.9 345.6l7.4-18.2c2.8-6.9 10.7-10.2 17.6-7.4 6.9 2.8 10.2 10.7 7.4 17.6l-7.4 18.2c-2.8 6.9-10.7 10.2-17.6 7.4-6.9-2.8-10.2-10.7-7.4-17.6zM291.2 354.3l7.4-18.2c2.8-6.9 10.7-10.2 17.6-7.4 6.9 2.8 10.2 10.7 7.4 17.6l-7.4 18.2c-2.8 6.9-10.7 10.2-17.6 7.4-6.9-2.8-10.3-10.7-7.4-17.6zM69 345.6l7.4-18.2c2.8-6.9 10.7-10.2 17.6-7.4 6.9 2.8 10.2 10.7 7.4 17.6L94 355.8c-2.8 6.9-10.7 10.2-17.6 7.4-6.9-2.8-10.3-10.7-7.4-17.6zM236 350.6l7.4-18.2c2.8-6.9 10.7-10.2 17.6-7.4 6.9 2.8 10.2 10.7 7.4 17.6l-7.4 18.2c-2.8 6.9-10.7 10.2-17.6 7.4-6.9-2.9-10.2-10.7-7.4-17.6z"/><path d="M420.7 350.3c-1.6 1.9-4.4 2.1-6.3.6l-20.8-17.5c-.1-.1-.2-.3-.3-.4 0 0 0-.1-.1-.1-.4-.4-.7-.8-.8-1.3-.1-.2-.1-.4-.2-.7-.1-.3-.2-.6-.2-.9 0-.1-.1-.2-.1-.3v-27.1c0-2.5 2-4.5 4.5-4.5s4.5 2 4.5 4.5v25.1l19.2 16.1c1.9 1.8 2.2 4.6.6 6.5z" fill="#f15a24"/><path class="prefix__st1" d="M429.1 199.9h-.4c-4.3-46.8-43.7-83.4-91.6-83.4-50.8 0-92 41.2-92 92 0 49.1 38.5 89.3 87 91.9v.1h9.1c9.4-21.1 30.6-35.8 55.1-35.8 22.8 0 42.7 12.8 53 31.6 17.7-7.8 30.1-25.5 30.1-46.1 0-27.8-22.5-50.3-50.3-50.3z"/><path d="M396.3 264.7c7.7 0 15.2 1.5 22 4.2 5.8-10.9 9-23.3 9-36.5 0-40.2-30.2-73.2-69.1-77.8C343.3 104 296.6 67 241.2 67c-66.5 0-120.6 53.3-121.8 119.6-31 3.6-55 30-55 61.9 0 34.4 27.9 62.3 62.3 62.3h211c6.4-26.4 30.3-46.1 58.6-46.1z" fill="#f6f6f6"/></svg>