<svg xmlns="http://www.w3.org/2000/svg" viewBox="0 0 500 500"><style>.prefix__st3{fill:#4fc0f2}</style><path fill="#f1f1f1" d="M379 272.8H198.3l41.5-113.5 162.4 43.6z"/><path d="M274.7 224c1.6-5 7-7.8 12-6.2l48.1 15.5c5 1.6 7.8 7 6.2 12.1l-8.8 27.4H259l15.7-48.8z" fill="#c3c3c3"/><path d="M322.1 115l-100.3 27c-6.5 1.8-6.5 11.1 0 12.8l196.3 52.6c6.5 1.8 11.2-6.3 6.4-11.1l-73.4-73.6c-7.6-7.6-18.6-10.5-29-7.7z" fill="#d35b41"/><path class="prefix__st3" d="M427.8 270.2c-3.3-1.9-82.4-45.9-199.7-6.3-54 18.2-142.9 3.2-143.7 3-10.3-1.5-20 5.6-21.5 16-1.5 10 5.1 19.4 15 21.3 2.4.4 38.3 6.5 80.3 6.5 27.3 0 57.2-2.6 82.1-11 100.3-33.8 166.1 1.8 168.8 3.3 9 5.1 20.6 2 25.9-7 5-9.1 1.8-20.6-7.2-25.8zM427.8 345.5c-3.3-1.9-82.4-45.9-199.7-6.3-54 18.2-142.9 3.2-143.7 3-10.3-1.5-20 5.6-21.5 16-1.5 10 5.1 19.4 15 21.3 2.4.4 38.3 6.5 80.3 6.5 27.3 0 57.2-2.6 82.1-11 100.3-33.8 166.1 1.8 168.8 3.3 9 5.1 20.6 2 25.9-7 5-9.1 1.8-20.6-7.2-25.8z"/></svg>