<svg version="1.1" id="prefix__图层_1" xmlns="http://www.w3.org/2000/svg" x="0" y="0" viewBox="0 0 500 500" xml:space="preserve"><style>.prefix__st2{fill:#c69c6d}</style><path fill="#8c6239" d="M140.1 467.3h157.7l-36.4-205.1z"/><path fill="#754c24" d="M308.4 62.4l-83.7 56.5 1.8 137.8 34.9 5.5 36.4 205.1h184.8z"/><path class="prefix__st2" d="M257.9 69.5c7.6-10.2 5.4-24.7-4.8-32.3-10.2-7.6-24.7-5.4-32.3 4.8-.1.2-.2.3-.4.5-7.3 10.4-4.8 24.8 5.7 32.1 10.3 7.2 24.3 4.9 31.8-5.1zM171.3 319.4c7.6-10.2 5.4-24.7-4.8-32.3-10.2-7.6-24.7-5.4-32.3 4.8-.1.2-.2.3-.4.5-7.3 10.4-4.8 24.8 5.7 32.1 10.3 7.2 24.3 4.9 31.8-5.1z"/><path d="M199.2 123.4c10.8-14.1 8.2-34.2-5.8-45.1-14.1-10.8-34.2-8.2-45.1 5.8-.4.5-.8 1.1-1.2 1.7-9.9 14.7-6 34.7 8.7 44.6 14.1 9.5 33.1 6.5 43.4-7z" fill="#fbb03b"/><circle cx="142.2" cy="207.3" r="43.9" fill="#603813"/><path d="M109.3 341.1c-26-18.7-62.2-12.9-80.9 13.1s-12.9 62.2 13.1 80.9 62.2 12.9 80.9-13.1c18.7-26 12.9-62.2-13.1-80.9z" fill="#a67c52"/></svg>