<svg version="1.1" id="prefix__图层_1" xmlns="http://www.w3.org/2000/svg" x="0" y="0" viewBox="0 0 500 500" xml:space="preserve"><style>.prefix__st0{fill:#f15a24}.prefix__st1{fill:#f7931e}.prefix__st2{fill:#1088e2}.prefix__st3{fill:#0391ff}.prefix__st4{fill:#0396ff}.prefix__st5{fill:#3fa9f5}.prefix__st6{fill:#abdcff}</style><path class="prefix__st0" d="M168.4 83.9L61.6 420.4l.9.3c9.7 3.1 20.1-2.3 23.1-12.1L186.1 89.4l-17.7-5.5z"/><path class="prefix__st1" d="M150.9 78.4L50.5 397.7c-3 9.4 2 19.4 11.1 22.8L168.4 83.9l-17.5-5.5z"/><path class="prefix__st2" d="M185.7 89.7l-66.8 212.4 49-24.9L223 102.4z"/><path class="prefix__st3" d="M223 102.4l-55.1 174.8 50.8-25.8 42.8-135.9z"/><path class="prefix__st4" d="M261.5 115.5l-42.8 135.9 51.3-26 30.4-96.7z"/><path class="prefix__st5" d="M300.4 128.7L270 225.4l61.1-31.1 15.7-49.8z"/><path class="prefix__st6" d="M364.5 150.5l-17.7-6-15.7 49.8 35.3-17.9c11.1-5.6 9.9-21.9-1.9-25.9z"/><path class="prefix__st0" d="M338.5 237.8L280.3 421c.2.1.3.1.5.2 5.3 1.7 10.9-1.3 12.6-6.6L348 240.8l-9.5-3z"/><path class="prefix__st1" d="M328.9 234.8l-54.7 173.8c-1.6 5.1 1.1 10.6 6.1 12.4l58.2-183.2-9.6-3z"/><path class="prefix__st2" d="M347.8 240.9l-36.3 115.6 26.7-13.5 30-95.1z"/><path class="prefix__st3" d="M368.2 247.9l-30 95.1 27.6-14 23.3-74z"/><path class="prefix__st4" d="M389.1 255l-23.3 74 27.9-14.2 16.6-52.6z"/><path class="prefix__st5" d="M410.3 262.2l-16.6 52.6 33.3-16.9 8.5-27.1z"/><path class="prefix__st6" d="M445.2 274.1l-9.7-3.3-8.6 27.1 19.2-9.8c6.1-3 5.5-11.9-.9-14z"/></svg>