<svg version="1.1" id="prefix__图层_1" xmlns="http://www.w3.org/2000/svg" x="0" y="0" viewBox="0 0 500 500" xml:space="preserve"><style>.prefix__st2{fill:#d9ecff}</style><path d="M458.9 155.9c-56 37.9-153.3 36.7-264.5 13-105.5-22.4-167.1 29.4-167.1 29.4 96.6-2.2 178.3 28.6 249.9 42.2 169.6 32.3 181.7-84.6 181.7-84.6z" fill="#409eff"/><path d="M408.6 265s-99.2 30.6-179.7-12.6c-69.2-37.1-147.1-40.6-181.1-22.5 0 0 52.9-7.9 142.4 51.1 93.4 61.4 168.1 26.6 218.4-16z" fill="#94d0ff"/><path class="prefix__st2" d="M83.7 131.2c.6-.2 64.5-6.8 113.1 8.3 31.8 10 58.1 14.9 79.7 14.9 17.3 0 31.6-3.2 43.6-9.4 14.9-7.8 26.1-21.3 30.8-37.5 7.5-24.1 4.1-47.7-9.4-66.4S306 11 282.6 10.5c-19.8-.1-38.8 7.9-52.4 22.2-8.1 8.5-7.9 22 .6 30.1 8.5 8.1 22 7.9 30.1-.6 5.4-5.8 13-9 20.9-9.1 9.6.2 19.5 5.3 25 13 5.7 7.8 6.7 17.5 3.2 28.8-1.4 5.4-5 9.9-9.9 12.4-8.9 4.7-32.5 9.8-90.8-8.4C152.2 81 82 88.4 79 88.8c-11.7 1.3-20.1 11.8-18.8 23.5 1.3 11.7 11.9 19.6 23.5 18.9zM395.4 324.3c-22.2-3.7-45.6 3.7-70.4 11.4-15.4 4.8-31.4 9.8-47.6 12.4-73.7 11.8-149.7-59.6-150.4-60.3-8.5-8.2-22-7.9-30.1.6-8.2 8.5-7.9 22 .6 30.1 3.7 3.5 91.4 86.7 186.6 71.7 19.3-3 37.6-8.8 53.7-13.8 19.9-6.2 38.7-12 50.6-10 5.9 1 20.2 5.2 25.8 23.1 5.3 17.4-4.5 35.8-21.9 41.1-10.4 3.2-21.7 1-30.2-5.7-9.2-7.3-22.6-5.9-30 3.3-7.4 9.2-5.9 22.6 3.3 30 32.5 26.1 80 20.9 106.2-11.6 15.7-19.5 20.7-45.6 13.3-69.6-8.8-28.3-31-47.9-59.5-52.7z"/></svg>