<svg version="1.1" id="prefix__图层_1" xmlns="http://www.w3.org/2000/svg" x="0" y="0" viewBox="0 0 500 500" xml:space="preserve"><style>.prefix__st0{fill:#754c24}.prefix__st1{fill:#8c6239}.prefix__st2{fill:#c69c6d}</style><path class="prefix__st0" d="M427.2 118.5l-40.8 23.2-179 309.8h258.9l-39.1-333z"/><path class="prefix__st1" d="M347.5 209.9l-63.1 19.4-138.2 222.2h279.9l-78.6-241.6z"/><path class="prefix__st2" d="M253.8 281.6l-99.7 22.2-104 147.7h221.7zM339.8 190.3c6.8-8.8 5.2-21.6-3.6-28.4-8.8-6.8-21.6-5.2-28.4 3.6-.3.4-.5.7-.8 1.1-6.2 9.3-3.8 21.9 5.5 28.1 8.8 6 20.8 4 27.3-4.4z"/><path d="M184.3 305.3c7.6-10.5 5.2-25.2-5.3-32.7-10.5-7.6-25.2-5.2-32.7 5.3s-5.2 25.2 5.3 32.7c10.5 7.6 25.1 5.2 32.7-5.3z" fill="#a67c52"/><path class="prefix__st2" d="M133.3 236.4c8.4-11.6 5.8-27.8-5.8-36.2s-27.8-5.8-36.2 5.8c-8.4 11.6-5.8 27.8 5.8 36.2 11.7 8.5 27.9 5.9 36.2-5.8z"/><path class="prefix__st1" d="M379.8 100.8c10.8-14.4 8-34.9-6.4-45.7-14.4-10.8-34.9-8-45.7 6.4-.3.3-.5.7-.8 1-10.3 14.8-6.6 35.1 8.2 45.4 14.4 10 34.1 6.9 44.7-7.1z"/><circle class="prefix__st2" cx="232.9" cy="107.4" r="32.7"/><path class="prefix__st0" d="M257 244.6c15-19.6 11.2-47.6-8.4-62.6s-47.6-11.2-62.6 8.4c-.5.6-.9 1.3-1.4 1.9-13.9 20.4-8.7 48.1 11.7 62 19.7 13.5 46.3 9.2 60.7-9.7z"/><path d="M92.8 375.3c-16.7-12.1-40-8.3-52.1 8.4s-8.3 40 8.4 52.1c16.7 12.1 40 8.3 52.1-8.4 12-16.7 8.3-40-8.4-52.1z" fill="#603813"/></svg>