<svg version="1.1" id="prefix__图层_1" xmlns="http://www.w3.org/2000/svg" x="0" y="0" viewBox="0 0 500 500" xml:space="preserve"><style>.prefix__st0{fill:#e99311}.prefix__st1{fill:#e96a11}</style><path class="prefix__st0" d="M247.3 253.1c34-11.4 71.3-7.7 102.5 10.2 60.5 34.9 81.2 112.2 46.3 172.7-6.7 11.2-15.1 21.3-24.9 29.9 88.4-65.5 107-190.3 41.5-278.7-16.2-21.9-36.8-40.3-60.4-53.9-25.2-14.5-53.3-23.3-82.3-25.8 4.3 40.1-3.3 91.2-22.7 145.6z"/><path class="prefix__st1" d="M271 138.9c23.9 3.8 47 11.9 68 24 23.6 13.6 44.2 32 60.4 53.9 41 55.3 49 124.8 27.7 185.1 36.3-66.1 33.3-150.1-14.5-214.6-16.2-21.9-36.8-40.3-60.4-53.9-25.2-14.5-53.3-23.3-82.3-25.8 1.1 9.8 1.5 20.3 1.1 31.3z"/><path class="prefix__st0" d="M251.3 253.9c7.2-35.2 29-65.6 60.1-83.6 60.5-34.9 137.8-14.2 172.7 46.3 6.4 11.4 10.9 23.7 13.5 36.5C485.1 143.7 386.3 65.3 277 77.8c-27.1 3.1-53.3 11.7-76.9 25.4-25.2 14.6-46.8 34.5-63.5 58.4 36.9 16.1 77.4 48.3 114.7 92.3z"/><path class="prefix__st1" d="M164.3 176.2c15.2-18.8 33.8-34.7 54.8-46.9 23.6-13.6 49.8-22.3 76.9-25.4 68.4-7.8 132.6 19.9 174.2 68.5C431 108 356.8 68.7 277 77.8c-27.1 3.1-53.3 11.7-76.9 25.4-25.2 14.6-46.8 34.5-63.5 58.4 9.1 3.9 18.3 8.8 27.7 14.6z"/><path class="prefix__st0" d="M254 250.8c-26.9-23.8-42.3-57.9-42.4-93.8 0-69.8 56.6-126.4 126.4-126.4 13.1.2 26 2.4 38.4 6.6-100.9-43.9-218.2 2.4-262 103.3-10.9 25-16.5 52-16.5 79.3 0 29.1 6.5 57.8 18.8 84.1 32.5-23.8 80.5-42.7 137.3-53.1z"/><path class="prefix__st1" d="M143.2 287.4c-8.7-22.6-13.2-46.6-13.2-70.9 0-27.3 5.6-54.3 16.5-79.3C173.9 74.1 230.1 32.3 293 20.6c-75.4 1.6-146.6 46.2-178.6 119.9-10.9 25-16.5 52-16.5 79.3 0 29.1 6.5 57.8 18.8 84.1 8-5.8 16.8-11.3 26.5-16.5z"/><path class="prefix__st0" d="M252.7 246.9c-34 11.4-71.3 7.7-102.5-10.2C89.8 201.8 69 124.5 103.9 64c6.7-11.2 15.1-21.3 24.9-29.9-88.4 65.5-107 190.3-41.5 278.7 16.2 21.9 36.8 40.3 60.4 53.9 25.2 14.5 53.3 23.3 82.3 25.8-4.3-40.1 3.3-91.2 22.7-145.6z"/><path class="prefix__st1" d="M229 361.1c-23.9-3.8-47-11.9-68-24-23.6-13.6-44.2-32-60.4-53.9-41-55.3-49-124.8-27.7-185.1-36.3 66.1-33.3 150.1 14.5 214.6 16.2 21.9 36.8 40.3 60.4 53.9 25.2 14.5 53.3 23.3 82.3 25.8-1.1-9.8-1.5-20.3-1.1-31.3z"/><path class="prefix__st0" d="M248.7 246.1c-7.2 35.2-29 65.6-60.1 83.6-60.5 35-137.8 14.3-172.7-46.2C9.5 272.1 5 259.8 2.4 247 14.9 356.3 113.7 434.7 223 422.2c27.1-3.1 53.3-11.7 76.9-25.4 25.2-14.6 46.8-34.5 63.5-58.4-36.9-16.1-77.4-48.3-114.7-92.3z"/><path class="prefix__st1" d="M335.7 323.8c-15.2 18.8-33.8 34.7-54.8 46.9-23.6 13.6-49.8 22.3-76.9 25.4-68.4 7.8-132.6-19.9-174.2-68.5C69 392 143.2 431.3 223 422.2c27.1-3.1 53.3-11.7 76.9-25.4 25.2-14.6 46.8-34.5 63.5-58.4-9.1-3.9-18.3-8.8-27.7-14.6z"/><path class="prefix__st0" d="M246 249.2c26.9 23.8 42.3 57.9 42.4 93.8 0 69.8-56.6 126.4-126.4 126.4-13.1-.2-26-2.4-38.4-6.6 100.9 43.8 218.3-2.5 262.1-103.4 10.9-25 16.5-52 16.5-79.3 0-29.1-6.5-57.8-18.8-84.1-32.6 23.9-80.6 42.8-137.4 53.2z"/><path class="prefix__st1" d="M370.3 283.6c0 27.3-5.6 54.3-16.5 79.3-27.4 63.1-83.5 104.9-146.5 116.6 75.4-1.6 146.6-46.2 178.6-119.9 6.3-14.5 10.8-29.7 13.5-45.3l-30.2-50.8c.7 6.7 1.1 13.4 1.1 20.1z"/></svg>