<svg xmlns="http://www.w3.org/2000/svg" viewBox="0 0 500 500"><path d="M284.7 73.8l182.5 316c7.2 12.4-1.8 28-16.2 28H86.1c-14.4 0-23.3-15.6-16.2-28l182.5-316c7.2-12.4 25.1-12.4 32.3 0z" fill="#f16524"/><path d="M311.1 261.3c-8 3.5-13.2 9.1-16.3 15.1-2.4 4.6-9.2 4.1-10.7-.9-4.1-13.3-3.6-27.8-1-45.5.7-4.5-3.9-8-8.1-6.2-26.8 11.9-33.3 38.1-35.7 58.3-.8 6.7-10.4 6.9-11.5.3-.2-1.4-.4-2.8-.6-4.1-.6-4.8-6.5-6.8-9.9-3.4-7.9 7.8-12.7 20.1-13.9 30.8-3.9 35.1 21.6 63.9 55.7 67.6 34 3.7 63.7-18.9 67.6-54.1 2.1-18.9-8.8-27.6-7.1-52.1 0-4.4-4.5-7.5-8.5-5.8z" fill="#ff7b15"/><path d="M280.1 327.3c-2.5 1.1-4.1 2.9-5.2 4.7-.9 1.6-3.3 1.4-3.9-.4-1.3-4.3-1.1-9-.3-14.7.2-1.6-1.4-2.9-2.9-2.2-8.4 3.9-10.8 12-11.6 18.6-.3 2.4-3.8 2.4-4.1 0v-.1c-.2-1.7-2.4-2.4-3.6-1.2-2.5 2.6-4.1 6.6-4.5 10.1-1.3 11.8 7.3 21.4 18.7 22.7 11.4 1.3 21.4-6.4 22.7-18.2.7-6.3-2.9-9.2-2.4-17.3.1-1.5-1.5-2.6-2.9-2z" fill="#fb9b3b"/></svg>