<svg xmlns="http://www.w3.org/2000/svg" viewBox="0 0 500 500"><style>.prefix__st2{fill:#4fc0f2}</style><path d="M357 461H59.6c-6.6 0-12-5.4-12-12V51c0-6.6 5.4-12 12-12H357c6.6 0 12 5.4 12 12v398c0 6.6-5.4 12-12 12zM241.3 238V78c0-6.6-5.4-12-12-12H94.2c-6.6 0-12 5.4-12 12v160c0 6.6 5.4 12 12 12h135.1c6.6 0 12-5.4 12-12zM354.5 84.9V78c0-6.6-5.4-12-12-12h-71c-6.6 0-12 5.4-12 12v6.8c0 6.6 5.4 12 12 12h71c6.6.1 12-5.3 12-11.9zm0 51.5v-6.8c0-6.6-5.4-12-12-12h-71c-6.6 0-12 5.4-12 12v6.8c0 6.6 5.4 12 12 12h71c6.6 0 12-5.4 12-12z" fill="#ff931e"/><path d="M307.1 366c-12 10.3-108.4 55-118 61-5.9 3.7-56.2 21-93.8 33.7H357c6.6 0 12-5.4 12-12V219.1c-7.7 24.6-23 72.9-24.5 75.8-2 3.9-25.4 60.8-37.4 71.1z" fill="#ff6c1e"/><path class="prefix__st2" d="M328.5 273.2c-45.3 16.1-69.6-1.1-71.1-2.2-8.2-5.9-19.7-4-25.6 4.2-5.5 7.7-4.3 18.3 2.9 24.5 1.2.9 21.6 16.8 57.5 16.8 13.9 0 30.1-2.4 48.5-8.9 55.8-19.8 81.1-1.7 81.8-1.2 8 6.2 19.5 4.7 25.7-3.3 5.9-7.6 4.9-18.5-2.3-24.9-4.1-3.2-41.9-31.9-117.4-5zM328.5 339.3c-45.3 16.1-69.6-1.1-71.1-2.2-8.2-5.9-19.7-4-25.6 4.2-5.5 7.7-4.3 18.3 2.9 24.5 1.2.9 21.6 16.8 57.5 16.8 13.9 0 30.1-2.4 48.5-8.9 55.8-19.9 81.1-1.7 81.8-1.2 7.8 6.4 19.3 5.3 25.7-2.4 6.4-7.8 5.3-19.3-2.4-25.7-4-3.4-41.8-32-117.3-5.1zM328.5 405.3c-45.3 16.1-69.6-1.1-71.1-2.2-8.2-5.9-19.7-4-25.6 4.2-5.5 7.7-4.3 18.3 2.9 24.5 1.2.9 21.6 16.8 57.5 16.8 13.9 0 30.1-2.4 48.5-8.9 55.9-19.9 81.1-1.7 81.8-1.2 8 6.2 19.5 4.7 25.7-3.3 5.9-7.6 4.9-18.5-2.3-24.9-4.1-3.2-41.8-31.9-117.4-5z"/></svg>