<svg xmlns="http://www.w3.org/2000/svg" viewBox="0 0 500 500"><style>.prefix__st0{fill:#e3e3e3}.prefix__st2{fill:#4fc0f2}</style><path class="prefix__st0" d="M71 198.3h.4c4.3-46.8 43.7-83.4 91.6-83.4 50.8 0 92 41.2 92 92 0 49.1-38.5 89.3-87 91.9v.1H71c-27.8 0-50.3-22.5-50.3-50.3s22.5-50.3 50.3-50.3z"/><path class="prefix__st0" d="M429 198.3h-.4c-4.3-46.8-43.7-83.4-91.6-83.4-50.8 0-92 41.2-92 92 0 49.1 38.5 89.3 87 91.9v.1h97c27.8 0 50.3-22.5 50.3-50.3s-22.5-50.3-50.3-50.3z"/><path d="M358.1 153c-14.8-50.6-61.6-87.6-117-87.6-66.5 0-120.6 53.3-121.8 119.6-31 3.6-55 30-55 61.9 0 34.4 27.9 62.3 62.3 62.3h222.2c43.3 0 78.4-35.1 78.4-78.4 0-40.1-30.2-73.2-69.1-77.8z" fill="#f6f6f6"/><path class="prefix__st2" d="M119.2 370.4h-6.1l3.1-5.3c3.3-5.9 1.3-13.3-4.6-16.6-5.8-3.3-13.2-1.3-16.6 4.4l-3 5.2-3.1-5.2c-3.4-5.8-10.9-7.8-16.7-4.4-5.8 3.4-7.7 10.8-4.4 16.6l3.1 5.3h-6.1c-6.7 0-12.2 5.5-12.2 12.2 0 6.7 5.5 12.2 12.2 12.2h6.1l-3 5.3c-3.4 5.8-1.4 13.3 4.5 16.7s13.3 1.4 16.7-4.5l3-5.2 3 5.2c3.8 5.6 11.5 7 17 3.2 5-3.4 6.7-9.9 4.1-15.4l-3.1-5.3h6.1c6.7 0 12.2-5.5 12.2-12.2 0-6.7-5.5-12.2-12.2-12.2zM411 370.4h-6.1l3.1-5.3c3.3-5.9 1.3-13.3-4.6-16.6-5.8-3.3-13.2-1.3-16.6 4.4l-3 5.2-3-5.2c-3.4-5.8-10.9-7.8-16.7-4.4-5.8 3.4-7.7 10.8-4.4 16.6l3.1 5.3h-6.1c-6.7 0-12.2 5.5-12.2 12.2 0 6.7 5.5 12.2 12.2 12.2h6.1l-3.1 5.3c-3.4 5.8-1.4 13.3 4.5 16.7 5.8 3.4 13.3 1.4 16.7-4.5l3-5.2 3 5.2c3.8 5.6 11.5 7 17 3.2 5-3.4 6.7-9.9 4.1-15.4l-3.1-5.3h6.1c6.7 0 12.2-5.5 12.2-12.2 0-6.7-5.5-12.2-12.2-12.2zM161.1 365.8l32.7 68.8 33.9-68.8-33.9-36.5zM250.6 365.8l32.7 68.8 33.9-68.8-33.9-36.5z"/></svg>