<svg xmlns="http://www.w3.org/2000/svg" viewBox="0 0 500 500"><style>.prefix__st1{fill:#e6e6e6}</style><path d="M360.3 169.5c-12.3-42-51.2-72.8-97.3-72.8-55.4 0-100.4 44.3-101.3 99.5-25.7 3-45.8 24.9-45.8 51.5 0 28.6 23.2 51.8 51.8 51.8h184.9c36 0 65.2-29.2 65.2-65.2 0-33.4-25.2-60.9-57.5-64.8z" fill="#f6f6f6"/><path class="prefix__st1" d="M198.4 195.8H94.8c-6.9 0-12.6-5.7-12.6-12.6 0-6.9 5.7-12.6 12.6-12.6h103.6c6.9 0 12.6 5.7 12.6 12.6 0 6.9-5.7 12.6-12.6 12.6zM257.4 198.1h-20.6c-6.9 0-12.6-5.7-12.6-12.6 0-6.9 5.7-12.6 12.6-12.6h20.6c6.9 0 12.6 5.7 12.6 12.6 0 7-5.7 12.6-12.6 12.6zM305.7 334.1H148.4c-6.9 0-12.6-5.7-12.6-12.6 0-6.9 5.7-12.6 12.6-12.6h157.2c6.9 0 12.6 5.7 12.6 12.6 0 7-5.6 12.6-12.5 12.6zM385.2 368.7H228c-6.9 0-12.6-5.7-12.6-12.6 0-6.9 5.7-12.6 12.6-12.6h157.2c6.9 0 12.6 5.7 12.6 12.6 0 7-5.7 12.6-12.6 12.6zM294 403.3H136.8c-6.9 0-12.6-5.7-12.6-12.6 0-6.9 5.7-12.6 12.6-12.6H294c6.9 0 12.6 5.7 12.6 12.6 0 6.9-5.7 12.6-12.6 12.6zM269.4 241.9H94.8c-6.9 0-12.6-5.7-12.6-12.6 0-6.9 5.7-12.6 12.6-12.6h174.6c6.9 0 12.6 5.7 12.6 12.6 0 6.9-5.7 12.6-12.6 12.6z"/></svg>