<svg xmlns="http://www.w3.org/2000/svg" viewBox="0 0 500 500"><path d="M254.4 456c-9.7 0-17.5-7.9-17.5-17.5v-254c0-9.7 7.9-17.5 17.5-17.5 9.7 0 17.5 7.9 17.5 17.5v253.9c0 9.7-7.8 17.6-17.5 17.6z" fill="#a67c52"/><path d="M397 315.3l-51.2-68.5-15.1-20.2c-25-5.1-43.8-27.1-43.8-53.6 0-1.6.1-3.2.2-4.7l-8.8-11.8c-14.8-19.9-44-19.9-58.8 0L152 246.7l-51.2 68.5c-18.7 25-1.3 61.2 29.4 61.2h237.2c30.9.1 48.3-36.1 29.6-61.1z" fill="#67c23a"/><path d="M357.9 224.6c-12.6 3.9-27.2 3.4-42-3.4-10-4.7-18.2-12.7-22.9-22.7-8.9-18.8-7.4-37.4.4-52l-26.4-32c-9.4-11.4-26.9-11.4-36.3 0L172 185.6l-40.6 49.2c-14.8 18-1 43.9 23.3 43.9h188c24.4 0 38.1-26 23.3-43.9l-8.1-10.2z" fill="#aff3d8"/><path d="M315 127.5l-18.7-27.4-32.7-48c-7.2-10.6-21.3-10.6-28.5 0l-32.7 48-24.8 36.4c-9.1 13.3-.6 32.5 14.3 32.5h95.9c1.8-17.8 12.3-33 27.2-41.5z" fill="#f0f9eb"/><path d="M388.6 124.1c-6.9 3-11.4 7.8-14.1 13-2.1 4-7.9 3.5-9.2-.7-3.6-11.4-3.1-23.9-.9-39.2.6-3.9-3.4-6.9-7-5.3-23 10.2-28.7 32.8-30.7 50.2-.7 5.7-9 6-9.9.3-.2-1.2-.4-2.4-.5-3.6-.5-4.2-5.6-5.9-8.5-2.9-6.8 6.7-11 17.3-12 26.5-3.3 30.2 18.6 54.9 47.9 58.2 29.3 3.2 54.8-16.3 58.1-46.6 1.8-16.2-7.6-23.8-6.1-44.8.2-4-3.6-6.6-7.1-5.1z" fill="#ff7b15"/><path d="M361.9 180.9c-2.1 1-3.5 2.5-4.4 4-.8 1.4-2.9 1.2-3.3-.3-1.1-3.7-.9-7.7-.2-12.6.2-1.4-1.2-2.5-2.5-1.9-7.2 3.3-9.3 10.3-10 16-.3 2.1-3.3 2.1-3.6 0v-.1c-.2-1.5-2-2.1-3.1-1-2.2 2.3-3.5 5.7-3.8 8.7-1.1 10.1 6.2 18.5 16.1 19.5 9.8 1.1 18.4-5.5 19.5-15.6.6-5.4-2.5-7.9-2.1-14.9 0-1.4-1.3-2.4-2.6-1.8z" fill="#fb9b3b"/></svg>