<svg version="1.1" id="prefix__图层_1" xmlns="http://www.w3.org/2000/svg" x="0" y="0" viewBox="0 0 500 500" xml:space="preserve"><style>.prefix__st0{fill-rule:evenodd;clip-rule:evenodd;fill:#4fc0f2}</style><path class="prefix__st0" d="M42.5 201.6c0 35.8 29 64.8 64.8 64.8s64.8-29 64.8-64.8-64.8-129.5-64.8-129.5-64.8 93.7-64.8 129.5zM185.2 363.1c0 35.8 29 64.8 64.8 64.8s64.8-29 64.8-64.8S250 233.6 250 233.6s-64.8 93.8-64.8 129.5zM392.8 72.1S328 165.8 328 201.6s29 64.7 64.8 64.7 64.7-29 64.7-64.8c0-35.7-64.7-129.4-64.7-129.4z"/></svg>