<svg xmlns="http://www.w3.org/2000/svg" viewBox="0 0 500 500"><style>.prefix__st3{fill:#4fc0f2}</style><path fill="#f1f1f1" d="M385.5 339.4H204.9l41.5-113.5 162.4 43.6z"/><path d="M281.2 290.6c1.6-5 7-7.8 12-6.2l48.1 15.5c5 1.6 7.8 7 6.2 12.1l-8.8 27.4h-73.2l15.7-48.8z" fill="#c3c3c3"/><path d="M328.7 181.6l-100.3 27.1c-6.5 1.8-6.5 11.1 0 12.8L424.6 274c6.5 1.8 11.2-6.3 6.4-11.1l-73.4-73.6c-7.5-7.6-18.6-10.5-28.9-7.7z" fill="#d35b41"/><path class="prefix__st3" d="M434.3 336.8c-3.3-1.9-82.4-45.9-199.7-6.3-54 18.2-142.9 3.2-143.7 3-10.3-1.5-20 5.6-21.5 16-1.5 10 5.1 19.4 15 21.3 2.4.4 38.3 6.5 80.3 6.5 27.3 0 57.2-2.6 82.1-11 100.3-33.8 166.1 1.8 168.8 3.3 9 5.1 20.6 2 25.9-7 5.1-9.1 1.9-20.6-7.2-25.8zM434.3 412.1c-3.3-1.9-82.4-45.9-199.7-6.3-54 18.2-142.9 3.2-143.7 3-10.3-1.5-20 5.6-21.5 16-1.5 10 5.1 19.4 15 21.3 2.4.4 38.3 6.5 80.3 6.5 27.3 0 57.2-2.6 82.1-11 100.3-33.8 166.1 1.8 168.8 3.3 9 5.1 20.6 2 25.9-7 5.1-9.1 1.9-20.6-7.2-25.8zM109.1 158.4c20.4 0 37-16.6 37-37s-37-74.1-37-74.1-37 53.6-37 74 16.5 37.1 37 37.1zM176.8 206.8c12.7 0 23.1-10.3 23.1-23.1s-23.1-46.2-23.1-46.2-23.1 33.4-23.1 46.2 10.3 23.1 23.1 23.1zM79.2 260.6c12.7 0 23.1-10.3 23.1-23.1s-23.1-46.2-23.1-46.2-23.1 33.4-23.1 46.2 10.3 23.1 23.1 23.1z"/></svg>