<svg version="1.1" id="prefix__图层_1" xmlns="http://www.w3.org/2000/svg" x="0" y="0" viewBox="0 0 500 500" xml:space="preserve"><style>.prefix__st0{fill:#3fa9f5}</style><path class="prefix__st0" d="M263.2 286.6v-63.4l54.9 31.7c8.2 4.3 18.4 1.1 22.7-7.1 4.1-7.7 1.5-17.3-5.9-22L280 194.1l54.9-31.7c8-4.6 10.8-14.8 6.2-22.9-4.6-8-14.8-10.8-22.9-6.2 0 0-.1 0-.1.1l-54.9 31.7v-63.4c0-9.3-7.5-16.8-16.8-16.8s-16.8 7.5-16.8 16.8v63.4l-54.9-31.7c-8.2-4.3-18.3-1.2-22.7 7-4.1 7.8-1.5 17.4 5.9 22.1l54.9 31.7-54.8 31.7c-8 4.7-10.7 14.9-6.1 22.9 4.6 8 14.8 10.7 22.8 6.1l54.9-31.7v63.4c0 9.3 7.5 16.8 16.8 16.8s16.8-7.5 16.8-16.8z"/><path d="M457.9 415H46c0-19.5 15.8-35.3 35.3-35.3h341.3c19.5 0 35.3 15.8 35.3 35.3z" fill="#a67c52"/><path class="prefix__st0" d="M102 344.8v-33.4l28.9 16.7c4.3 2.3 9.7.6 11.9-3.7 2.1-4.1.8-9.1-3.1-11.6l-28.9-16.7 28.9-16.7c4.2-2.4 5.7-7.8 3.3-12-2.4-4.2-7.8-5.7-12-3.3h-.1L102 280.8v-33.4c0-4.9-4-8.8-8.8-8.8-4.9 0-8.8 4-8.8 8.8v33.4l-28.9-16.7c-4.3-2.3-9.7-.6-11.9 3.7-2.2 4.1-.8 9.2 3.1 11.6l28.9 16.7-28.9 16.7c-4.2 2.5-5.6 7.9-3.2 12.1 2.4 4.2 7.8 5.6 12 3.2l28.9-16.7v33.4c0 4.9 4 8.8 8.8 8.8 4.8 0 8.8-4 8.8-8.8zM408.6 355.9v-33.4l28.9 16.7c4.3 2.3 9.7.6 11.9-3.7 2.1-4.1.8-9.1-3.1-11.6l-28.9-16.7 28.9-16.7c4.2-2.4 5.7-7.8 3.3-12-2.4-4.2-7.8-5.7-12-3.3h-.1l-28.9 16.7v-33.4c0-4.9-4-8.8-8.8-8.8s-8.8 4-8.8 8.8v33.4l-29-16.7c-4.3-2.3-9.7-.6-11.9 3.7-2.2 4.1-.8 9.2 3.1 11.6l28.9 16.7-28.9 16.7c-4.2 2.5-5.6 7.9-3.2 12.1 2.4 4.2 7.8 5.6 12 3.2l28.9-16.7v33.4c0 4.9 4 8.8 8.8 8.8 4.9 0 8.9-3.9 8.9-8.8z"/></svg>