<svg version="1.1" id="prefix__图层_1" xmlns="http://www.w3.org/2000/svg" x="0" y="0" viewBox="0 0 500 500" xml:space="preserve"><style>.prefix__st1{fill:#a67c52}.prefix__st2{fill:#ccc}</style><circle cx="189.6" cy="89" r="29.2" fill="#c7b299"/><circle class="prefix__st1" cx="425.9" cy="196.5" r="29.2"/><circle class="prefix__st1" cx="128.4" cy="387.4" r="38.2"/><circle class="prefix__st2" cx="272.4" cy="129.6" r="21.9"/><path d="M250.8 344.5c-14 0-25.4 11.4-25.4 25.4 0 14 11.4 25.4 25.4 25.4 14 0 25.4-11.4 25.4-25.4 0-14.1-11.4-25.4-25.4-25.4z" fill="#c69c6d"/><path d="M390.3 136c0-50.1-38.1-90.9-84.9-90.9H270c-11.3 0-20.4 9.1-20.4 20.4S258.7 86 270 86h35.4c24.3 0 44 22.4 44 50s-19.7 50-44 50H65.3c-11.3 0-20.4 9.1-20.4 20.4 0 11.3 9.1 20.4 20.4 20.4h240.1c46.8 0 84.9-40.8 84.9-90.8z" fill="#e6e6e6"/><path class="prefix__st2" d="M350.9 267.8H93.1c-11.3 0-20.4 9.1-20.5 20.4s9.1 20.4 20.4 20.5h257.8c26.9 0 48.8 23.6 48.8 52.7 0 29-21.9 52.7-48.8 52.7h-38c-11.3 0-20.4 9.1-20.5 20.4 0 11.3 9.1 20.4 20.4 20.5h38c49.4 0 89.7-42 89.7-93.6.1-51.6-40.1-93.6-89.5-93.6z"/></svg>