<svg version="1.1" id="prefix__图层_1" xmlns="http://www.w3.org/2000/svg" x="0" y="0" viewBox="0 0 500 500" xml:space="preserve"><style>.prefix__st1{fill:#f15a24}.prefix__st2{fill:#f7931e}.prefix__st3{fill:#1088e2}.prefix__st4{fill:#0391ff}.prefix__st5{fill:#0396ff}.prefix__st6{fill:#3fa9f5}.prefix__st7{fill:#abdcff}.prefix__st9{fill:#7ac943}</style><path d="M227.2 397.3c3.6-7.7.3-13.9-7.4-13.9-1.9 0-3.9.4-5.9 1.1 5.2-13.1-.8-23.4-14.1-23.4-13.8 0-30.3 11.2-36.8 25.1l-.3.6c-.7-.1-1.4-.2-2.2-.2-6.8 0-14.9 5.5-18.1 12.4-3.2 6.8-.2 12.4 6.6 12.4h58.9v-.1c7.4-.7 15.9-6.7 19.3-14z" fill="#5ac982"/><path class="prefix__st1" d="M170.2 70.1L63.3 406.6l.9.3c9.7 3.1 20.1-2.3 23.1-12.1L187.8 75.6l-17.6-5.5z"/><path class="prefix__st2" d="M152.6 64.6L52.2 383.9c-3 9.4 2 19.4 11.1 22.8L170.2 70.1l-17.6-5.5z"/><path class="prefix__st3" d="M187.4 75.9l-66.8 212.4 49-24.9 55.2-174.8z"/><path class="prefix__st4" d="M224.8 88.6l-55.2 174.8 50.8-25.8 42.9-135.9z"/><path class="prefix__st5" d="M263.3 101.7l-42.9 135.9 51.3-26 30.5-96.7z"/><path class="prefix__st6" d="M302.2 114.9l-30.5 96.7 61.1-31.1 15.7-49.8z"/><path class="prefix__st7" d="M366.2 136.7l-17.7-6-15.7 49.8 35.3-17.9c11.1-5.6 9.9-21.9-1.9-25.9z"/><g><path class="prefix__st1" d="M340.2 224L282 407.2c.2.1.3.1.5.2 5.3 1.7 10.9-1.3 12.6-6.6L349.8 227l-9.6-3z"/><path class="prefix__st2" d="M330.6 221L276 394.8c-1.6 5.1 1.1 10.6 6.1 12.4L340.2 224l-9.6-3z"/><path class="prefix__st3" d="M349.6 227.1l-36.4 115.6 26.7-13.5 30-95.1z"/><path class="prefix__st4" d="M369.9 234.1l-30 95.1 27.6-14 23.3-74z"/><path class="prefix__st5" d="M390.8 241.2l-23.3 74 27.9-14.2 16.6-52.6z"/><path class="prefix__st6" d="M412 248.4L395.4 301l33.3-16.9 8.5-27.1z"/><path class="prefix__st7" d="M446.9 260.3l-9.7-3.3-8.6 27.1 19.2-9.8c6.1-3 5.5-11.9-.9-14z"/></g><path d="M473.9 435.4H26.1c0-13.4 10.8-24.2 24.2-24.2h399.3c13.4 0 24.3 10.9 24.3 24.2z" fill="#a67c52"/><path class="prefix__st9" d="M186.3 397.3c3.6-7.7.3-13.9-7.4-13.9-1.9 0-3.9.4-5.9 1.1 5.2-13.1-.8-23.4-14.1-23.4-13.8 0-30.3 11.2-36.8 25.1l-.3.6c-.7-.1-1.4-.2-2.2-.2-6.8 0-14.9 5.5-18.1 12.4-3.2 6.8-.2 12.4 6.6 12.4H167v-.1c7.5-.7 15.9-6.7 19.3-14zM428.5 397.3c3.6-7.7.3-13.9-7.4-13.9-1.9 0-3.9.4-5.9 1.1 5.2-13.1-.8-23.4-14.1-23.4-13.8 0-30.3 11.2-36.8 25.1l-.3.6c-.7-.1-1.4-.2-2.2-.2-6.8 0-14.9 5.5-18.1 12.4-3.2 6.8-.2 12.4 6.6 12.4h58.9v-.1c7.4-.7 15.9-6.7 19.3-14z"/></svg>