<svg xmlns="http://www.w3.org/2000/svg" viewBox="0 0 500 500"><path d="M241.1 347.6V210.8c0-4.9-4-8.9-8.9-8.9s-8.9 4-8.9 8.9v136.8c-8.1 3.4-13.9 11.5-13.9 21 0 12.6 10.2 22.8 22.8 22.8 12.6 0 22.8-10.2 22.8-22.8.1-9.5-5.7-17.6-13.9-21z" fill="#ff6464"/><path d="M272 314.7V100.5c0-18.8-15.2-34-34-34h-11.4c-18.8 0-34 15.2-34 34v214.2c-16 12.1-26.3 31.2-26.3 52.8 0 36.4 29.6 66 66 66s66-29.6 66-66c0-21.5-10.3-40.6-26.3-52.8zm-39.8 104.1c-28.3 0-51.2-22.9-51.2-51.2 0-12.4 4.4-23.7 11.7-32.6 4-4.9 9-9 14.7-12.1V100.5c0-10.7 8.6-19.2 19.2-19.2H238c10.7 0 19.2 8.6 19.2 19.2V112h-13.3c-2.1 0-3.9 1.8-3.9 3.8 0 2.1 1.8 3.9 3.9 3.9h13.3v20.9h-13.3c-2.1 0-3.9 1.8-3.9 3.8 0 2.1 1.8 3.8 3.9 3.8h13.3v20.9h-12.9c-2.1 0-3.8 1.8-3.8 3.9 0 2.1 1.8 3.8 3.8 3.8h12.9v145.8c5.6 3.1 10.5 7.3 14.7 12.1 7.3 8.9 11.7 20.3 11.7 32.6-.1 28.6-23.1 51.5-51.4 51.5z" fill-rule="evenodd" clip-rule="evenodd" fill="#707070"/><path d="M415.7 172.3c-8 3.5-13.2 9.1-16.3 15.1-2.4 4.6-9.2 4.1-10.7-.9-4.1-13.3-3.6-27.8-1-45.5.7-4.5-3.9-8-8.1-6.2-26.8 11.9-33.3 38.1-35.7 58.3-.8 6.7-10.4 6.9-11.5.3-.2-1.4-.4-2.8-.6-4.1-.6-4.8-6.5-6.8-9.9-3.4-7.9 7.8-12.7 20.1-13.9 30.8-3.9 35.1 21.6 63.9 55.7 67.6 34 3.7 63.7-18.9 67.6-54.1 2.1-18.9-8.8-27.6-7.1-52.1 0-4.4-4.5-7.5-8.5-5.8z" fill="#ff7b15"/><path d="M384.7 238.3c-2.5 1.1-4.1 2.9-5.2 4.7-.9 1.6-3.3 1.4-3.9-.4-1.3-4.3-1.1-9-.3-14.7.2-1.6-1.4-2.9-2.9-2.2-8.4 3.9-10.8 12-11.6 18.6-.3 2.4-3.8 2.4-4.1 0v-.1c-.2-1.7-2.4-2.4-3.6-1.2-2.5 2.6-4.1 6.6-4.5 10.1-1.3 11.8 7.3 21.4 18.7 22.7 11.4 1.3 21.4-6.4 22.7-18.2.7-6.3-2.9-9.2-2.4-17.3.1-1.5-1.5-2.6-2.9-2z" fill="#fb9b3b"/></svg>