<svg xmlns="http://www.w3.org/2000/svg" viewBox="0 0 500 500"><style>.prefix__st0{fill:#abdcff}.prefix__st1{fill:#0396ff}</style><path class="prefix__st0" d="M212.5 380.4l28.3 59.7 29.5-59.7-29.5-31.8z"/><path class="prefix__st1" d="M283.9 324.1l34.5 72.8 35.9-72.8-35.9-38.7z"/><path class="prefix__st0" d="M367.9 380.4l28.3 59.7 29.5-59.7-29.5-31.8z"/><path d="M194.9 40.4l-134 422c.4.1.8.3 1.2.4 12.2 3.8 25.1-2.9 29-15.1L217 47.4l-22.1-7z" fill="#f15a24"/><path d="M172.9 33.5L47 433.8c-3.7 11.8 2.5 24.3 14 28.6l134-422-22.1-6.9z" fill="#f7931e"/><path fill="#1088e2" d="M216.5 47.6L132.8 314l61.4-31.3 69.1-219.1z"/><path fill="#0391ff" d="M263.3 63.6l-69.1 219.1 63.7-32.3L311.6 80z"/><path class="prefix__st1" d="M311.6 80l-53.7 170.4 64.3-32.6 38.2-121.2z"/><path fill="#3fa9f5" d="M360.4 96.6l-38.2 121.2 76.6-38.9 19.7-62.5z"/><path class="prefix__st0" d="M440.7 124l-22.2-7.6-19.7 62.5 44.2-22.5c14-7.1 12.5-27.4-2.3-32.4z"/></svg>