<svg xmlns="http://www.w3.org/2000/svg" viewBox="0 0 500 500"><path d="M273.9 75.1c-59.4-7.1-94.5-.9-109.5 6.2-29.7 11.3-45.6 29.1-45.6 54.4 0 28.1 32.5 51 72.6 51 4.2 0 8.1-.3 12.1-.7-21-5-28.7-25.8-28.7-32.4 0-15.5 9.3-31.3 36.4-35.8 0 0 21.8-5.6 61.7 2.8 56.4 16.3 72.9 35.9 88.1 65.7 19 47.2 2.9 110-27.4 145.6-57.9 68-201.3 90.1-201.3 90.1C278 394.7 343.1 330.1 356 246.5c8.4-110.9-127.1-137.1-148.3-68.4 18.8-12.8 39.4-10.1 59.9-3.5 47.3 25.1 40.6 64.7 36.3 86.4-9.6 49.1-47.3 96.7-102.6 125.7C143.2 412 66.7 423.6 41 428h156.4c13-.6 68.9-3.3 98.9-11.9C378.1 392.7 459 336.6 459 245.9c0-90.9-91.1-159.5-185.1-170.8z" fill="#3fa9f5"/><path d="M118.1 391.2c-17 10.4-75.5 30.5-75.5 30.5s54.2-3.8 98.1-18.4c39.4-13.1 58-26.6 76.4-47.6 16.8-19.1 32.8-77.5-26.7-105.4-34.6-16.2-82.7-16.6-102.5 3.1-23.6 23.4-5.3 43.8-5.3 43.8s7-18.7 30.2-21.9c6.2-.9 30.1.2 42.7 8.9 9.4 6.6 24.5 18.3 16 48.3-6.5 22.8-23.5 40.4-53.4 58.7z" fill="#abdcff"/></svg>