<svg xmlns="http://www.w3.org/2000/svg" viewBox="0 0 500 500"><path d="M456.4 195.2c-3-6.9-10.9-10.1-17.9-7.2-1 .4-8.5 3.6-20 9-8-4.8-17.6-10.6-27.8-17.2 8.5-4.1 13.9-6.5 14-6.6 6.9-3.1 10-11.1 6.9-18s-11.1-10-18-6.9c-9.7 4.4-19.3 9-28.8 13.8-7.7-5.5-15.3-11.2-22.6-17.1l-3.7-3.1 11.3-5.8c6.6-3.6 9-11.9 5.4-18.5-3.5-6.3-11.2-8.8-17.7-5.8-1 .5-9.3 4.7-21.3 11-11.6-10.1-23.1-20.4-34.4-30.9 7.7-7.3 12.5-12.3 13.1-12.9 5-5.6 4.5-14.2-1.1-19.2-5.4-4.8-13.5-4.6-18.6.5-.1.2-5.1 5.2-13.2 12.9-2-1.9-3.9-3.8-5.9-5.7-5.3-5.3-13.9-5.4-19.2-.1-5.3 5.3-5.4 13.9-.1 19.2l.3.3 4.7 4.6c-12.1 10.5-24.5 20.6-37.3 30.3-6-3.6-12-7.1-18.1-10.4-6.6-3.5-14.9-1-18.4 5.6s-1 14.9 5.6 18.4c.1.1 2.7 1.5 6.8 3.8-2.9 2-5.6 4-8.5 5.9-7.2 4.8-14.8 9.5-22.5 14.2-9-5.7-15.3-9.6-16.1-10.1-6.6-3.6-14.9-1.2-18.5 5.4-3.4 6.2-1.5 14 4.4 17.9l3.4 2.1c-13.7 7.6-27 14.4-38.3 20.1l-7.3-4.3c-6.5-3.7-14.7-1.5-18.5 5 0 0 0 .1-.1.1-2.1 3.7-2.2 8.2-.5 12l-7.1 3.3c-7 2.9-10.3 10.8-7.4 17.8s10.8 10.3 17.8 7.4c.3-.1.6-.3.9-.4 1-.4 9-4.1 21-10 10.4 6.3 23.9 14.8 38.1 24.3-10.6 9-17.2 15-17.9 15.6-5.3 5.3-5.4 13.9-.1 19.2 5 5.1 13.1 5.4 18.5.8.2-.2 8.8-7.9 22.7-19.6 5.4 3.9 10.7 7.9 15.7 11.8 7 5.5 13.6 10.8 19.9 16.1-9.6 10.6-15.7 18.1-16.4 18.9-4.9 5.7-4.3 14.3 1.4 19.2 5.7 4.9 14.3 4.3 19.2-1.4.2-.2.4-.5.6-.8.2-.2 6.2-7.6 16-18.3 8.6 7.6 16.4 14.6 22.9 20.7-9.8 9.4-16.4 16.1-17.1 16.8-5.2 5.4-5 14.1.5 19.2 5.3 5.1 13.7 5 19-.2.2-.2 6.9-7 17.3-16.9l4.9 5c5.1 5.4 13.6 5.7 19.1.6l.1-.1c5.5-5.2 5.7-13.8.6-19.2l-4.8-4.9c7.8-7.1 16.2-14.7 25.2-22.3 7.3 7.8 11.5 12.7 11.6 12.8 4.9 5.7 13.5 6.4 19.2 1.5 5.7-4.9 6.4-13.5 1.5-19.2-.5-.5-4.6-5.3-11.3-12.5 10.7-8.7 22-16.8 33.6-24.2 9.1 9.6 14.3 15.6 14.5 15.8 4.9 5.6 13.5 6.2 19.2 1.3 5.7-4.9 6.3-13.5 1.3-19.2-.5-.5-4.7-5.3-11.3-12.4 18-10.3 35.8-19.5 50.4-26.5 6.2 3.5 10.1 5.7 10.7 6 6.6 3.6 14.8 1.2 18.4-5.4 2.3-4.4 2-9.7-.7-13.8l3.5-1.5c6.9-2.9 10.1-10.8 7.2-17.7.1.2.1.1.1.1zm-131.3-29.1c4.2 3.4 8.5 6.7 12.9 10-10.1 5.4-21.3 11.7-33.1 18.6-5.2-4.5-10.4-9-15.9-13.4-3.3-2.7-6.5-5.1-9.7-7.6 11.4-6.3 22.9-12.5 33.3-18 4.2 3.5 8.3 7 12.5 10.4zm-92.2 53.2c-4.1-3.5-8.2-6.8-12.4-10.1 4-2.7 7.8-5.4 11.9-8 6.1-4 13.4-8.4 21.3-13 5.9 4.5 12 9.2 18.1 14.2 2.9 2.4 5.6 4.7 8.4 7.1-2.6 1.6-5 3-7.6 4.6-8.8 5.6-17.3 11.6-25.4 17.9-4.7-4.3-9.5-8.5-14.3-12.7zm28.9-108.9c8.3 7.7 18 16.7 28.8 26.2-11.2 6-23.3 12.6-34.9 19.2-9.5-6.9-18.4-13-26.4-18.3 12.3-9.8 23.2-18.9 32.5-27.1zm-74.7 57.5c6.5-4.4 12.7-8.7 18.8-13.1 7.1 4.6 15.2 10 23.9 16-4.3 2.6-8.4 5.1-12.1 7.5-6.9 4.5-13.6 9.1-20.1 13.6-7.6-5.4-15.2-10.7-22.9-15.9 4.1-2.7 8.3-5.3 12.4-8.1zm-75.3 43.6c11.5-6 24.2-12.8 36.9-20.1 7.8 5.1 16.4 10.9 25.3 17.1-11.5 8.4-21.6 16.3-30.7 23.6-10.4-7-20.9-13.9-31.5-20.6zm54.6 37.1c10.1-7.9 20.4-15.6 30.8-23.1 6.4 4.9 12.5 9.7 18 14.4 3.8 3.2 7.2 6.4 10.7 9.5-9.9 8.5-18.9 17-26.9 25-7.2-6-14.6-12-22-17.8-3.4-2.6-7.1-5.3-10.6-8zm77.3 65.2c-6.7-6.3-14.8-13.6-23.8-21.6 7.9-7.8 16.6-16 26.2-24.3 8.8 8.3 16.6 15.9 23.5 22.9-9.3 7.9-18 15.7-25.9 23zm46.9-40.5c-7.6-7.7-15.3-15.2-23.1-22.7 6.4-4.7 12.9-9.3 19.6-13.5 5-3.1 9.8-6 14.6-8.9 8 7.3 15.3 14.3 21.9 20.8-11.3 7.6-22.4 15.7-33 24.3zm56.8-39.1c-6.9-6.9-14-13.7-21.1-20.4 12.1-6.9 24.2-13.5 36.5-19.9 9.3 6.3 18.4 12.2 26.7 17.3-13.1 6.7-27.7 14.5-42.1 23z" fill="#ccc"/><path d="M186.5 374.4c-47.1-14.7-90.7 1.8-125.3 31.3 0 0 68.8 77.6 169.4 10.9l29.3 24.7v-67.5L232 397.3c-13.8-8.1-34.3-19.5-45.5-22.9zm-79.8 33.8c0 4.7-3.8 8.5-8.5 8.5s-8.5-3.8-8.5-8.5 3.8-8.5 8.5-8.5c4.7.1 8.5 3.9 8.5 8.5z" fill="#ff7200"/><path d="M392.6 361.1c-33.7-10.5-65 1.3-89.7 22.4 0 0 49.3 55.5 121.3 7.8l21 17.7v-48.4l-20 16.8c-9.9-5.7-24.6-13.8-32.6-16.3zm-52.3 22.8c0 3.4-2.8 6.2-6.2 6.2-3.4 0-6.2-2.8-6.2-6.2 0-3.4 2.8-6.2 6.2-6.2 3.4 0 6.2 2.8 6.2 6.2z" fill="#f7931e"/></svg>