<svg xmlns="http://www.w3.org/2000/svg" viewBox="0 0 500 500"><style>.prefix__st1{fill-rule:evenodd;clip-rule:evenodd;fill:#abdcff}</style><path d="M250 25.5S100.3 242.1 100.3 324.9s67 149.7 149.7 149.7 149.7-66.9 149.7-149.7S250 25.5 250 25.5z" fill-rule="evenodd" clip-rule="evenodd" fill="#3fa9f5"/><path class="prefix__st1" d="M361.5 371.8c-14.9.3-23.5 3-55.3 13.2l-4.5 1.4c-21.7 8.7-39.8 13.4-50.8 13.4-18.5 0-49-12.8-49.3-12.9l-6.2-2c-33.3-10.7-41.2-13.2-54.6-13.4-10.4 0-20.8 1.5-31.6 4.4 20.9 57.5 76 98.5 140.7 98.5 64.8 0 120-41.1 140.8-98.7-9.5-2.4-19.3-3.7-29.2-3.9zM238.3 249.6c0 16.8-13.6 30.4-30.4 30.4s-30.4-13.6-30.4-30.4 13.6-30.4 30.4-30.4 30.4 13.7 30.4 30.4zm-30.4-16.5c-9.1 0-16.6 7.4-16.6 16.6s7.4 16.6 16.6 16.6c9.1 0 16.6-7.4 16.6-16.6s-7.5-16.6-16.6-16.6zM322.5 319.8c0 16.8-13.6 30.4-30.4 30.4-16.8 0-30.4-13.6-30.4-30.4 0-16.8 13.6-30.4 30.4-30.4 16.8 0 30.4 13.6 30.4 30.4zm-30.4-16.6c-9.1 0-16.6 7.4-16.6 16.6s7.4 16.6 16.6 16.6 16.6-7.4 16.6-16.6-7.4-16.6-16.6-16.6zM189.1 346.4c-5-5-5-13.2 0-18.2l103.6-103.6c5-5 13.2-5 18.2 0s5 13.2 0 18.2L207.3 346.4c-5 5-13.2 5-18.2 0z"/></svg>