<svg version="1.1" id="prefix__图层_1" xmlns="http://www.w3.org/2000/svg" x="0" y="0" viewBox="0 0 500 500" xml:space="preserve"><style>.prefix__st0{fill:#4fc0f2}</style><path class="prefix__st0" d="M266.2 397.6c0 12.7 10.1 23 22.5 23s22.5-10.3 22.5-23-22.5-48.4-22.5-48.4-22.5 35.7-22.5 48.4z"/><path d="M388.6 158.2h-.4c-4.1-44.2-41.2-78.8-86.5-78.8-48 0-86.9 38.9-86.9 86.9 0 46.4 36.4 84.3 82.2 86.8v.1h91.6c26.2 0 47.5-21.3 47.5-47.5s-21.3-47.5-47.5-47.5z" fill="#e3e3e3"/><path d="M334.9 182.5c-14-47.8-58.1-82.7-110.5-82.7-62.8 0-113.9 50.4-115.1 112.9-29.2 3.4-51.9 28.3-51.9 58.5 0 32.5 26.4 58.9 58.9 58.9h209.8c40.9 0 74-33.1 74-74 0-38-28.5-69.3-65.2-73.6z" fill="#f6f6f6"/><path d="M411.4 143.6l47.1 81.6c7.2 12.4-1.8 28-16.2 28H348c-14.4 0-23.3-15.6-16.2-28l47.1-81.6c7.4-12.5 25.4-12.5 32.5 0zm-16.1 80.8c-2.8 0-5.1 2.3-5.1 5.1s2.3 5.1 5.1 5.1 5.1-2.3 5.1-5.1-2.3-5.1-5.1-5.1zm6-51.1c0-3.3-2.7-6.1-6.1-6.1-3.3 0-6.1 2.7-6.1 6.1v.7l2.5 40.4c0 1.9 1.6 3.5 3.5 3.5s3.5-1.6 3.5-3.5l2.5-40.4c.2-.2.2-.4.2-.7z" fill="#f15a24"/><path class="prefix__st0" d="M350.3 397.6c0 12.7 10.1 23 22.5 23s22.5-10.3 22.5-23-22.5-48.4-22.5-48.4-22.5 35.7-22.5 48.4zM182.1 397.6c0 12.7 10.1 23 22.5 23s22.5-10.3 22.5-23-22.5-48.4-22.5-48.4-22.5 35.7-22.5 48.4zM98.1 397.6c0 12.7 10.1 23 22.5 23s22.5-10.3 22.5-23-22.5-48.4-22.5-48.4-22.5 35.7-22.5 48.4z"/></svg>