<svg xmlns="http://www.w3.org/2000/svg" viewBox="0 0 500 500"><style>.prefix__st2{fill:#3fa9f5}</style><path d="M379.9 73.9l61.7 106.9c7.2 12.4-1.8 28-16.2 28H302c-14.4 0-23.3-15.6-16.2-28l61.7-106.9c7.2-12.4 25.2-12.4 32.4 0zm-16.2 100.8c-3.3 0-6 2.7-6 6s2.7 6 6 6 6-2.7 6-6-2.7-6-6-6zm7.2-60.4c0-4-3.2-7.2-7.2-7.2s-7.2 3.2-7.2 7.2c0 .3 0 .6.1.9l2.9 47.9c0 2.3 1.9 4.2 4.2 4.2s4.2-1.9 4.2-4.2l2.9-47.9c.1-.3.1-.6.1-.9z" fill="#f15a24"/><path d="M277.1 368.1l-10.3-24.5c-12.2 5.2-21.6 15.5-25.7 28.1l25.2 8.4c1.7-5.4 5.7-9.7 10.8-12zm26.2 12l25.2-8.4c-4.5-13.9-15.4-24.9-29.2-29.5l-8.4 25.2c5.9 2.1 10.5 6.8 12.4 12.7zm-36.2 13.6L242.6 404c4.7 11 13.5 19.7 24.5 24.3l10.3-24.5c-4.6-1.9-8.3-5.6-10.3-10.1zm23.6 10.6l8.4 25.2c12.6-4.1 22.8-13.5 28-25.6l-24.5-10.3c-2.3 5.1-6.6 9-11.9 10.7zm0 0" fill="#ed1c24"/><path class="prefix__st2" d="M441.4 367.7c-1.8 0-2.7-1-4.6-3.7-1.8-2.6-4.3-6.1-9.2-6.1s-7.4 3.5-9.2 6.1c-1.9 2.6-2.8 3.7-4.6 3.7s-2.7-1-4.6-3.7c-1.8-2.6-4.3-6.1-9.2-6.1-4.9 0-7.4 3.5-9.2 6.1-1.9 2.6-2.8 3.7-4.6 3.7-1.8 0-2.7-1-4.6-3.7-1.8-2.6-4.3-6.1-9.2-6.1-1.6 0-2.9 1.3-2.9 2.9 0 1.6 1.3 2.9 2.9 2.9 1.8 0 2.7 1 4.6 3.7 1.8 2.6 4.3 6.1 9.2 6.1 4.9 0 7.4-3.5 9.2-6.1 1.9-2.6 2.8-3.7 4.6-3.7 1.8 0 2.7 1 4.6 3.7 1.8 2.6 4.3 6.1 9.2 6.1 4.9 0 7.4-3.5 9.2-6.1 1.9-2.6 2.8-3.7 4.6-3.7 1.8 0 2.7 1 4.6 3.7 1.8 2.6 4.3 6.1 9.2 6.1 1.6 0 2.9-1.3 2.9-2.9 0-1.6-1.3-2.9-2.9-2.9zM372.6 345.7c1.8 0 2.7 1 4.6 3.7 1.8 2.6 4.3 6.1 9.2 6.1 4.9 0 7.4-3.5 9.2-6.1 1.9-2.6 2.8-3.7 4.6-3.7 1.8 0 2.7 1 4.6 3.7 1.8 2.6 4.3 6.1 9.2 6.1 4.9 0 7.4-3.5 9.2-6.1 1.9-2.6 2.8-3.7 4.6-3.7 1.8 0 2.7 1 4.6 3.7 1.8 2.6 4.3 6.1 9.2 6.1 1.6 0 2.9-1.3 2.9-2.9 0-1.6-1.3-2.9-2.9-2.9-1.8 0-2.7-1-4.6-3.7-1.8-2.6-4.3-6.1-9.2-6.1s-7.4 3.5-9.2 6.1c-1.9 2.6-2.8 3.7-4.6 3.7s-2.7-1-4.6-3.7c-1.8-2.6-4.3-6.1-9.2-6.1-4.9 0-7.4 3.5-9.2 6.1-1.9 2.6-2.8 3.7-4.6 3.7-1.8 0-2.7-1-4.6-3.7-1.8-2.6-4.3-6.1-9.2-6.1-1.6 0-2.9 1.3-2.9 2.9 0 1.6 1.3 2.9 2.9 2.9zM341 290c-1.3 0-2.1-1.1-3.7-3.5-1.6-2.6-3.9-6.2-8.5-6.2s-6.9 3.6-8.5 6.2c-1.5 2.5-2.3 3.5-3.7 3.5-1.3 0-2.1-1.1-3.7-3.5-1.7-2.6-3.9-6.2-8.5-6.2s-6.9 3.6-8.5 6.2c-1.5 2.5-2.3 3.5-3.7 3.5s-2.1-1.1-3.7-3.5c-1.6-2.6-3.9-6.2-8.5-6.2-1.6 0-2.9 1.3-2.9 2.9 0 1.6 1.3 2.9 2.9 2.9 1.3 0 2.1 1.1 3.7 3.5 1.6 2.6 3.9 6.2 8.5 6.2s6.9-3.6 8.5-6.2c1.5-2.5 2.3-3.5 3.7-3.5 1.3 0 2.1 1.1 3.7 3.5 1.6 2.6 3.9 6.2 8.5 6.2s6.9-3.6 8.5-6.2c1.5-2.5 2.3-3.5 3.7-3.5 1.3 0 2.1 1.1 3.7 3.5 1.6 2.6 3.9 6.2 8.5 6.2 1.6 0 2.9-1.3 2.9-2.9-.1-1.6-1.3-2.9-2.9-2.9zM348.8 272.1c-1.8 0-2.7-1-4.6-3.7-1.8-2.6-4.3-6.1-9.2-6.1-4.9 0-7.4 3.5-9.2 6.1-1.9 2.6-2.8 3.7-4.6 3.7-1.8 0-2.7-1-4.6-3.7-1.8-2.6-4.3-6.1-9.2-6.1s-7.4 3.5-9.2 6.1c-1.9 2.6-2.8 3.7-4.6 3.7-1.8 0-2.7-1-4.6-3.7-1.8-2.6-4.3-6.1-9.2-6.1-1.6 0-2.9 1.3-2.9 2.9 0 1.6 1.3 2.9 2.9 2.9 1.8 0 2.7 1 4.6 3.7 1.8 2.6 4.3 6.1 9.2 6.1 4.9 0 7.4-3.5 9.2-6.1 1.9-2.6 2.8-3.7 4.6-3.7 1.8 0 2.7 1 4.6 3.7 1.8 2.6 4.3 6.1 9.2 6.1 4.9 0 7.4-3.5 9.2-6.1 1.9-2.6 2.8-3.7 4.6-3.7 1.8 0 2.7 1 4.6 3.7 1.8 2.6 4.3 6.1 9.2 6.1 1.6 0 2.9-1.3 2.9-2.9 0-1.6-1.3-2.9-2.9-2.9z"/><path d="M331.6 432.5h-234c-16.1 0-29.3-13.2-29.3-29.3v-.2c0-2.7 2.2-4.9 4.9-4.9h282.6c2.7 0 4.9 2.2 4.9 4.9v.2c.1 16.1-13.1 29.3-29.1 29.3zm0 0" fill="#feb692"/><path d="M215.3 125.7c-23.5 9.2-45 22.4-63.7 38.8l63.7 17.1v-55.9zm0 0" fill="#fd6585"/><path d="M76.9 328.9c0 15.6 1.6 30.8 4.8 45.5h133.6v-50.7l-134.5-36c-2.6 13.4-3.9 27.1-3.9 41.2zm0 0" fill="#fdd819"/><path d="M117.2 202.5l98.1 26.3v-47.2l-63.7-17.1c-12.9 11.2-24.5 24-34.4 38zm0 0" fill="#f7afff"/><path d="M94.1 243.8l121.2 32.5V229L117 202.7c-9 12.7-16.7 26.5-22.9 41.1zm0 0" fill="#6096ff"/><path d="M94.1 243.8c-5.9 13.9-10.4 28.7-13.3 44l134.5 36v-47.5L94.1 243.8zm0 0" fill="#3cd500"/><path d="M212.1 130.2c-19.6 8.2-37.8 19.3-54.2 32.9l26.1 7c6.6-3.2 24.8-22.2 28.1-39.9zM105 330.3c0-6.4-1.8-20.2.6-33.1l-22.2-6c-2.2 12.3-3.3 25-3.3 37.6 0 14.3 1.4 28.7 4.2 42.7h9.4c8.1-11.4 11.3-29 11.3-41.2zm70.4-156.6l-22.7-6.1c-11.3 10-21.4 21.1-30.4 33.2l20.9 5.6c.4-6.7 1.4-12.9 3.2-17.6 4.2-11.2 15.6-10.2 29-15.1zm-77 68.2l33.6 9c2.3-1.7 10.9-6.3 10.9-38.4l-24.3-6.5c-7.9 11.3-14.7 23.3-20.2 35.9zm8.3 49.7c1.1-5.1-1.5-21 18.7-36.6l-29.3-7.9c-5.1 12.4-9 25.3-11.7 38.4l22.3 6.1zm0 0" fill="#fff"/><path d="M363.7 402.9v-.2c0-4.3-3.5-7.8-7.8-7.8h-23.2c.5-2.9.8-5.9.8-9 0-5.1-.8-10.1-2.4-15-4.8-14.7-16.3-26.4-31-31.3-4.9-1.6-10.1-2.5-15.3-2.5-6.6 0-13 1.3-19.1 3.9-2.9 1.2-5.6 2.7-8.1 4.4l-39.2-164.5c0-.1-.1-.3-.1-.4v-54c0-.3 0-.6-.1-.9 0-.9-.5-1.8-1.3-2.3-.8-.5-1.8-.6-2.7-.3-23.6 9.3-45.3 22.5-64.5 39.3-13.1 11.4-24.8 24.4-34.8 38.5 0 0 0 .1-.1.1 0 0 0 .1-.1.1-9.2 13-17 27-23.2 41.7C85.4 257 80.9 272 78 287.2c-2.6 13.7-3.9 27.7-3.9 41.7 0 15.5 1.6 31 4.8 46.1.3 1.3 1.4 2.3 2.8 2.3h130.9v17.6H73.3c-4.3 0-7.8 3.5-7.8 7.8v.2c0 11.1 5.7 21 14.4 26.8H58.6c-1.6 0-2.9 1.3-2.9 2.9 0 1.6 1.3 2.9 2.9 2.9H354c1.6 0 2.9-1.3 2.9-2.9 0-1.6-1.3-2.9-2.9-2.9h-4.7c8.7-5.8 14.4-15.7 14.4-26.8zm-35.9-17c0 3-.3 6-.9 9h-14.1l-6.6-2.8c.6-2 .9-4.1.9-6.2 0-1.3-.1-2.6-.3-3.9l12-4 7.9-2.6c.7 3.5 1.1 7 1.1 10.5zM301 346.1c10.8 4.4 19.4 13.1 23.7 23.9l-17.4 5.7-2.4.8c-2.2-4.7-5.9-8.4-10.5-10.6l6.6-19.8zm.3 39.8c0 2.3-.5 4.5-1.4 6.6-.4.8-.8 1.6-1.3 2.3H271c-.5-.8-.9-1.5-1.3-2.3-.9-2.1-1.4-4.3-1.4-6.6 0-1.7.3-3.3.8-4.9 1.4-4.6 4.8-8.3 9.2-10.2 2.1-.9 4.3-1.4 6.6-1.4 1.8 0 3.5.3 5.2.9 5 1.7 9 5.7 10.5 10.7.4 1.6.7 3.2.7 4.9zm-16.5-43c3.7 0 7.3.5 10.8 1.4l-6.6 19.8c-1.4-.3-2.8-.4-4.2-.4-2.1 0-4.1.3-6.1.9l-8.1-19.3c4.6-1.6 9.3-2.4 14.2-2.4zm-27.3 9.8c.1-.1.2-.1.3-.2 2.3-1.9 4.9-3.5 7.6-4.9l8.1 19.3c-3.9 2.3-6.9 5.7-8.8 9.7l-19.8-6.6c2.6-6.8 7-12.8 12.6-17.3zm5.9 39.4l-6.6 2.8h-14.1c-.6-2.9-.9-5.9-.9-9 0-3.5.4-7.1 1.3-10.5l15.8 5.2 4.1 1.4c-.2 1.3-.3 2.6-.3 3.9-.1 2.1.2 4.2.7 6.2zm-51-20.6H84c-2.8-14-4.2-28.3-4.2-42.7 0-12.6 1.1-25.2 3.3-37.6L212.4 326v45.5zm0-51.5L84.1 285.6c2.7-13.1 6.6-26.1 11.7-38.4l116.6 31.3V320zm0-47.5l-28.5-7.6-85.8-23c5.6-12.5 12.3-24.6 20.2-35.9l94.2 25.2v41.3zm0-47.5L122 200.7c8.9-12.1 19.1-23.2 30.4-33.2l56.4 15.1 3.7 1V225zm0-47.3l-15.2-4.1-39.6-10.6c16.6-13.8 35-24.9 54.8-33.2v47.9zm5.9 27.3l34.4 144.2c-6.6 5.7-11.5 13.2-14.2 21.7-1.6 4.8-2.4 9.9-2.4 15 0 3 .3 6 .8 9h-18.6V205zm113.3 224.3h-234c-14.6 0-26.4-11.9-26.4-26.4v-.2c0-1.1.9-2.1 2.1-2.1h282.6c1.1 0 2.1.9 2.1 2.1v.2c0 14.5-11.9 26.4-26.4 26.4zm0 0"/></svg>