<svg xmlns="http://www.w3.org/2000/svg" viewBox="0 0 500 500"><path d="M335.7 58.3l82.8 143.4c7.2 12.4-1.8 28-16.2 28H236.7c-14.4 0-23.3-15.6-16.2-28l82.8-143.4c7.2-12.5 25.2-12.5 32.4 0zm-16.2 129.6c-4.1 0-7.3 3.3-7.3 7.3s3.3 7.3 7.3 7.3 7.3-3.3 7.3-7.3-3.2-7.3-7.3-7.3zm8.8-73.9c0-4.8-3.9-8.8-8.8-8.8s-8.8 3.9-8.8 8.8c0 .4 0 .7.1 1l3.6 58.6c0 2.8 2.3 5.1 5.1 5.1s5.1-2.3 5.1-5.1l3.6-58.6c.1-.3.1-.7.1-1z" fill="#f15a24"/><path fill="#f58502" d="M267.5 358.9L450.4 312l-322.1-68.9 70.8 59.9-179.5 47.8 261.8 100.3 199-37.4z"/></svg>