<svg xmlns="http://www.w3.org/2000/svg" viewBox="0 0 500 500"><style>.prefix__st2{fill:#e6e6e6}</style><path d="M327 320.8h-36c-1 0-1.8-.8-1.8-1.7 0-.4.1-.7.3-1l34.3-53c1.1-1.8.6-4.2-1.2-5.3-.6-.4-1.3-.6-2-.6H259c-2.7 0-5.3 1.5-6.6 3.9l-45.8 82.5c-1.5 2.7-.5 6 2.1 7.5.8.4 1.7.7 2.6.7h36.8c1 0 1.8.8 1.8 1.8 0 .2 0 .3-.1.5l-25.4 87.2L331 330c2.1-2.2 2-5.6-.2-7.7-1.1-1-2.4-1.5-3.8-1.5z" fill="#f7ad44"/><path d="M346.9 369c0 27.2 22 49.1 49.2 49.1 27.2 0 49.2-22 49.2-49.1s-49.2-98.3-49.2-98.3-49.2 71.1-49.2 98.3z" fill="#4fc0f2"/><path class="prefix__st2" d="M434.8 115.8H65.3c-16.3 0-29.5-13.2-29.5-29.5S49 56.8 65.3 56.8h369.5c16.3 0 29.5 13.2 29.5 29.5s-13.3 29.5-29.5 29.5zM434.8 232.7H65.3c-16.3 0-29.5-13.2-29.5-29.5s13.2-29.5 29.5-29.5h369.5c16.3 0 29.5 13.2 29.5 29.5s-13.3 29.5-29.5 29.5zM162.4 351H65.3c-16.3 0-29.5-13.2-29.5-29.5S49 292 65.3 292h97.2c16.3 0 29.5 13.2 29.5 29.5-.1 16.3-13.3 29.5-29.6 29.5z"/></svg>