<svg xmlns="http://www.w3.org/2000/svg" viewBox="0 0 500 500"><path fill="#f1f1f1" d="M396.7 443H216.1l41.5-113.5L420 373z"/><path d="M385.9 443z"/><path d="M292.5 394.2c1.6-5 7-7.8 12-6.2l48.1 15.5c5 1.6 7.8 7 6.2 12.1L350 443h-73.2l15.7-48.8z" fill="#c3c3c3"/><path d="M185 41.7l-134 422c.4.1.8.3 1.2.4 12.2 3.8 25.1-2.9 29-15.1L207.1 48.7l-22.1-7z" fill="#f15a24"/><path d="M163 34.8L37.1 435.1c-3.7 11.8 2.5 24.3 14 28.6l134-422-22.1-6.9z" fill="#f7931e"/><path fill="#1088e2" d="M206.7 49l-83.8 266.3 61.5-31.2 69.1-219.2z"/><path fill="#0391ff" d="M253.5 64.9l-69.1 219.2 63.6-32.4 53.7-170.4z"/><path fill="#0396ff" d="M301.7 81.3L248 251.7l64.3-32.6 38.2-121.2z"/><path fill="#3fa9f5" d="M350.5 97.9l-38.2 121.2 76.6-38.9 19.7-62.5z"/><path d="M430.9 125.3l-22.2-7.6-19.7 62.5 44.2-22.5c13.9-7.1 12.4-27.4-2.3-32.4z" fill="#abdcff"/><path d="M339.9 285.1l-100.3 27.1c-6.5 1.8-6.5 11.1 0 12.8l196.3 52.6c6.5 1.8 11.2-6.3 6.4-11.1l-73.4-73.6c-7.6-7.6-18.6-10.6-29-7.8z" fill="#d35b41"/><path d="M464 465.2H142.8c0-12.3 10-22.2 22.2-22.2h276.7c12.3 0 22.3 9.9 22.3 22.2z" fill="#754c24"/><path d="M252 429.1c3.6-7.7.3-13.9-7.4-13.9-1.9 0-3.9.4-5.9 1.1 5.2-13.1-.8-23.4-14.1-23.4-13.8 0-30.3 11.2-36.8 25.1l-.3.6c-.7-.1-1.4-.2-2.2-.2-6.8 0-14.9 5.5-18.1 12.4-3.2 6.8-.2 12.4 6.6 12.4h58.9v-.1c7.4-.7 15.8-6.7 19.3-14z" fill="#7ac943"/></svg>