<svg version="1.1" id="prefix__图层_1" xmlns="http://www.w3.org/2000/svg" x="0" y="0" viewBox="0 0 500 500" xml:space="preserve"><style>.prefix__st2{fill:gray}</style><path d="M426.7 192h-.5c-5.1-55.1-51.4-98.2-107.8-98.2-59.8 0-108.2 48.5-108.2 108.2 0 57.8 45.3 105 102.4 108.1v.2h114.1c32.7 0 59.2-26.5 59.2-59.2S459.4 192 426.7 192z" fill="#e3e3e3"/><path d="M359.8 222.3c-17.4-59.5-72.4-103-137.6-103-78.3 0-141.9 62.7-143.4 140.7-36.4 4.3-64.7 35.2-64.7 72.8 0 40.5 32.8 73.3 73.3 73.3h261.4c50.9 0 92.2-41.3 92.2-92.2.1-47.2-35.4-86.2-81.2-91.6z" fill="#f6f6f6"/><circle class="prefix__st2" cx="227.9" cy="348.1" r="10.6"/><path class="prefix__st2" d="M240.3 230.5c0-7-5.7-12.7-12.7-12.7s-12.7 5.7-12.7 12.7c0 .5 0 1 .1 1.5l5.2 84.7c0 4.1 3.3 7.4 7.4 7.4s7.4-3.3 7.4-7.4l5.2-84.7c.1-.4.1-1 .1-1.5z"/><path d="M472.2 162.2l-33.4-33.4c-4.3-4.3-11.4-4.3-15.7 0l-8.2 8.2 49.2 49.2 8.2-8.2c4.2-4.4 4.2-11.4-.1-15.8z" fill="#ed6024"/><path d="M331.9 276.1l57.5-15.4-49.2-49.2-15.4 57.5c-1.1 4.4 2.8 8.3 7.1 7.1z" fill="#ffba40"/><path d="M460.2 190L411 140.8l-66.4 66.4 49.2 49.2c-.1 0 66.4-66.4 66.4-66.4zm-87.6 30l51.2-51.2 8.4 8.4-51.2 51.3-8.4-8.5z" fill="#5dabe2"/></svg>