<svg xmlns="http://www.w3.org/2000/svg" viewBox="0 0 500 500"><style>.prefix__st0{fill:#a67c52}.prefix__st1{fill:#f2f2f2}.prefix__st2{fill:none;stroke:#e6e6e6;stroke-width:14;stroke-miterlimit:10}.prefix__st3{fill:#f7931e}.prefix__st4{fill:#fbb03b}.prefix__st5{fill:#4fc0f2}</style><path class="prefix__st0" d="M143.8 247.2l26.7 26.7c1.3 1.3 3.5 1.3 4.9 0l1.3-1.3c1.3-1.3 1.3-3.5 0-4.9L150 241c-1.3-1.3-3.5-1.3-4.9 0l-1.3 1.3c-1.3 1.4-1.3 3.6 0 4.9z"/><path class="prefix__st1" d="M356.4 331.7c0 53.4-53 67.4-106.4 67.4s-113.2-14.4-113.2-67.9S196 218.6 249.4 218.6s107 59.6 107 113.1z"/><path class="prefix__st1" d="M303 197.4c0 29.5-23.9 53.4-53.4 53.4-24.2 0-44.7-16.1-51.2-38.2-1.4-4.8-2.2-9.9-2.2-15.2 0-29.5 23.9-53.4 53.4-53.4s53.4 23.9 53.4 53.4z"/><circle class="prefix__st3" cx="228.4" cy="176.4" r="6.6"/><circle class="prefix__st3" cx="266.5" cy="176.4" r="6.6"/><path class="prefix__st4" d="M197.6 209.3c6.3-.1 30 5.4 40.8 6.1 9.6.6 17.4 1.6 31.5.4 7.2-.6 27.2-8 32.7-10.9 1.6-.8-.8 15.8-.3 20 .4 3.7.5 5.3 1.6 6.8 1.3 1.6 1 1.2.8 3.2-.9 7.2-18 11.6-25.1 12-9.3.5-30.7 1.2-33.2 1-2.6-.2-54.9-8.3-51.5-13.3 3.7-5.4 4.7-6.9 4.6-10-.4-10.5-2.1-15.3-1.9-15.3z"/><path class="prefix__st0" d="M380.1 230l-63.2 46.6c-2.4 1.8-2.9 5.1-1.1 7.5l1.3 1.7c1.8 2.4 5.1 2.9 7.5 1.1l63.2-46.6c2.4-1.8 2.9-5.1 1.1-7.5l-1.3-1.7c-1.8-2.3-5.2-2.8-7.5-1.1zM243.7 186.1c-1.8-1.9-11.4-6.2-11.7-6.3-6.5-2.5-13-4.3-12.7-3.8 4.7 9.8 10.5 17.8 15.8 20.5 3 1.5 8.6.1 9.6-2.6s.9-5.8-1-7.8z"/><path class="prefix__st4" d="M265.7 247.4s5.4 23.1 6.3 30.9c.6 5.3.4 14.8.6 21.2.2 4.9-1.3 9.9-1.7 19.7 0 1.1 2.9-2.5 4-2.1 1.4.4 1.4 4.5 2.8 5 1.5.6 3.8-3.4 5.4-3.4 1.2 0 2.1 3.2 3.2 3.4 1.7.2 3.4-4.6 5.2-4.7 1.7-.2 3.1 4.7 4.7 4.7 1.7 0 2.4-5 4-5.7.7-.3 2.9 1.8 2.9 1.1-.6-10.2-2.5-23-3.1-30.7-.3-4.5-1.3-13.7-1.8-18.2-.4-3.9-2.8-15.6-2.8-15.6l-3.5-8.9-26.2 3.3z"/><path class="prefix__st5" d="M315.1 90.1l-3.4 5.9-5.9-3.4c-2-1.2-4.6-.5-5.8 1.6-1.2 2-.5 4.6 1.6 5.8l5.9 3.4-3.4 5.9c-1.2 2-.5 4.6 1.6 5.8 2 1.2 4.6.5 5.8-1.6l3.4-5.9 5.9 3.4c2 1.2 4.6.5 5.8-1.6 1.2-2 .5-4.6-1.6-5.8l-5.9-3.4 3.4-5.9c1.2-2 .5-4.6-1.6-5.8-2-1.2-4.6-.5-5.8 1.6zM122.4 185.4l-3.4 5.9-5.9-3.4c-2-1.2-4.6-.5-5.8 1.6-1.2 2-.5 4.6 1.6 5.8l5.9 3.4-3.4 5.9c-1.2 2-.5 4.6 1.6 5.8 2 1.2 4.6.5 5.8-1.6l3.4-5.9 5.9 3.4c2 1.2 4.6.5 5.8-1.6 1.2-2 .5-4.6-1.6-5.8l-5.9-3.4 3.4-5.9c1.2-2 .5-4.6-1.6-5.8-2.1-1.1-4.7-.4-5.8 1.6zM396 303.6l-3.4 5.9-5.9-3.4c-2-1.2-4.6-.5-5.8 1.6-1.2 2-.5 4.6 1.6 5.8l5.9 3.4-3.4 5.9c-1.2 2-.5 4.6 1.6 5.8 2 1.2 4.6.5 5.8-1.6l3.4-5.9 5.9 3.4c2 1.2 4.6.5 5.8-1.6 1.2-2 .5-4.6-1.6-5.8l-5.9-3.4 3.4-5.9c1.2-2 .5-4.6-1.6-5.8-2-1.1-4.6-.4-5.8 1.6z"/><circle class="prefix__st5" cx="186.1" cy="101.7" r="8.5"/><circle class="prefix__st5" cx="350.5" cy="176.4" r="8.5"/><circle class="prefix__st5" cx="186.1" cy="316.5" r="8.5"/></svg>