<?xml version="1.0" encoding="utf-8"?>
<svg version="1.1" xmlns="http://www.w3.org/2000/svg" xmlns:xlink="http://www.w3.org/1999/xlink" x="0px" y="0px"
	 viewBox="0 0 500 500" enable-background="new 0 0 500 500" xml:space="preserve">
<path fill="#E3E3E3" d="M402.1,177.6c-0.2,0-0.3,0-0.5,0c-5-54.1-50.5-96.4-105.8-96.4c-58.7,0-106.2,47.6-106.2,106.2
	c0,56.7,44.5,103.1,100.5,106.1v0.2h112c32.1,0,58.1-26,58.1-58.1S434.2,177.6,402.1,177.6z"/>
<path fill="#F6F6F6" d="M382,235.4c-17.4-59.4-72.2-102.8-137.3-102.8c-78.1,0-141.6,62.6-143.1,140.4C65.2,277.3,37,308.1,37,345.6
	c0,40.4,32.7,73.1,73.1,73.1H371c50.8,0,92-41.2,92-92C463.1,279.8,427.7,240.7,382,235.4z"/>
</svg>
