<?xml version="1.0" encoding="utf-8"?>
<svg version="1.1" xmlns="http://www.w3.org/2000/svg" xmlns:xlink="http://www.w3.org/1999/xlink" x="0px" y="0px"
	 viewBox="0 0 500 500" style="enable-background:new 0 0 500 500;" xml:space="preserve">
<path fill="#FFFFFF" stroke="#000000" d="M399.6,215.9"/>
<path fill="#FFFFFF" stroke="#000000" d="M189.2,381.3"/>
<path fill="#E6E6E6" d="M420.9,179.2c3-7.5-0.7-15.9-8.2-18.9c-7.5-3-15.9,0.7-18.9,8.2c-2.4,6-61.8,146.5-310.6,152
	c-8,0.1-14.5,6.7-14.4,14.7c0.1,8,6.7,14.5,14.7,14.4h0.3C353.1,343.6,418.3,185.9,420.9,179.2L420.9,179.2z"/>
<path fill="#A67C52" d="M181.7,244.2c15.9,0,28.7-12.9,28.7-28.7s-12.9-28.7-28.7-28.7S153,199.6,153,215.5l0,0
	C153,231.4,165.8,244.2,181.7,244.2z"/>
<path fill="#C69C6D" d="M293.7,201.9c15.9,0,28.7-12.9,28.7-28.7c0-15.9-12.9-28.7-28.7-28.7c-15.9,0-28.7,12.9-28.7,28.7c0,0,0,0,0,0
	C265,189.1,277.9,201.9,293.7,201.9L293.7,201.9z"/>
<path fill="#B3B3B3" d="M361.2,316.2c-15.9,0-28.7,12.9-28.7,28.7c0,15.9,12.9,28.7,28.7,28.7c15.9,0,28.7-12.9,28.7-28.7l0,0
	C389.9,329,377.1,316.2,361.2,316.2C361.2,316.2,361.2,316.2,361.2,316.2z"/>
<path fill="#C7B299" d="M287.3,352.2c-9.6,0-17.3,7.8-17.3,17.3c0,9.6,7.8,17.3,17.3,17.3c9.6,0,17.3-7.8,17.3-17.3
	C304.7,360,296.9,352.2,287.3,352.2L287.3,352.2z"/>
<path fill="#C69C6D" d="M413.7,265.2c-9.6,0-17.3,7.8-17.3,17.3s7.8,17.3,17.3,17.3c9.6,0,17.3-7.8,17.3-17.3S423.3,265.2,413.7,265.2
	L413.7,265.2z"/>
<path fill="#C7B299" d="M130.8,276.1c10.2,0,18.5-8.3,18.5-18.5c0-10.2-8.3-18.5-18.5-18.5c-10.2,0-18.5,8.3-18.5,18.5c0,0,0,0,0,0
	C112.3,267.8,120.6,276.1,130.8,276.1z"/>
<path fill="#B3B3B3" d="M240.9,144.5c8.7,0,15.7-7,15.7-15.7c0-8.7-7-15.7-15.7-15.7c-8.7,0-15.7,7-15.7,15.7
	C225.2,137.5,232.3,144.5,240.9,144.5C240.9,144.5,240.9,144.5,240.9,144.5z"/>
<path fill="#C8AA96" d="M231.5,250c0,10.2,8.3,18.5,18.5,18.5c10.2,0,18.5-8.3,18.5-18.5c0-10.2-8.3-18.5-18.5-18.5c0,0,0,0,0,0
	C239.8,231.5,231.5,239.8,231.5,250C231.5,250,231.5,250,231.5,250z"/>
</svg>
