<?xml version="1.0" encoding="utf-8"?>
<svg version="1.1" xmlns="http://www.w3.org/2000/svg" xmlns:xlink="http://www.w3.org/1999/xlink" x="0px" y="0px"
	 viewBox="0 0 500 500" style="enable-background:new 0 0 500 500;" xml:space="preserve">
<path fill="#E3E3E3" d="M401.3,155.5c-0.1,0-0.3,0-0.4,0c-4.4-47.3-44.2-84.4-92.6-84.4c-51.4,0-93,41.7-93,93
	c0,49.7,38.9,90.3,88,92.9v0.1h98.1c28.1,0,50.9-22.8,50.9-50.9S429.4,155.5,401.3,155.5z"/>
<path fill="#F6F6F6" d="M343.8,181.5c-15-51.2-62.2-88.6-118.3-88.6c-67.3,0-121.9,54-123.2,120.9c-31.3,3.7-55.6,30.3-55.6,62.6
	c0,34.9,28.2,63.1,63.1,63.1h224.7c43.7,0,79.3-35.5,79.3-79.3C413.6,219.6,383.1,186.1,343.8,181.5z"/>
<path fill="#4FC0F2" d="M105,397.6l10.6-25.9c2.8-6.9,10.7-10.2,17.6-7.4l0,0c6.9,2.8,10.2,10.7,7.4,17.6L130,407.8
	c-2.8,6.9-10.7,10.2-17.6,7.4l0,0C105.5,412.2,102.3,404.5,105,397.6z"/>
<path fill="#4FC0F2" d="M171.5,416.5l18.3-44.8c2.8-6.9,10.7-10.2,17.6-7.4l0,0c6.9,2.8,10.2,10.7,7.4,17.6l-18.3,44.8
	c-2.8,6.9-10.7,10.2-17.6,7.4l0,0C172,431.3,168.7,423.4,171.5,416.5z"/>
<path fill="#4FC0F2" d="M245.7,397.6l10.6-25.9c2.8-6.9,10.7-10.2,17.6-7.4l0,0c6.9,2.8,10.2,10.7,7.4,17.6l-10.6,25.9
	c-2.8,6.9-10.7,10.2-17.6,7.4l0,0C246.2,412.2,243,404.5,245.7,397.6z"/>
<path fill="#4FC0F2" d="M312.2,416.5l18.3-44.8c2.8-6.9,10.7-10.2,17.6-7.4l0,0c6.9,2.8,10.2,10.7,7.4,17.6l-18.3,44.8
	c-2.8,6.9-10.7,10.2-17.6,7.4l0,0C312.7,431.3,309.4,423.4,312.2,416.5z"/>
</svg>
