<?xml version="1.0" encoding="utf-8"?>
<svg version="1.1" xmlns="http://www.w3.org/2000/svg" xmlns:xlink="http://www.w3.org/1999/xlink" x="0px" y="0px"
	 viewBox="0 0 500 500" style="enable-background:new 0 0 500 500;" xml:space="preserve">
<circle fill="#E3E3E3" cx="318.3" cy="397.3" r="22.6"/>
<circle fill="#E3E3E3" cx="155.7" cy="397.3" r="22.6"/>
<circle fill="#E3E3E3" cx="237" cy="397.3" r="22.6"/>
<path fill="#E3E3E3" d="M401.3,163.5c-0.1,0-0.3,0-0.4,0c-4.4-47.3-44.2-84.4-92.6-84.4c-51.4,0-93,41.7-93,93
	c0,49.7,38.9,90.3,88,92.9v0.1h98.1c28.1,0,50.9-22.8,50.9-50.9S429.4,163.5,401.3,163.5z"/>
<path fill="#F6F6F6" d="M343.8,189.5c-15-51.2-62.2-88.6-118.3-88.6c-67.3,0-121.9,54-123.2,120.9c-31.3,3.7-55.6,30.3-55.6,62.6
	c0,34.9,28.2,63.1,63.1,63.1h224.7c43.7,0,79.3-35.5,79.3-79.3C413.6,227.6,383.1,194.1,343.8,189.5z"/>
</svg>
