<?xml version="1.0" encoding="utf-8"?>
<svg version="1.1" xmlns="http://www.w3.org/2000/svg" xmlns:xlink="http://www.w3.org/1999/xlink" x="0px" y="0px"
	 viewBox="0 0 500 500" enable-background="new 0 0 500 500" xml:space="preserve">
	<path fill="#E3E3E3" d="M405.2,234.7c-0.2,0-0.3,0-0.5,0c-5-53.9-50.3-96.1-105.5-96.1c-58.5,0-105.9,47.5-105.9,105.9
	c0,56.6,44.3,102.7,100.2,105.8v0.2h111.6c32,0,57.9-25.9,57.9-57.9S437.2,234.7,405.2,234.7z"/>
	<path fill-rule="evenodd" clip-rule="evenodd" fill="#FFB55A" d="M403.1,271.9c-95.4,0-172.7-77.3-172.7-172.7
	c0-17.9,2.7-35,7.7-51.2c0.5-1.6-0.9-3.3-2.7-3.1C156.8,59.5,97,127.3,94.6,209.7c-2.7,98.6,78.2,180.1,177,177.6
	c72.9-1.8,134.6-48.7,158.1-114c0.5-1.6-0.7-3.5-2.6-3.1C419.4,271.4,411.3,271.9,403.1,271.9z"/>
	<path fill="#F6F6F6" d="M353.2,287c-15.9-54.4-66.2-94.2-125.8-94.2c-71.6,0-129.8,57.3-131.1,128.7c-33.3,4-59.2,32.2-59.2,66.6
	c0,37,30,67,67,67h239.1c46.5,0,84.3-37.8,84.3-84.3C427.5,327.6,395,292,353.2,287z"/>
</svg>
