<?xml version="1.0" encoding="utf-8"?>
<svg version="1.1" xmlns="http://www.w3.org/2000/svg" xmlns:xlink="http://www.w3.org/1999/xlink" x="0px" y="0px"
	 viewBox="0 0 500 500" enable-background="new 0 0 500 500" xml:space="preserve">
	<path fill="#E3E3E3" d="M405.1,212.9c-0.2,0-0.3,0-0.5,0c-5-53.9-50.3-96.1-105.5-96.1c-58.5,0-105.9,47.5-105.9,105.9
	c0,56.6,44.3,102.7,100.2,105.8v0.2H405c32,0,57.9-25.9,57.9-57.9S437.1,212.9,405.1,212.9z"/>
	<rect x="87.2" y="97.8" fill="#FFB55A" width="242.2" height="242.2"/>
	<rect x="87.2" y="97.7" transform="matrix(0.7071 -0.7071 0.7071 0.7071 -93.7185 211.346)" fill="#FFB55A" width="242.2" height="242.2"/>
	<circle fill="#FFCF00" cx="208.2" cy="218.9" r="121.1"/>
	<path fill="#F6F6F6" d="M353.1,265.2c-15.9-54.4-66.2-94.2-125.8-94.2c-71.6,0-129.8,57.3-131.1,128.7c-33.3,4-59.2,32.2-59.2,66.6
	c0,37,30,67,67,67h239.1c46.5,0,84.3-37.8,84.3-84.3C427.4,305.8,394.9,270.2,353.1,265.2z"/>
</svg>
