<?xml version="1.0" encoding="utf-8"?>
<svg version="1.1" xmlns="http://www.w3.org/2000/svg" xmlns:xlink="http://www.w3.org/1999/xlink" x="0px" y="0px"
	 viewBox="0 0 500 500" style="enable-background:new 0 0 500 500;" xml:space="preserve">
<path fill="#FFC107" d="M416,161.8H84c-12.1,0-22-9.9-22-22v0c0-12.1,9.9-22,22-22h332c12.1,0,22,9.9,22,22v0
	C438,151.9,428.1,161.8,416,161.8z"/>
<path fill="#FFC107" d="M332,235.2H84c-12.1,0-22-9.9-22-22v0c0-12.1,9.9-22,22-22h248c12.1,0,22,9.9,22,22v0
	C354,225.4,344.1,235.2,332,235.2z"/>
<path fill="#FFC107" d="M243,308.8H84c-12.1,0-22-9.9-22-22v0c0-12.1,9.9-22,22-22h159c12.1,0,22,9.9,22,22v0
	C265,298.9,255.1,308.8,243,308.8z"/>
<path fill="#FFC107" d="M166,382.2H84c-12.1,0-22-9.9-22-22v0c0-12.1,9.9-22,22-22h82c12.1,0,22,9.9,22,22v0
	C188,372.4,178.1,382.2,166,382.2z"/>
<path fill="#FFA000" d="M228,382.2L228,382.2c-12.1,0-22-9.9-22-22v0c0-12.1,9.9-22,22-22h0c12.1,0,22,9.9,22,22v0
	C250,372.4,240.1,382.2,228,382.2z"/>
<path fill="#FFA000" d="M305.5,308.8L305.5,308.8c-12.1,0-22-9.9-22-22v0c0-12.1,9.9-22,22-22h0c12.1,0,22,9.9,22,22v0
	C327.5,298.9,317.6,308.8,305.5,308.8z"/>
<path fill="#FFA000" d="M392.3,234.6L392.3,234.6c-12.1,0-22-9.9-22-22v0c0-12.1,9.9-22,22-22h0c12.1,0,22,9.9,22,22v0
	C414.3,224.7,404.4,234.6,392.3,234.6z"/>
</svg>
