<?xml version="1.0" encoding="utf-8"?>
<svg version="1.1" xmlns="http://www.w3.org/2000/svg" xmlns:xlink="http://www.w3.org/1999/xlink" x="0px" y="0px"
	 viewBox="0 0 500 500" style="enable-background:new 0 0 500 500;" xml:space="preserve">
<path fill="#E3E3E3" d="M401.8,152.4c-0.1,0-0.3,0-0.4,0C397,105.1,357.2,68,308.8,68c-51.4,0-93,41.7-93,93c0,49.7,38.9,90.3,88,92.9
	v0.1h98.1c28.1,0,50.9-22.8,50.9-50.9S429.9,152.4,401.8,152.4z"/>
<path fill="#F6F6F6" d="M344.3,178.4c-15-51.2-62.2-88.6-118.3-88.6c-67.3,0-121.9,54-123.2,120.9c-31.3,3.7-55.6,30.3-55.6,62.6
	c0,34.9,28.2,63.1,63.1,63.1H335c43.7,0,79.3-35.5,79.3-79.3C414.1,216.5,383.6,183,344.3,178.4z"/>
<path fill="#4FC0F2" d="M138.5,391.3l10.6-25.9c2.8-6.9,10.7-10.2,17.6-7.4l0,0c6.9,2.8,10.2,10.7,7.4,17.6l-10.6,25.9
	c-2.8,6.9-10.7,10.2-17.6,7.4l0,0C139,405.9,135.8,398.2,138.5,391.3z"/>
<path fill="#4FC0F2" d="M220.2,391.3l10.6-25.9c2.8-6.9,10.7-10.2,17.6-7.4l0,0c6.9,2.8,10.2,10.7,7.4,17.6l-10.6,25.9
	c-2.8,6.9-10.7,10.2-17.6,7.4l0,0C220.7,405.9,217.5,398.2,220.2,391.3z"/>
<path fill="#4FC0F2" d="M298,410.2l18.3-44.8c2.8-6.9,10.7-10.2,17.6-7.4l0,0c6.9,2.8,10.2,10.7,7.4,17.6L323,420.4
	c-2.8,6.9-10.7,10.2-17.6,7.4l0,0C298.5,425,295.2,417.1,298,410.2z"/>
<circle fill="#4FC0F2" cx="217.9" cy="429.8" r="12.9"/>
</svg>
