<?xml version="1.0" encoding="utf-8"?>
<svg version="1.1" xmlns="http://www.w3.org/2000/svg" xmlns:xlink="http://www.w3.org/1999/xlink" x="0px" y="0px"
	 viewBox="0 0 500 500" style="enable-background:new 0 0 500 500;" xml:space="preserve">
	<path fill="#F15A24" d="M195.6,41.7l-134,422c0.4,0.1,0.8,0.3,1.2,0.4h0c12.2,3.8,25.1-2.9,29-15.1L217.7,48.7L195.6,41.7z"/>
	<path fill="#F7931E" d="M173.6,34.8L47.7,435.1c-3.7,11.8,2.5,24.3,14,28.6l134-422L173.6,34.8z"/>
	<polygon fill="#1088E2" points="217.2,49 133.5,315.3 194.9,284.1 264,64.9 	"/>
	<polygon fill="#0391FF" points="264,64.9 194.9,284.1 258.6,251.7 312.3,81.3 	"/>
	<polygon fill="#0396FF" points="312.3,81.3 258.6,251.7 322.9,219.1 361.1,97.9 	"/>
	<polygon fill="#3FA9F5" points="361.1,97.9 322.9,219.1 399.5,180.2 419.2,117.7 	"/>
	<path fill="#ABDCFF" d="M441.4,125.3l-22.2-7.6l-19.7,62.5l44.2-22.5C457.7,150.6,456.2,130.3,441.4,125.3z"/>
</svg>
