<svg xmlns="http://www.w3.org/2000/svg" viewBox="0 0 500 500"><path d="M195.6 41.7l-134 422c.4.1.8.3 1.2.4 12.2 3.8 25.1-2.9 29-15.1L217.7 48.7l-22.1-7z" fill="#f15a24"/><path d="M173.6 34.8L47.7 435.1c-3.7 11.8 2.5 24.3 14 28.6l134-422-22.1-6.9z" fill="#f7931e"/><path fill="#1088e2" d="M217.2 49l-83.7 266.3 61.4-31.2L264 64.9z"/><path fill="#0391ff" d="M264 64.9l-69.1 219.2 63.7-32.4 53.7-170.4z"/><path fill="#0396ff" d="M312.3 81.3l-53.7 170.4 64.3-32.6 38.2-121.2z"/><path fill="#3fa9f5" d="M361.1 97.9l-38.2 121.2 76.6-38.9 19.7-62.5z"/><path d="M441.4 125.3l-22.2-7.6-19.7 62.5 44.2-22.5c14-7.1 12.5-27.4-2.3-32.4z" fill="#abdcff"/></svg>