<svg xmlns="http://www.w3.org/2000/svg" viewBox="0 0 500 500"><path fill="#E3E3E3" d="M405.1 212.9h-.5c-5-53.9-50.3-96.1-105.5-96.1-58.5 0-105.9 47.5-105.9 105.9 0 56.6 44.3 102.7 100.2 105.8v.2H405c32 0 57.9-25.9 57.9-57.9s-25.8-57.9-57.8-57.9z"/><path fill="#FFB55A" d="M87.2 97.8h242.2V340H87.2z"/><path fill="#FFB55A" d="M37.024 218.77l171.26-171.26 171.26 171.26-171.26 171.26z"/><circle fill="#FFCF00" cx="208.2" cy="218.9" r="121.1"/><path fill="#F6F6F6" d="M353.1 265.2c-15.9-54.4-66.2-94.2-125.8-94.2-71.6 0-129.8 57.3-131.1 128.7-33.3 4-59.2 32.2-59.2 66.6 0 37 30 67 67 67h239.1c46.5 0 84.3-37.8 84.3-84.3 0-43.2-32.5-78.8-74.3-83.8z"/></svg>