<svg xmlns="http://www.w3.org/2000/svg" viewBox="0 0 500 500"><path fill="#FFB55A" d="M37.366 249.498l212.13-212.13 212.13 212.13-212.13 212.13z"/><path fill="#FFB55A" d="M99.5 99.5h300v300h-300z"/><circle fill="#FFCF00" cx="249.1" cy="249.3" r="150"/><path fill="#F6F6F6" d="M192.4 263.7c-6.1-20.9-25.3-36-48.1-36-27.4 0-49.6 22-50.2 49.2-12.8 1.5-22.7 12.3-22.7 25.5 0 14.2 11.5 25.7 25.7 25.7h91.5c17.8 0 32.3-14.4 32.3-32.3-.1-16.6-12.5-30.2-28.5-32.1zM415.5 171.1c-6.8-23-27.9-39.8-53.1-39.8-30.3 0-54.8 24.3-55.4 54.3-14.1 1.7-25 13.6-25 28.1 0 15.7 12.7 28.3 28.3 28.3h101c19.7 0 35.6-15.9 35.6-35.6 0-18.3-13.8-33.3-31.4-35.3z"/></svg>