<svg xmlns="http://www.w3.org/2000/svg" viewBox="0 0 500 500"><path fill="#E3E3E3" d="M405.2 234.7h-.5c-5-53.9-50.3-96.1-105.5-96.1-58.5 0-105.9 47.5-105.9 105.9 0 56.6 44.3 102.7 100.2 105.8v.2h111.6c32 0 57.9-25.9 57.9-57.9s-25.8-57.9-57.8-57.9z"/><path fill-rule="evenodd" clip-rule="evenodd" fill="#FFB55A" d="M403.1 271.9c-95.4 0-172.7-77.3-172.7-172.7 0-17.9 2.7-35 7.7-51.2.5-1.6-.9-3.3-2.7-3.1C156.8 59.5 97 127.3 94.6 209.7c-2.7 98.6 78.2 180.1 177 177.6 72.9-1.8 134.6-48.7 158.1-114 .5-1.6-.7-3.5-2.6-3.1-7.7 1.2-15.8 1.7-24 1.7z"/><path fill="#F6F6F6" d="M353.2 287c-15.9-54.4-66.2-94.2-125.8-94.2-71.6 0-129.8 57.3-131.1 128.7-33.3 4-59.2 32.2-59.2 66.6 0 37 30 67 67 67h239.1c46.5 0 84.3-37.8 84.3-84.3 0-43.2-32.5-78.8-74.3-83.8z"/></svg>