<svg xmlns="http://www.w3.org/2000/svg" viewBox="0 0 500 500"><path fill-rule="evenodd" clip-rule="evenodd" fill="#FFB55A" d="M420.8 278.9c-95.4 0-172.7-77.3-172.7-172.7 0-17.9 2.7-35 7.7-51.2.5-1.6-.9-3.3-2.7-3.1-78.6 14.6-138.4 82.4-140.8 164.8-2.7 98.6 78.2 180.1 177 177.6 72.9-1.8 134.6-48.7 158.1-114 .5-1.6-.7-3.5-2.6-3.1-7.7 1.2-15.8 1.7-24 1.7z"/><path fill="#F6F6F6" d="M368.6 280c-15.9-54.4-66.2-94.2-125.8-94.2-71.6 0-129.8 57.3-131.1 128.7-33.3 3.9-59.2 32.2-59.2 66.6 0 37 30 67 67 67h239.1c46.5 0 84.3-37.8 84.3-84.3.1-43.3-32.4-78.8-74.3-83.8z"/></svg>