<svg xmlns="http://www.w3.org/2000/svg" viewBox="0 0 500 500"><path fill="#FFB55A" d="M393.3 88.5l7.3 14.8 16.2 2.4-11.7 11.5 2.8 16.1-14.6-7.6-14.6 7.6 2.8-16.1-11.9-11.5 16.4-2.4z"/><path fill-rule="evenodd" clip-rule="evenodd" fill="#FFB55A" d="M408.3 290.4c-95.4 0-172.7-77.3-172.7-172.7 0-17.9 2.7-35 7.7-51.2.5-1.6-.9-3.3-2.7-3.1C162 78 102.2 145.8 99.8 228.2c-2.7 98.6 78.2 180.1 177 177.6 72.9-1.8 134.6-48.7 158.1-114 .5-1.6-.7-3.5-2.6-3.1-7.7 1.2-15.8 1.7-24 1.7z"/><path fill="#F6F6F6" d="M220.8 286.8c-6.9-23.6-28.7-40.8-54.5-40.8-31 0-56.2 24.8-56.8 55.7-14.5 1.7-25.6 14-25.6 28.8 0 16.1 13 29 29 29h103.5c20.2 0 36.5-16.4 36.5-36.5.1-18.6-14-34.1-32.1-36.2z"/></svg>