<svg xmlns="http://www.w3.org/2000/svg" viewBox="0 0 500 500"><style>.prefix__st1{fill:#f7b84e}.prefix__st2{fill:#c98e3f}.prefix__st3{fill:#ab7934}</style><path d="M24.9 249.9c0 124 100.7 224.6 224.8 224.6 124.2 0 224.8-100.5 224.8-224.6 0-124-100.7-224.6-224.8-224.6-124.1 0-224.8 100.5-224.8 224.6z" fill="#fcd063"/><path class="prefix__st1" d="M394 77.7c32.7 39 52.5 89.2 52.5 144.1 0 124-100.7 224.6-224.8 224.6-54.9 0-105.2-19.7-144.3-52.4 41.2 49.2 103.1 80.5 172.4 80.5 124.2 0 224.8-100.6 224.8-224.6 0-69.2-31.4-131-80.6-172.2z"/><path class="prefix__st2" d="M326.4 292H173.1c-4.2 0-7.7 3.1-7.7 7 0 42.6 37.8 77.2 84.3 77.2S334 341.6 334 299c.1-3.9-3.4-7-7.6-7z"/><path class="prefix__st3" d="M333.5 306c.3-2.3.6-4.6.6-7 0-3.9-3.4-7-7.7-7H173.1c-4.2 0-7.7 3.1-7.7 7 0 2.4.3 4.7.6 7h167.5z"/><path class="prefix__st2" d="M137.3 221.8c0 15.5 12.6 28.1 28.1 28.1s28.1-12.6 28.1-28.1-12.6-28.1-28.1-28.1-28.1 12.6-28.1 28.1z"/><path class="prefix__st3" d="M165.4 207.8c13.1 0 24 9 27.1 21.1.6-2.3 1-4.6 1-7 0-15.5-12.6-28.1-28.1-28.1s-28.1 12.6-28.1 28.1c0 2.4.4 4.8 1 7 3.2-12.2 14.1-21.1 27.1-21.1z"/><path class="prefix__st2" d="M306 221.8c0 15.5 12.6 28.1 28.1 28.1s28.1-12.6 28.1-28.1-12.6-28.1-28.1-28.1c-15.6 0-28.1 12.6-28.1 28.1z"/><path class="prefix__st1" d="M362.2 270.9c0 11.6 9.4 21.1 21.1 21.1 11.6 0 21.1-9.4 21.1-21.1 0-11.6-9.4-21.1-21.1-21.1-11.7.1-21.1 9.5-21.1 21.1zM95.2 270.9c0 11.6 9.4 21.1 21.1 21.1 11.6 0 21.1-9.4 21.1-21.1 0-11.6-9.4-21.1-21.1-21.1-11.7.1-21.1 9.5-21.1 21.1z"/><path class="prefix__st3" d="M334.1 207.8c13.1 0 24 9 27.1 21.1.6-2.3 1-4.6 1-7 0-15.5-12.6-28.1-28.1-28.1S306 206.4 306 221.9c0 2.4.4 4.8 1 7 3.1-12.2 14-21.1 27.1-21.1z"/></svg>