<svg xmlns="http://www.w3.org/2000/svg" viewBox="0 0 500 500"><style>.prefix__st1{fill:#f7b84e}.prefix__st2{fill:#c98e3f}.prefix__st3{fill:#ab7934}</style><path d="M24.9 249.9c0 124 100.7 224.6 224.8 224.6 124.2 0 224.8-100.5 224.8-224.6 0-124-100.7-224.6-224.8-224.6-124.1 0-224.8 100.5-224.8 224.6z" fill="#fcd063"/><path class="prefix__st1" d="M394 77.7c32.7 39 52.5 89.2 52.5 144.1 0 124-100.7 224.6-224.8 224.6-54.9 0-105.2-19.7-144.3-52.4 41.2 49.2 103.1 80.5 172.4 80.5 124.2 0 224.8-100.6 224.8-224.6 0-69.2-31.4-131-80.6-172.2z"/><path class="prefix__st2" d="M95.2 221.8c0 15.5 12.6 28.1 28.1 28.1s28.1-12.6 28.1-28.1-12.6-28.1-28.1-28.1-28.1 12.6-28.1 28.1z"/><path class="prefix__st3" d="M123.3 207.8c13.1 0 24 9 27.1 21.1.6-2.3 1-4.6 1-7 0-15.5-12.6-28.1-28.1-28.1s-28.1 12.6-28.1 28.1c0 2.4.4 4.8 1 7 3.1-12.2 14-21.1 27.1-21.1z"/><path class="prefix__st2" d="M348.1 221.8c0 15.5 12.6 28.1 28.1 28.1s28.1-12.6 28.1-28.1-12.6-28.1-28.1-28.1-28.1 12.6-28.1 28.1z"/><path class="prefix__st3" d="M376.2 207.8c13.1 0 24 9 27.1 21.1.6-2.3 1-4.6 1-7 0-15.5-12.6-28.1-28.1-28.1s-28.1 12.6-28.1 28.1c0 2.4.4 4.8 1 7 3.2-12.2 14-21.1 27.1-21.1z"/><path class="prefix__st1" d="M362.2 285c0 11.6 9.4 21.1 21.1 21.1 11.6 0 21.1-9.4 21.1-21.1 0-11.6-9.4-21.1-21.1-21.1s-21.1 9.4-21.1 21.1zM95.2 285c0 11.6 9.4 21.1 21.1 21.1 11.6 0 21.1-9.4 21.1-21.1 0-11.6-9.4-21.1-21.1-21.1s-21.1 9.4-21.1 21.1z"/><path class="prefix__st2" d="M320 299c0 11.6-9.5 21.1-21.1 21.1h-98.4c-11.6 0-21.1-9.5-21.1-21.1s9.5-21.1 21.1-21.1h98.4c11.6 0 21.1 9.5 21.1 21.1z"/><path class="prefix__st3" d="M180.8 292h137.9c-2.9-8.1-10.7-14-19.8-14h-98.4c-9-.1-16.8 5.8-19.7 14z"/></svg>