<svg xmlns="http://www.w3.org/2000/svg" viewBox="0 0 500 500"><path fill="#E3E3E3" d="M401.8 194.2h-.4c-4.4-47.3-44.2-84.4-92.6-84.4-51.4 0-93 41.7-93 93 0 49.7 38.9 90.3 88 92.9v.1h98.1c28.1 0 50.9-22.8 50.9-50.9s-22.9-50.7-51-50.7z"/><path fill="#FFB55A" d="M55 156.2l103.7-112 111.9 103.7L167 259.8z"/><path fill="#FFB55A" d="M86.6 75.8h152.6v152.6H86.6z"/><circle fill="#FFCF00" cx="162.9" cy="151.9" r="76.4"/><path fill="#F6F6F6" d="M344.2 220.2c-15-51.2-62.2-88.6-118.3-88.6-67.3 0-121.9 54-123.2 120.9-31.3 3.7-55.6 30.3-55.6 62.6 0 34.9 28.2 63.1 63.1 63.1h224.7c43.7 0 79.3-35.5 79.3-79.3-.1-40.6-30.6-74.1-70-78.7z"/><g fill="#4FC0F2"><path d="M174.9 427.5l10.6-25.9c2.8-6.9 10.7-10.2 17.6-7.4 6.9 2.8 10.2 10.7 7.4 17.6l-10.6 25.9c-2.8 6.9-10.7 10.2-17.6 7.4-6.9-3-10.2-10.7-7.4-17.6zM243.3 446.2l18.3-44.8c2.8-6.9 10.7-10.2 17.6-7.4 6.9 2.8 10.2 10.7 7.4 17.6l-18.3 44.8c-2.8 6.9-10.7 10.2-17.6 7.4-6.9-2.8-10.2-10.7-7.4-17.6z"/></g></svg>