<svg xmlns="http://www.w3.org/2000/svg" viewBox="0 0 500 500"><style>.prefix__st3{fill:#4fc0f2}</style><path d="M400.2 158.3h-.4c-4.3-46.8-43.7-83.4-91.6-83.4-50.8 0-92 41.2-92 92 0 49.1 38.5 89.3 87 91.9v.1h97c27.8 0 50.3-22.5 50.3-50.3s-22.5-50.3-50.3-50.3z" fill="#e3e3e3"/><path d="M343.3 184c-14.8-50.6-61.6-87.6-117-87.6-66.5 0-120.6 53.3-121.8 119.6-31 3.6-55 30-55 61.9 0 34.4 27.9 62.3 62.3 62.3H334c43.3 0 78.4-35.1 78.4-78.4 0-40.1-30.2-73.2-69.1-77.8z" fill="#f6f6f6"/><path fill-rule="evenodd" clip-rule="evenodd" fill="#f7ad44" d="M232.7 327.4h47.4l-71 96.2v-64.3h-40.7L256 240.8z"/><path class="prefix__st3" d="M59.7 384.1l9.1-22.3c2.8-6.9 10.7-10.2 17.6-7.4 6.9 2.8 10.2 10.7 7.4 17.6l-9.1 22.3c-2.8 6.9-10.7 10.2-17.6 7.4-6.9-2.8-10.2-10.7-7.4-17.6zM106.5 406.6l18.3-44.8c2.8-6.9 10.7-10.2 17.6-7.4 6.9 2.8 10.2 10.7 7.4 17.6l-18.3 44.8c-2.8 6.9-10.7 10.2-17.6 7.4-6.9-2.8-10.2-10.7-7.4-17.6zM347.8 384.1l9.1-22.3c2.8-6.9 10.7-10.2 17.6-7.4 6.9 2.8 10.2 10.7 7.4 17.6l-9.1 22.3c-2.8 6.9-10.7 10.2-17.6 7.4-6.9-2.8-10.2-10.7-7.4-17.6zM281.1 406.6l18.3-44.8c2.8-6.9 10.7-10.2 17.6-7.4 6.9 2.8 10.2 10.7 7.4 17.6l-18.3 44.8c-2.8 6.9-10.7 10.2-17.6 7.4-6.9-2.8-10.2-10.7-7.4-17.6z"/></svg>