<svg xmlns="http://www.w3.org/2000/svg" viewBox="0 0 500 500"><path fill="#E3E3E3" d="M400.2 159.1h-.4c-4.3-46.8-43.7-83.4-91.6-83.4-50.8 0-92 41.2-92 92 0 49.1 38.5 89.3 87 91.9v.1h97c27.8 0 50.3-22.5 50.3-50.3s-22.5-50.3-50.3-50.3z"/><path fill="#F6F6F6" d="M343.3 184.8c-14.8-50.6-61.6-87.6-117-87.6-66.5 0-120.6 53.3-121.8 119.6-31 3.6-55 29.9-55 61.9 0 34.4 27.9 62.3 62.3 62.3H334c43.3 0 78.4-35.1 78.4-78.4 0-40.1-30.2-73.2-69.1-77.8z"/><path fill-rule="evenodd" clip-rule="evenodd" fill="#F7AD44" d="M232.7 328.2h47.4l-71 96.2v-64.3h-40.7L256 241.6z"/><path fill="#4FC0F2" d="M118.5 384.9l9.1-22.3c2.8-6.9 10.7-10.2 17.6-7.4 6.9 2.8 10.2 10.7 7.4 17.6l-9.1 22.3c-2.8 6.9-10.7 10.2-17.6 7.4-6.9-2.8-10.2-10.7-7.4-17.6z"/><path fill="#E3E3E3" d="M283 402.8c2.8-6.9 10.7-10.2 17.6-7.4 6.9 2.8 10.2 10.7 7.4 17.6-2.8 6.9-10.7 10.2-17.6 7.4-6.9-2.9-10.2-10.7-7.4-17.6zM299.4 362.6c2.8-6.9 10.7-10.2 17.6-7.4 6.9 2.8 10.2 10.7 7.4 17.6-2.8 6.9-10.7 10.2-17.6 7.4-6.9-2.8-10.2-10.7-7.4-17.6z"/></svg>