<svg xmlns="http://www.w3.org/2000/svg" viewBox="0 0 500 500"><style>.prefix__st2{fill:#4fc0f2}</style><path d="M401.3 151h-.4c-4.4-47.3-44.2-84.4-92.6-84.4-51.4 0-93 41.7-93 93 0 49.7 38.9 90.3 88 92.9v.1h98.1c28.1 0 50.9-22.8 50.9-50.9s-22.9-50.7-51-50.7z" fill="#e3e3e3"/><path d="M343.8 177c-15-51.2-62.2-88.6-118.3-88.6-67.3 0-121.9 54-123.2 120.9-31.3 3.7-55.6 30.3-55.6 62.6 0 34.9 28.2 63.1 63.1 63.1h224.7c43.7 0 79.3-35.5 79.3-79.3-.2-40.6-30.7-74.1-70-78.7z" fill="#f6f6f6"/><path class="prefix__st2" d="M153.6 437.5c-6.8 0-12.4-5.6-12.4-12.4v-59.3c0-6.8 5.6-12.4 12.4-12.4 6.8 0 12.4 5.6 12.4 12.4v59.3c0 6.9-5.6 12.4-12.4 12.4zM209.5 414.3c-6.8 0-12.4-5.6-12.4-12.4v-36.1c0-6.8 5.6-12.4 12.4-12.4 6.8 0 12.4 5.6 12.4 12.4v36.1c0 6.8-5.6 12.4-12.4 12.4zM265.4 430.7c-6.8 0-12.4-5.6-12.4-12.4v-52.5c0-6.8 5.6-12.4 12.4-12.4 6.8 0 12.4 5.6 12.4 12.4v52.5c0 6.9-5.5 12.4-12.4 12.4zM97.7 407.9c-6.8 0-12.4-5.6-12.4-12.4v-29.6c0-6.8 5.6-12.4 12.4-12.4 6.8 0 12.4 5.6 12.4 12.4v29.6c0 6.8-5.6 12.4-12.4 12.4zM321.4 403.6c-6.8 0-12.4-5.6-12.4-12.4v-25.4c0-6.8 5.6-12.4 12.4-12.4 6.8 0 12.4 5.6 12.4 12.4v25.4c0 6.8-5.6 12.4-12.4 12.4zM368.3 409.5h-.8c-6.6 0-12-5.4-12-12V364c0-6.6 5.4-12 12-12h.8c6.6 0 12 5.4 12 12v33.5c0 6.6-5.4 12-12 12z"/></svg>