<svg xmlns="http://www.w3.org/2000/svg" viewBox="0 0 500 500"><style>.prefix__st3{fill:#4fc0f2}</style><path d="M182.3 418.5c-4-1.8-5.8-6.4-4-10.4l23.4-53c1.8-4 6.4-5.8 10.4-4 4 1.8 5.8 6.4 4 10.4l-23.4 53c-1.8 4-6.4 5.8-10.4 4z" fill="#e6e6e6"/><path d="M401.3 146.6h-.4c-4.4-47.3-44.2-84.4-92.6-84.4-51.4 0-93 41.7-93 93 0 49.7 38.9 90.3 88 92.9v.1h98.1c28.1 0 50.9-22.8 50.9-50.9s-22.9-50.7-51-50.7z" fill="#e3e3e3"/><path d="M343.8 172.6c-15-51.2-62.2-88.6-118.3-88.6-67.3 0-121.9 54-123.2 120.9-31.3 3.7-55.6 30.3-55.6 62.6 0 34.9 28.2 63.1 63.1 63.1h224.7c43.7 0 79.3-35.5 79.3-79.3-.2-40.6-30.7-74.1-70-78.7z" fill="#f6f6f6"/><path class="prefix__st3" d="M117.2 384.7l10.6-25.9c2.8-6.9 10.7-10.2 17.6-7.4 6.9 2.8 10.2 10.7 7.4 17.6l-10.6 25.9c-2.8 6.9-10.7 10.2-17.6 7.4-6.9-3-10.1-10.7-7.4-17.6zM237.8 403.6l18.3-44.8c2.8-6.9 10.7-10.2 17.6-7.4 6.9 2.8 10.2 10.7 7.4 17.6l-18.3 44.8c-2.8 6.9-10.7 10.2-17.6 7.4-6.9-2.8-10.2-10.7-7.4-17.6zM300 403.6l18.3-44.8c2.8-6.9 10.7-10.2 17.6-7.4 6.9 2.8 10.2 10.7 7.4 17.6L325 413.8c-2.8 6.9-10.7 10.2-17.6 7.4-6.9-2.8-10.2-10.7-7.4-17.6z"/></svg>