<svg xmlns="http://www.w3.org/2000/svg" viewBox="0 0 500 500"><style>.prefix__st2{fill:#4fc0f2}</style><path d="M401.8 157.6h-.4c-4.4-47.3-44.2-84.4-92.6-84.4-51.4 0-93 41.7-93 93 0 49.7 38.9 90.3 88 92.9v.1h98.1c28.1 0 50.9-22.8 50.9-50.9s-22.9-50.7-51-50.7z" fill="#e3e3e3"/><path d="M344.3 183.6C329.3 132.4 282.1 95 226 95c-67.3 0-121.9 54-123.2 120.9-31.3 3.7-55.6 30.3-55.6 62.6 0 34.9 28.2 63.1 63.1 63.1H335c43.7 0 79.3-35.5 79.3-79.3-.2-40.6-30.7-74.1-70-78.7z" fill="#f6f6f6"/><path class="prefix__st2" d="M159.3 410c-7.4 0-13.5-6.1-13.5-13.5V367c0-7.4 6.1-13.5 13.5-13.5s13.5 6.1 13.5 13.5v29.5c0 7.5-6 13.5-13.5 13.5zM219.2 427.3c-7.4 0-13.5-6.1-13.5-13.5V367c0-7.4 6.1-13.5 13.5-13.5s13.5 6.1 13.5 13.5v46.8c0 7.5-6.1 13.5-13.5 13.5zM279.1 398.9c-7.4 0-13.5-6.1-13.5-13.5V367c0-7.4 6.1-13.5 13.5-13.5s13.5 6.1 13.5 13.5v18.4c0 7.4-6.1 13.5-13.5 13.5zM338.9 416c-7.4 0-13.5-6.1-13.5-13.5V367c0-7.4 6.1-13.5 13.5-13.5s13.5 6.1 13.5 13.5v35.5c.1 7.4-6 13.5-13.5 13.5z"/><circle class="prefix__st2" cx="279.1" cy="421" r="12.9"/><circle class="prefix__st2" cx="158.8" cy="433.9" r="12.9"/><path class="prefix__st2" d="M99.5 390.9c-7.4 0-13.5-6.1-13.5-13.5V367c0-7.4 6.1-13.5 13.5-13.5S113 359.6 113 367v10.4c0 7.5-6.1 13.5-13.5 13.5z"/></svg>