<svg xmlns="http://www.w3.org/2000/svg" viewBox="0 0 500 500"><style>.prefix__st1{fill:#f7b84e}.prefix__st2{fill:#c98e3f}</style><path d="M24.9 249.9c0 124 100.7 224.6 224.8 224.6 124.2 0 224.8-100.5 224.8-224.6 0-124-100.7-224.6-224.8-224.6-124.1 0-224.8 100.5-224.8 224.6z" fill="#fcd063"/><path class="prefix__st1" d="M394 77.7c32.7 39 52.5 89.2 52.5 144.1 0 124-100.7 224.6-224.8 224.6-54.9 0-105.2-19.7-144.3-52.4 41.2 49.2 103.1 80.5 172.4 80.5 124.2 0 224.8-100.6 224.8-224.6 0-69.2-31.4-131-80.6-172.2z"/><path class="prefix__st2" d="M311 348.1c-4 0-8.1-1-11.9-3-26.3-14.6-72.5-14.6-98.9 0-10.9 6-25 2.8-31.6-7.1-6.6-10-3.1-22.9 7.8-28.9 41-22.7 105.4-22.7 146.4 0 10.9 6 14.4 19 7.8 28.9-4.2 6.5-11.8 10.1-19.6 10.1zM137.3 235.8c0 15.5 12.6 28.1 28.1 28.1s28.1-12.6 28.1-28.1-12.6-28.1-28.1-28.1-28.1 12.6-28.1 28.1zM306 235.8c0 15.5 12.6 28.1 28.1 28.1s28.1-12.6 28.1-28.1-12.6-28.1-28.1-28.1c-15.6.1-28.1 12.6-28.1 28.1z"/><path d="M176.5 323c41-22.7 105.4-22.7 146.4 0 4.8 2.7 8 6.7 9.7 11.2 3.7-9.3-.2-19.9-9.7-25.2-41-22.7-105.4-22.7-146.4 0-9.6 5.3-13.4 15.9-9.7 25.2 1.7-4.5 5-8.5 9.7-11.2zm-11.1-101.2c13.1 0 24 9 27.1 21.1.6-2.3 1-4.6 1-7 0-15.5-12.6-28.1-28.1-28.1s-28.1 12.6-28.1 28.1c0 2.4.4 4.8 1 7 3.2-12.1 14.1-21.1 27.1-21.1zm168.7 0c13.1 0 24 9 27.1 21.1.6-2.3 1-4.6 1-7 0-15.5-12.6-28.1-28.1-28.1S306 220.4 306 235.9c0 2.4.4 4.8 1 7 3.1-12.1 14-21.1 27.1-21.1z" fill="#ab7934"/><path class="prefix__st1" d="M362.2 285c0 11.6 9.4 21.1 21.1 21.1 11.6 0 21.1-9.4 21.1-21.1 0-11.6-9.4-21.1-21.1-21.1s-21.1 9.4-21.1 21.1zM95.2 285c0 11.6 9.4 21.1 21.1 21.1 11.6 0 21.1-9.4 21.1-21.1 0-11.6-9.4-21.1-21.1-21.1s-21.1 9.4-21.1 21.1z"/></svg>