<svg xmlns="http://www.w3.org/2000/svg" viewBox="0 0 500 500"><style>.prefix__st2{fill:#e3e3e3}</style><path d="M363.5 181.3c-15-51.2-62.2-88.6-118.3-88.6-67.3 0-121.9 54-123.2 120.9-31.3 3.7-55.6 30.3-55.6 62.6 0 34.9 28.2 63.1 63.1 63.1h224.7c43.7 0 79.3-35.5 79.3-79.3-.1-40.6-30.6-74.1-70-78.7z" fill="#f6f6f6"/><path d="M164.4 388.6l10.6-25.9c2.8-6.9 10.7-10.2 17.6-7.4 6.9 2.8 10.2 10.7 7.4 17.6l-10.6 25.9c-2.8 6.9-10.7 10.2-17.6 7.4-6.9-3-10.1-10.7-7.4-17.6z" fill="#4fc0f2"/><circle class="prefix__st2" cx="289.9" cy="384.6" r="22.6"/><circle class="prefix__st2" cx="361.6" cy="384.6" r="12.6"/></svg>