<svg xmlns="http://www.w3.org/2000/svg" viewBox="0 0 500 500"><style>.prefix__st0{fill:#e3e3e3}.prefix__st1{fill:#ffb55a}</style><path class="prefix__st0" d="M401.3 188.3h-.4c-4.4-47.3-44.2-84.4-92.6-84.4-51.4 0-93 41.7-93 93 0 49.7 38.9 90.3 88 92.9v.1h98.1c28.1 0 50.9-22.8 50.9-50.9s-22.9-50.7-51-50.7z"/><path class="prefix__st1" d="M54.5 150.3l103.7-112L270.1 142 166.6 253.9z"/><path class="prefix__st1" d="M86.1 69.9h152.6v152.6H86.1z"/><circle cx="162.4" cy="146" fill="#ffcf00" r="76.4"/><path d="M343.8 214.3c-15-51.2-62.2-88.6-118.3-88.6-67.3 0-121.9 54-123.2 120.9-31.3 3.7-55.6 30.3-55.6 62.6 0 34.9 28.2 63.1 63.1 63.1h224.7c43.7 0 79.3-35.5 79.3-79.3-.2-40.6-30.7-74.1-70-78.7z" fill="#f6f6f6"/><path d="M144.6 421.6l10.6-25.9c2.8-6.9 10.7-10.2 17.6-7.4 6.9 2.8 10.2 10.7 7.4 17.6l-10.6 25.9c-2.8 6.9-10.7 10.2-17.6 7.4-6.9-3-10.1-10.7-7.4-17.6z" fill="#4fc0f2"/><circle class="prefix__st0" cx="270.1" cy="417.6" r="22.6"/><circle class="prefix__st0" cx="341.9" cy="417.6" r="12.6"/></svg>