<svg xmlns="http://www.w3.org/2000/svg" viewBox="0 0 500 500"><style>.prefix__st0{fill:#e3e3e3}.prefix__st1{fill:#ffb55a}</style><path class="prefix__st0" d="M401.3 197.6h-.4c-4.4-47.3-44.2-84.4-92.6-84.4-51.4 0-93 41.7-93 93 0 49.7 38.9 90.3 88 92.9v.1h98.1c28.1 0 50.9-22.8 50.9-50.9s-22.9-50.7-51-50.7z"/><path class="prefix__st1" d="M54.5 159.6l103.7-112 111.9 103.7-103.5 111.9z"/><path class="prefix__st1" d="M86.1 79.2h152.6v152.6H86.1z"/><circle cx="162.4" cy="155.3" fill="#ffcf00" r="76.4"/><path d="M343.8 223.6c-15-51.2-62.2-88.6-118.3-88.6-67.3 0-121.9 54-123.2 120.9-31.3 3.7-55.6 30.3-55.6 62.6 0 34.9 28.2 63.1 63.1 63.1h224.7c43.7 0 79.3-35.5 79.3-79.3-.2-40.6-30.7-74.1-70-78.7z" fill="#f6f6f6"/><circle class="prefix__st0" cx="236.9" cy="426.9" r="22.6"/><circle class="prefix__st0" cx="139.9" cy="426.9" r="22.6"/><circle class="prefix__st0" cx="333.8" cy="426.9" r="22.6"/></svg>