<svg xmlns="http://www.w3.org/2000/svg" viewBox="0 0 500 500"><style>.prefix__st0{fill:#e3e3e3}</style><path class="prefix__st0" d="M401.8 152.3h-.4c-4.4-47.3-44.2-84.4-92.6-84.4-51.4 0-93 41.7-93 93 0 49.7 38.9 90.3 88 92.9v.1h98.1c28.1 0 50.9-22.8 50.9-50.9s-22.9-50.7-51-50.7z"/><path d="M344.3 178.3c-15-51.2-62.2-88.6-118.3-88.6-67.3 0-121.9 54-123.2 120.9-31.3 3.7-55.6 30.3-55.6 62.6 0 34.9 28.2 63.1 63.1 63.1H335c43.7 0 79.3-35.5 79.3-79.3-.2-40.6-30.7-74.1-70-78.7z" fill="#f6f6f6"/><path d="M218.1 415c-4-1.8-5.8-6.4-4-10.4l23.4-53c1.8-4 6.4-5.8 10.4-4 4 1.8 5.8 6.4 4 10.4l-23.4 53c-1.7 4-6.4 5.8-10.4 4z" fill="#e6e6e6"/><circle class="prefix__st0" cx="304.7" cy="381.3" r="22.6"/><circle class="prefix__st0" cx="161.3" cy="381.3" r="15.9"/><circle class="prefix__st0" cx="89.6" cy="381.3" r="15.9"/><circle class="prefix__st0" cx="376.4" cy="381.3" r="22.6"/></svg>