<svg xmlns="http://www.w3.org/2000/svg" viewBox="0 0 500 500"><style>.prefix__st1{fill:#f7b84e}</style><path d="M24.9 249.9c0 124 100.7 224.6 224.8 224.6 124.2 0 224.8-100.5 224.8-224.6 0-124-100.7-224.6-224.8-224.6-124.1 0-224.8 100.5-224.8 224.6z" fill="#fcd063"/><path class="prefix__st1" d="M394 77.7c32.7 39 52.5 89.2 52.5 144.1 0 124-100.7 224.6-224.8 224.6-54.9 0-105.2-19.7-144.3-52.4 41.2 49.2 103.1 80.5 172.4 80.5 124.2 0 224.8-100.6 224.8-224.6 0-69.2-31.4-131-80.6-172.2z"/><path d="M311 348.1c-4 0-8.1-1-11.9-3-26.3-14.6-72.5-14.6-98.9 0-10.9 6-25 2.8-31.6-7.1-6.6-10-3.1-22.9 7.8-28.9 41-22.7 105.4-22.7 146.4 0 10.9 6 14.4 19 7.8 28.9-4.2 6.5-11.8 10.1-19.6 10.1zm-12-154.4c4.2 0 8.2 1.2 11.7 3.5l42.2 28.1c9.7 6.4 12.3 19.5 5.8 29.2-6.4 9.7-19.5 12.3-29.2 5.8l-42.2-28.1c-9.7-6.4-12.3-19.5-5.8-29.2 4-6 10.7-9.3 17.5-9.3zm-98.4 0c6.8 0 13.5 3.3 17.6 9.4 6.5 9.7 3.8 22.8-5.8 29.2l-42.2 28.1c-9.7 6.5-22.8 3.8-29.2-5.8-6.4-9.7-3.8-22.8 5.8-29.2l42.2-28.1c3.3-2.4 7.4-3.6 11.6-3.6z" fill="#c98e3f"/><path d="M176.5 323c41-22.7 105.4-22.7 146.4 0 4.8 2.7 8 6.7 9.7 11.2 3.7-9.3-.2-19.9-9.7-25.2-41-22.7-105.4-22.7-146.4 0-9.6 5.3-13.4 15.9-9.7 25.2 1.7-4.5 5-8.5 9.7-11.2zm41.6-98.9c-6.4-9.7-19.5-12.3-29.2-5.8l-42.2 28.1c-2.8 1.9-4.9 4.3-6.5 7-5.5-9.5-2.9-21.8 6.5-28l42.2-28.1c9.7-6.5 22.8-3.8 29.2 5.8 4.6 6.9 4.5 15.5.6 22.2-.2-.4-.3-.8-.6-1.2zm63.3 0c6.4-9.7 19.5-12.3 29.2-5.8l42.2 28.1c2.8 1.9 4.9 4.3 6.5 7 5.5-9.5 2.8-21.8-6.5-28l-42.2-28.1c-9.7-6.5-22.8-3.8-29.2 5.8-4.6 6.9-4.5 15.5-.6 22.2.2-.4.3-.8.6-1.2z" fill="#ab7934"/><path class="prefix__st1" d="M362.2 285c0 11.6 9.4 21.1 21.1 21.1 11.6 0 21.1-9.4 21.1-21.1 0-11.6-9.4-21.1-21.1-21.1s-21.1 9.4-21.1 21.1zM95.2 285c0 11.6 9.4 21.1 21.1 21.1 11.6 0 21.1-9.4 21.1-21.1 0-11.6-9.4-21.1-21.1-21.1s-21.1 9.4-21.1 21.1z"/></svg>