<svg xmlns="http://www.w3.org/2000/svg" viewBox="0 0 500 500"><style>.prefix__st1{fill:#e6e6e6}</style><path d="M363.6 192.6c-15.1-51.6-62.7-89.3-119.3-89.3-67.9 0-123.1 54.4-124.4 122-31.6 3.7-56.1 30.5-56.1 63.1 0 35.1 28.4 63.5 63.5 63.5H354c44.2 0 80-35.8 80-80 .1-40.8-30.7-74.8-70.4-79.3z" fill="#f6f6f6"/><path class="prefix__st1" d="M355.7 395.8H198.5c-6.9 0-12.6-5.7-12.6-12.6 0-6.9 5.7-12.6 12.6-12.6h157.2c6.9 0 12.6 5.7 12.6 12.6 0 6.9-5.7 12.6-12.6 12.6zM162.9 395.8h-20.6c-6.9 0-12.6-5.7-12.6-12.6 0-6.9 5.7-12.6 12.6-12.6h20.6c6.9 0 12.6 5.7 12.6 12.6 0 6.9-5.7 12.6-12.6 12.6z"/></svg>