<svg version="1.1" id="prefix__图层_1" xmlns="http://www.w3.org/2000/svg" x="0" y="0" viewBox="0 0 500 500" xml:space="preserve"><style>.prefix__st0{fill:#e6e6e6}.prefix__st1{fill:#a67c52}.prefix__st2{fill:#c69c6d}</style><path class="prefix__st0" d="M421.5 381.9h-343c-7.3 0-13.2-5.9-13.2-13.2 0-7.3 5.9-13.2 13.2-13.2h342.9c7.3 0 13.2 5.9 13.2 13.2.1 7.3-5.9 13.2-13.1 13.2z"/><path class="prefix__st1" d="M126.9 195.9c0 9 7.3 16.2 16.2 16.3s16.2-7.3 16.3-16.2c0-9-7.3-16.2-16.2-16.2-9-.1-16.3 7.1-16.3 16.1z"/><path class="prefix__st2" d="M168.2 235.5c0 12.9 10.4 23.3 23.3 23.3s23.3-10.4 23.3-23.3-10.4-23.3-23.3-23.3c-12.9-.1-23.3 10.4-23.3 23.3zM73.2 145.3c0 7.8 6.3 14.1 14.1 14.1s14.1-6.3 14.1-14.1-6.3-14.1-14.1-14.1-14.1 6.3-14.1 14.1zM188.4 140.1c0 7.3 5.9 13.2 13.2 13.2s13.2-5.9 13.2-13.2-5.9-13.2-13.2-13.2-13.2 5.9-13.2 13.2z"/><path class="prefix__st0" d="M337.9 118.1c-53.4 0-96.7 43.3-96.7 96.7 0 4.9 5.9 8.8 13.2 8.8s13.2-3.9 13.2-8.8c0-38.9 31.5-70.3 70.3-70.3s70.3 31.5 70.3 70.3-31.5 70.3-70.3 70.3H78.5c-7.3 0-13.2 5.9-13.2 13.2 0 7.3 5.9 13.2 13.2 13.2h263.8c1 0 2-.1 3-.4 50-3.8 89.4-45.4 89.4-96.4 0-53.3-43.3-96.6-96.8-96.6z"/><path d="M81.2 235.5c0 3.4 2.8 6.2 6.2 6.2 3.4 0 6.2-2.8 6.2-6.2 0-3.4-2.8-6.2-6.2-6.2s-6.2 2.8-6.2 6.2z" fill="#c7b299"/><path class="prefix__st1" d="M143.1 153.3c0 3.4 2.8 6.2 6.2 6.2s6.2-2.8 6.2-6.2c0-3.4-2.8-6.2-6.2-6.2s-6.2 2.8-6.2 6.2z"/></svg>