<svg xmlns="http://www.w3.org/2000/svg" viewBox="0 0 500 500"><style>.prefix__st0{fill:#fff;stroke:#000;stroke-miterlimit:10}.prefix__st3,.prefix__st4,.prefix__st5{fill-rule:evenodd;clip-rule:evenodd;fill:#c69c6d}.prefix__st4,.prefix__st5{fill:#b3b3b3}.prefix__st5{fill:#c7b299}</style><path d="M420.9 179.2c3-7.5-.7-15.9-8.2-18.9-7.5-3-15.9.7-18.9 8.2-2.4 6-61.8 146.5-310.6 152-8 .1-14.5 6.7-14.4 14.7.1 8 6.7 14.5 14.7 14.4h.3c269.3-6 334.5-163.7 337.1-170.4z" fill-rule="evenodd" clip-rule="evenodd" fill="#e6e6e6"/><path d="M181.7 244.2c15.9 0 28.7-12.9 28.7-28.7s-12.9-28.7-28.7-28.7-28.7 12.8-28.7 28.7c0 15.9 12.8 28.7 28.7 28.7z" fill-rule="evenodd" clip-rule="evenodd" fill="#a67c52"/><path class="prefix__st3" d="M293.7 201.9c15.9 0 28.7-12.9 28.7-28.7 0-15.9-12.9-28.7-28.7-28.7-15.9 0-28.7 12.9-28.7 28.7 0 15.9 12.9 28.7 28.7 28.7z"/><path class="prefix__st4" d="M361.2 316.2c-15.9 0-28.7 12.9-28.7 28.7 0 15.9 12.9 28.7 28.7 28.7 15.9 0 28.7-12.9 28.7-28.7 0-15.9-12.8-28.7-28.7-28.7z"/><path class="prefix__st5" d="M287.3 352.2c-9.6 0-17.3 7.8-17.3 17.3 0 9.6 7.8 17.3 17.3 17.3 9.6 0 17.3-7.8 17.3-17.3.1-9.5-7.7-17.3-17.3-17.3z"/><path class="prefix__st3" d="M413.7 265.2c-9.6 0-17.3 7.8-17.3 17.3s7.8 17.3 17.3 17.3c9.6 0 17.3-7.8 17.3-17.3s-7.7-17.3-17.3-17.3z"/><path class="prefix__st5" d="M130.8 276.1c10.2 0 18.5-8.3 18.5-18.5s-8.3-18.5-18.5-18.5-18.5 8.3-18.5 18.5 8.3 18.5 18.5 18.5z"/><path class="prefix__st4" d="M240.9 144.5c8.7 0 15.7-7 15.7-15.7s-7-15.7-15.7-15.7-15.7 7-15.7 15.7 7.1 15.7 15.7 15.7z"/><path d="M231.5 250c0 10.2 8.3 18.5 18.5 18.5s18.5-8.3 18.5-18.5-8.3-18.5-18.5-18.5-18.5 8.3-18.5 18.5z" fill-rule="evenodd" clip-rule="evenodd" fill="#c8aa96"/></svg>