<svg xmlns="http://www.w3.org/2000/svg" viewBox="0 0 500 500"><style>.prefix__st0{fill:#ffc107}.prefix__st1{fill:#ffa000}</style><path class="prefix__st0" d="M416 161.8H84c-12.1 0-22-9.9-22-22s9.9-22 22-22h332c12.1 0 22 9.9 22 22s-9.9 22-22 22zM332 235.2H84c-12.1 0-22-9.9-22-22s9.9-22 22-22h248c12.1 0 22 9.9 22 22 0 12.2-9.9 22-22 22zM243 308.8H84c-12.1 0-22-9.9-22-22s9.9-22 22-22h159c12.1 0 22 9.9 22 22s-9.9 22-22 22zM166 382.2H84c-12.1 0-22-9.9-22-22s9.9-22 22-22h82c12.1 0 22 9.9 22 22 0 12.2-9.9 22-22 22z"/><path class="prefix__st1" d="M228 382.2c-12.1 0-22-9.9-22-22s9.9-22 22-22 22 9.9 22 22c0 12.2-9.9 22-22 22zM305.5 308.8c-12.1 0-22-9.9-22-22s9.9-22 22-22 22 9.9 22 22-9.9 22-22 22zM392.3 234.6c-12.1 0-22-9.9-22-22s9.9-22 22-22 22 9.9 22 22-9.9 22-22 22z"/></svg>