<svg xmlns="http://www.w3.org/2000/svg" viewBox="0 0 500 500"><style>.prefix__st0{fill:#ffc107}.prefix__st1{fill:#ffa000}</style><path class="prefix__st0" d="M416 130.9H84c-12.1 0-22-9.9-22-22s9.9-22 22-22h332c12.1 0 22 9.9 22 22s-9.9 22-22 22zM362.5 201.4H151c-12.1 0-22-9.9-22-22s9.9-22 22-22h211.5c12.1 0 22 9.9 22 22s-9.9 22-22 22zM323 272H164c-12.1 0-22-9.9-22-22s9.9-22 22-22h159c12.1 0 22 9.9 22 22s-9.9 22-22 22zM261 342.6h-82c-12.1 0-22-9.9-22-22s9.9-22 22-22h82c12.1 0 22 9.9 22 22s-9.9 22-22 22z"/><path class="prefix__st1" d="M120 342.6c-12.1 0-22-9.9-22-22s9.9-22 22-22 22 9.9 22 22-9.9 22-22 22zM384.5 272c-12.1 0-22-9.9-22-22s9.9-22 22-22 22 9.9 22 22-9.9 22-22 22zM84 201.4c-12.1 0-22-9.9-22-22s9.9-22 22-22 22 9.9 22 22-9.9 22-22 22z"/><path class="prefix__st0" d="M296.5 413.1h-31c-12.1 0-22-9.9-22-22s9.9-22 22-22h31c12.1 0 22 9.9 22 22s-9.9 22-22 22z"/></svg>