<svg version="1.1" id="prefix__图层_1" xmlns="http://www.w3.org/2000/svg" x="0" y="0" viewBox="0 0 500 500" xml:space="preserve"><style>.prefix__st1{fill:#e6e6e6}</style><path d="M364.1 193.1c-15.1-51.6-62.7-89.3-119.3-89.3-67.9 0-123.1 54.4-124.4 122-31.6 3.7-56.1 30.5-56.1 63.1 0 35.1 28.4 63.5 63.5 63.5h226.7c44.2 0 80-35.8 80-80 .1-40.8-30.7-74.8-70.4-79.3z" fill="#f6f6f6"/><path class="prefix__st1" d="M275.8 435.5H118.5c-6.9 0-12.6-5.7-12.6-12.6 0-6.9 5.7-12.6 12.6-12.6h157.2c6.9 0 12.6 5.7 12.6 12.6 0 7-5.6 12.6-12.5 12.6zM377.2 396.2H220c-6.9 0-12.6-5.7-12.6-12.6 0-6.9 5.7-12.6 12.6-12.6h157.2c6.9 0 12.6 5.7 12.6 12.6 0 7-5.7 12.6-12.6 12.6zM335 435.5h-20.6c-6.9 0-12.6-5.7-12.6-12.6 0-6.9 5.7-12.6 12.6-12.6H335c6.9 0 12.6 5.7 12.6 12.6 0 7-5.7 12.6-12.6 12.6zM184.4 396.2h-20.6c-6.9 0-12.6-5.7-12.6-12.6 0-6.9 5.7-12.6 12.6-12.6h20.6c6.9 0 12.6 5.7 12.6 12.6 0 7-5.7 12.6-12.6 12.6z"/></svg>