<svg xmlns="http://www.w3.org/2000/svg" viewBox="0 0 500 500"><style>.prefix__st1{fill:#e6e6e6}</style><path d="M364.2 175.8c-15.1-51.6-62.7-89.3-119.3-89.3-67.9 0-123.1 54.4-124.4 122-31.6 3.7-56.1 30.5-56.1 63.1 0 35.1 28.4 63.5 63.5 63.5h226.7c44.2 0 80-35.8 80-80 .1-40.7-30.7-74.7-70.4-79.3z" fill="#f6f6f6"/><path class="prefix__st1" d="M186.8 193.5H83.2c-6.9 0-12.6-5.7-12.6-12.6 0-6.9 5.7-12.6 12.6-12.6h103.6c6.9 0 12.6 5.7 12.6 12.6 0 6.9-5.7 12.6-12.6 12.6zM245.8 195.8h-20.6c-6.9 0-12.6-5.7-12.6-12.6 0-6.9 5.7-12.6 12.6-12.6h20.6c6.9 0 12.6 5.7 12.6 12.6 0 7-5.7 12.6-12.6 12.6zM377.3 379H220.1c-6.9 0-12.6-5.7-12.6-12.6 0-6.9 5.7-12.6 12.6-12.6h157.2c6.9 0 12.6 5.7 12.6 12.6 0 7-5.7 12.6-12.6 12.6zM286.1 413.6H128.9c-6.9 0-12.6-5.7-12.6-12.6 0-6.9 5.7-12.6 12.6-12.6h157.2c6.9 0 12.6 5.7 12.6 12.6 0 6.9-5.7 12.6-12.6 12.6zM257.8 239.6H83.2c-6.9 0-12.6-5.7-12.6-12.6 0-6.9 5.7-12.6 12.6-12.6h174.6c6.9 0 12.6 5.7 12.6 12.6 0 6.9-5.7 12.6-12.6 12.6zM184.5 379h-20.6c-6.9 0-12.6-5.7-12.6-12.6 0-6.9 5.7-12.6 12.6-12.6h20.6c6.9 0 12.6 5.7 12.6 12.6 0 7-5.7 12.6-12.6 12.6zM343.8 413.6h-20.6c-6.9 0-12.6-5.7-12.6-12.6 0-6.9 5.7-12.6 12.6-12.6h20.6c6.9 0 12.6 5.7 12.6 12.6 0 7-5.7 12.6-12.6 12.6z"/></svg>