<svg xmlns="http://www.w3.org/2000/svg" viewBox="0 0 500 500"><style>.prefix__st2{fill:#c98e3f}.prefix__st3{fill:#ab7934}</style><path d="M24.9 250.2c0 124 100.7 224.6 224.8 224.6 124.2 0 224.8-100.5 224.8-224.6 0-124-100.7-224.6-224.8-224.6-124.2 0-224.8 100.6-224.8 224.6z" fill="#fcd063"/><path d="M393.9 78.1c32.7 39 52.5 89.2 52.5 144.1 0 124-100.7 224.6-224.8 224.6-54.9 0-105.2-19.7-144.3-52.4 41.2 49.2 103.1 80.5 172.4 80.5 124.2 0 224.8-100.6 224.8-224.6 0-69.2-31.3-131-80.6-172.2z" fill="#f7b84e"/><path class="prefix__st2" d="M173 362.5h153.3c4.2 0 7.7-3.1 7.7-7 0-42.6-37.8-77.2-84.3-77.2s-84.3 34.6-84.3 77.2c0 3.9 3.4 7 7.6 7z"/><path class="prefix__st3" d="M249.7 292.3c42.4 0 77.6 28.9 83.4 66.4.5-1 .9-2 .9-3.2 0-42.6-37.8-77.2-84.3-77.2s-84.3 34.6-84.3 77.2c0 1.2.4 2.2.9 3.2 5.8-37.4 40.9-66.4 83.4-66.4z"/><path class="prefix__st2" d="M199.3 208.1l18.2-18.1c5.5-5.5 5.5-14.4 0-19.8-5.5-5.5-14.4-5.5-19.9 0l-18.2 18.1-18.2-18.1c-5.5-5.5-14.4-5.5-19.9 0s-5.5 14.4 0 19.8l18.2 18.1-18.2 18.1c-5.5 5.5-5.5 14.4 0 19.8 2.7 2.7 6.3 4.1 9.9 4.1 3.6 0 7.2-1.4 9.9-4.1l18.2-18.1 18.2 18.1c2.7 2.7 6.3 4.1 9.9 4.1 3.6 0 7.2-1.4 9.9-4.1 5.5-5.5 5.5-14.4 0-19.8l-18-18.1z"/><path class="prefix__st3" d="M141.4 184.2c5.5-5.5 14.4-5.5 19.9 0l18.2 18.1 18.2-18.1c5.5-5.5 14.4-5.5 19.9 0 .9.9 1.3 1.9 1.9 2.9 3.2-5.4 2.7-12.3-1.9-16.9-5.5-5.5-14.4-5.5-19.9 0l-18.2 18.1-18.2-18.1c-5.5-5.5-14.4-5.5-19.9 0-4.6 4.6-5.1 11.6-1.9 16.9.5-1 1-2.1 1.9-2.9zm0 56.1l18.2-18.1v-14l-18.2 18.1c-4.6 4.6-5.1 11.6-1.9 16.9.5-1 1-2 1.9-2.9zm57.9-32.2v14l18.2 18.1c.9.9 1.3 1.9 1.9 2.9 3.2-5.4 2.7-12.3-1.9-16.9l-18.2-18.1z"/><path class="prefix__st2" d="M339.8 208.1L358 190c5.5-5.5 5.5-14.4 0-19.8-5.5-5.5-14.4-5.5-19.9 0l-18.2 18.1-18.2-18.1c-5.5-5.5-14.4-5.5-19.9 0s-5.5 14.4 0 19.8l18.2 18.1-18.2 18.1c-5.5 5.5-5.5 14.4 0 19.8 2.7 2.7 6.3 4.1 9.9 4.1s7.2-1.4 9.9-4.1l18.2-18.1L338 246c2.7 2.7 6.3 4.1 9.9 4.1s7.2-1.4 9.9-4.1c5.5-5.5 5.5-14.4 0-19.8l-18-18.1z"/><path class="prefix__st3" d="M282.1 184.2c5.5-5.5 14.4-5.5 19.9 0l18.2 18.1 18.2-18.1c5.5-5.5 14.4-5.5 19.9 0 .9.9 1.3 1.9 1.9 2.9 3.2-5.4 2.7-12.3-1.9-16.9-5.5-5.5-14.4-5.5-19.9 0l-18.2 18.1-18.2-18.1c-5.5-5.5-14.4-5.5-19.9 0-4.6 4.6-5.1 11.6-1.9 16.9.5-1 1-2.1 1.9-2.9zm0 56.1l18.2-18.1-.2-14-18 18.1c-4.6 4.6-5.1 11.6-1.9 16.9.5-1 1-2 1.9-2.9zm57.7-32.2l.2 14 18.2 18.1c.9.9 1.3 1.9 1.9 2.9 3.2-5.4 2.7-12.3-1.9-16.9l-18.4-18.1z"/></svg>