<svg xmlns="http://www.w3.org/2000/svg" viewBox="0 0 500 500"><style>.prefix__st0{fill-rule:evenodd;clip-rule:evenodd;fill:#cfd8dc}.prefix__st1{fill:#90a4ae}</style><path class="prefix__st0" d="M283.7 291.1V103.4c0-21.8-17.8-39.6-39.6-39.6-22.9 0-41.6 18.7-41.6 41.6v185.8c-27.2 14.5-45.6 43.1-45.6 76.1 0 47.6 38.6 86.2 86.2 86.2s86.2-38.6 86.2-86.2c.1-33.1-18.4-61.7-45.6-76.2z"/><path class="prefix__st1" d="M283.5 133h-28.6c-2.7 0-4.9-2.2-4.9-4.9s2.2-4.9 4.9-4.9h28.6v9.8z"/><path d="M266.1 314.7V250H222c-1.1 0-2 .9-2 2v62.8c-20.2 8.9-34.2 29-34.2 52.4 0 31.6 25.6 57.3 57.3 57.3 31.6 0 57.3-25.6 57.3-57.3-.1-23.4-14.2-43.6-34.3-52.5z" fill-rule="evenodd" clip-rule="evenodd" fill="#ff485e"/><path class="prefix__st1" d="M283.5 192.7h-28.6c-2.7 0-4.9-2.2-4.9-4.9s2.2-4.9 4.9-4.9h28.6v9.8z"/><path d="M266.1 314.7V250h-12.8v64.7c20.2 8.9 34.2 29 34.2 52.4 0 29.5-22.2 53.7-50.9 56.9 2.1.2 4.2.4 6.4.4 31.6 0 57.3-25.6 57.3-57.3 0-23.3-14.1-43.5-34.2-52.4z" fill-rule="evenodd" clip-rule="evenodd" fill="#d82356"/><path class="prefix__st1" d="M283.5 152.9h-16.1c-2.7 0-4.9-2.2-4.9-4.9s2.2-4.9 4.9-4.9h16.1v9.8zM283.5 172.8h-16.1c-2.7 0-4.9-2.2-4.9-4.9s2.2-4.9 4.9-4.9h16.1v9.8zM283.5 212.6h-16.1c-2.7 0-4.9-2.2-4.9-4.9s2.2-4.9 4.9-4.9h16.1v9.8zM283.5 232.6h-16.1c-2.7 0-4.9-2.2-4.9-4.9s2.2-4.9 4.9-4.9h16.1v9.8z"/><path class="prefix__st0" d="M362.6 133h-37.9c-5.1 0-9.2-4.1-9.2-9.2s4.1-9.2 9.2-9.2h37.9c5.1 0 9.2 4.1 9.2 9.2s-4.1 9.2-9.2 9.2z"/><path class="prefix__st0" d="M352.8 104.9v37.9c0 5.1-4.1 9.2-9.2 9.2s-9.2-4.1-9.2-9.2v-37.9c0-5.1 4.1-9.2 9.2-9.2s9.2 4.1 9.2 9.2z"/></svg>