<svg xmlns="http://www.w3.org/2000/svg" viewBox="0 0 500 500"><style>.prefix__st0{fill-rule:evenodd;clip-rule:evenodd;fill:#cfd8dc}.prefix__st1{fill:#90a4ae}</style><path class="prefix__st0" d="M268.9 282V94.3c0-21.8-17.8-39.6-39.6-39.6-22.9 0-41.6 18.7-41.6 41.6V282c-27.2 14.5-45.6 43.1-45.6 76.1 0 47.6 38.6 86.2 86.2 86.2s86.2-38.6 86.2-86.2c0-32.9-18.5-61.6-45.6-76.1z"/><path class="prefix__st1" d="M268.6 123.9H240c-2.7 0-4.9-2.2-4.9-4.9s2.2-4.9 4.9-4.9h28.6v9.8z"/><path d="M251.2 305.7V241h-44.1c-1.1 0-2 .9-2 2v62.8c-20.2 8.9-34.2 29-34.2 52.4 0 31.6 25.6 57.3 57.3 57.3 31.6 0 57.3-25.6 57.3-57.3 0-23.5-14.1-43.7-34.3-52.5z" fill-rule="evenodd" clip-rule="evenodd" fill="#81d4fa"/><path class="prefix__st1" d="M268.6 183.6H240c-2.7 0-4.9-2.2-4.9-4.9s2.2-4.9 4.9-4.9h28.6v9.8z"/><path d="M251.2 305.7V241h-12.8v64.7c20.2 8.9 34.2 29 34.2 52.4 0 29.5-22.2 53.7-50.9 56.9 2.1.2 4.2.4 6.4.4 31.6 0 57.3-25.6 57.3-57.3.1-23.4-14-43.6-34.2-52.4z" fill-rule="evenodd" clip-rule="evenodd" fill="#29b6f6"/><path class="prefix__st1" d="M268.6 143.8h-16.1c-2.7 0-4.9-2.2-4.9-4.9s2.2-4.9 4.9-4.9h16.1v9.8zM268.6 163.7h-16.1c-2.7 0-4.9-2.2-4.9-4.9s2.2-4.9 4.9-4.9h16.1v9.8zM268.6 203.6h-16.1c-2.7 0-4.9-2.2-4.9-4.9s2.2-4.9 4.9-4.9h16.1v9.8zM268.6 223.5h-16.1c-2.7 0-4.9-2.2-4.9-4.9s2.2-4.9 4.9-4.9h16.1v9.8z"/><path class="prefix__st0" d="M347.8 123.9h-37.9c-5.1 0-9.2-4.1-9.2-9.2s4.1-9.2 9.2-9.2h37.9c5.1 0 9.2 4.1 9.2 9.2-.1 5.1-4.2 9.2-9.2 9.2z"/></svg>