<svg xmlns="http://www.w3.org/2000/svg" viewBox="0 0 500 500"><style>.prefix__st2{fill:#909090}</style><path d="M401.5 177.1h-.5c-5-54.1-50.5-96.4-105.8-96.4-58.7 0-106.2 47.6-106.2 106.2 0 56.7 44.5 103.1 100.5 106.1v.2h112c32.1 0 58.1-26 58.1-58.1s-25.9-58-58.1-58z" fill="#e3e3e3"/><path d="M381.5 234.9c-17.4-59.4-72.2-102.8-137.3-102.8-78.1 0-141.6 62.6-143.1 140.4-36.4 4.3-64.6 35.1-64.6 72.6 0 40.4 32.7 73.1 73.1 73.1h260.9c50.8 0 92-41.2 92-92 0-46.9-35.3-86-81-91.3z" fill="#f6f6f6"/><path class="prefix__st2" d="M207.3 373.5c-2.2 0-4.3-1.2-5.3-3.2l-25.5-49.1-13.8 46.5c-.9 3.2-4.3 5-7.4 4.1-3.2-.9-5-4.3-4.1-7.4l17.9-60.8c.7-2.3 2.7-4 5.2-4.3 2.4-.2 4.8 1 5.9 3.2l25.1 48.3 11.6-46.9c.8-3.2 4-5.2 7.3-4.4 3.2.8 5.2 4 4.4 7.3l-15.4 62.4c-.6 2.4-2.6 4.2-5.1 4.5-.4-.2-.6-.2-.8-.2zM243.5 373.5c-.6 0-1.2-.1-1.8-.3-3.2-1-4.9-4.4-3.9-7.5l20.1-63.6c1-3.2 4.4-4.9 7.5-3.9 3.2 1 4.9 4.4 3.9 7.5l-20.1 63.6c-.8 2.6-3.1 4.2-5.7 4.2zM341.9 373.5c-2.3 0-4.6-1.4-5.5-3.7l-21.1-50-23.6 50.2c-1.4 3-5 4.3-8 2.9s-4.3-5-2.9-8l29.4-62.4c1-2.1 3.2-3.5 5.5-3.4 2.4 0 4.5 1.5 5.4 3.7l26.4 62.4c1.3 3.1-.1 6.6-3.2 7.9-.8.3-1.6.4-2.4.4z"/><path fill="none" d="M302.1 342h13.4"/><path class="prefix__st2" d="M315.5 348h-13.4c-3.3 0-6-2.7-6-6s2.7-6 6-6h13.4c3.3 0 6 2.7 6 6s-2.7 6-6 6z"/></svg>